<?xml version="1.0" encoding="UTF-8" standalone="no"?>
<svg
   xmlns:dc="http://purl.org/dc/elements/1.1/"
   xmlns:cc="http://creativecommons.org/ns#"
   xmlns:rdf="http://www.w3.org/1999/02/22-rdf-syntax-ns#"
   xmlns:svg="http://www.w3.org/2000/svg"
   xmlns="http://www.w3.org/2000/svg"
   xmlns:sodipodi="http://sodipodi.sourceforge.net/DTD/sodipodi-0.dtd"
   xmlns:inkscape="http://www.inkscape.org/namespaces/inkscape"
   version="1.1"
   id="svg2"
   xml:space="preserve"
   width="852"
   height="800"
   viewBox="0 0 852 800"
   sodipodi:docname="ALTurtle.eps"><metadata
     id="metadata8"><rdf:RDF><cc:Work
         rdf:about=""><dc:format>image/svg+xml</dc:format><dc:type
           rdf:resource="http://purl.org/dc/dcmitype/StillImage" /></cc:Work></rdf:RDF></metadata><defs
     id="defs6"><clipPath
       clipPathUnits="userSpaceOnUse"
       id="clipPath20"><path
         d="M 0,7 V 5993 H 6384 V 7 Z"
         id="path18" /></clipPath></defs><sodipodi:namedview
     pagecolor="#ffffff"
     bordercolor="#666666"
     borderopacity="1"
     objecttolerance="10"
     gridtolerance="10"
     guidetolerance="10"
     inkscape:pageopacity="0"
     inkscape:pageshadow="2"
     inkscape:window-width="640"
     inkscape:window-height="480"
     id="namedview4" /><g
     id="g10"
     inkscape:groupmode="layer"
     inkscape:label="ink_ext_XXXXXX"
     transform="matrix(1.3333333,0,0,-1.3333333,0,800)"><g
       id="g12"
       transform="scale(0.1)"><g
         id="g14"><g
           id="g16"
           clip-path="url(#clipPath20)"><path
             d="M 16.832,-3 H 6403.21 V 5982.98 H 16.832 V -3 -3"
             style="fill:#000000;fill-opacity:1;fill-rule:evenodd;stroke:none"
             id="path22" /><path
             d="m 3230.04,2959.96 h 40.04 l -30.93,-51.48 -37.6,70.7 99.97,-5.23 -67.18,-99.59 -59.22,127.01 159.28,-16.74 -108.44,-143.9 -74.99,185.63 217.51,-34.45 -154.43,-184.04 -84.73,246.08 274.16,-58.27 -204.8,-219.63 -88.3,307.91 328.75,-88.08 -259.23,-250.33 -85.56,370.63 380.8,-123.73 -317.3,-275.82 -76.48,433.75 429.88,-165.02 -378.62,-295.81 -61,496.77 475.52,-211.71 -442.78,-310.04 -39.11,559.19 517.3,-263.58 -509.34,-318.27 -10.83,620.53"
             style="fill:none;stroke:#add8e6;stroke-width:10.01;stroke-linecap:round;stroke-linejoin:round;stroke-miterlimit:10;stroke-dasharray:none;stroke-opacity:1"
             id="path24" /><path
             d="m 3062.38,3262.44 554.82,-320.32 -577.83,-320.3 23.76,680.27 587.65,-381.63 -647.78,-315.94 64.56,737.92 615.47,-447.16 -718.71,-305.08 111.45,793.01 637.89,-516.56 -790.13,-287.59 164.26,845.05 654.62,-589.43 -861.53,-263.39 222.79,893.56 665.35,-665.34 -932.42,-232.48 286.81,938.11 669.8,-743.88 -1002.26,-194.82 356.05,978.26 667.75,-824.6 -1070.56,-150.46 430.24,1013.57 658.98,-907.01 -1136.8,-99.45 509.02,1043.64 643.31,-990.62 -1200.46,-41.92 592.06,1068.1"
             style="fill:none;stroke:#0000ff;stroke-width:10.01;stroke-linecap:round;stroke-linejoin:round;stroke-miterlimit:10;stroke-dasharray:none;stroke-opacity:1"
             id="path26" /><path
             d="M 3240.54,3655.95 3861.15,2581 l -1261.06,22.02 678.97,1086.58 590.78,-1159.46 -1318.1,92.16 769.36,1098.77 553.71,-1243.67 -1371.08,168.35 862.79,1104.32 509.39,-1327.01 -1419.54,250.3 958.8,1102.98 457.81,-1408.97 -1463.02,337.76 1056.93,1094.5 398.99,-1489.02 -1501.07,430.43 1156.69,1078.63 332.99,-1566.6 -1533.27,527.95 1257.57,1055.22 259.94,-1641.2 -1559.23,629.97 1359.04,1024.11 179.97,-1712.29 -1578.55,736.09 1460.56,985.17 93.25,-1779.34 -1590.89,845.89 1561.6,938.31"
             style="fill:none;stroke:#4b0082;stroke-width:10.01;stroke-linecap:round;stroke-linejoin:round;stroke-miterlimit:10;stroke-dasharray:none;stroke-opacity:1"
             id="path28" /><path
             d="M 3764.48,3862.95 V 2021.11 l -1595.92,958.93 1661.6,883.48 -99.54,-1899.29 -1593.34,1074.72 1759.99,820.7 L 3692.2,1908.44 2109.31,3101.23 3965.54,3851.19 3649.22,1854.06 2084.93,3166.66 4034.64,3838 3601.76,1801.42 2064.38,3235.05 4104.29,3819.98 3549.86,1750.84 2047.9,3306.16 4174.15,3797.05 3493.63,1702.63 2035.73,3379.76 4243.9,3769.13 3433.18,1657.12 2028.07,3455.58 4313.21,3736.16 3368.64,1614.62 2025.13,3533.35 4381.73,3698.14 3300.15,1575.43 2027.07,3612.78 4449.13,3655.05 3227.91,1539.84 2034.08,3693.55 4515.05,3606.92 3152.09,1508.14 2046.29,3775.37 4579.16,3553.77 3072.92,1480.62 2063.82,3857.89 4641.1,3495.68 2990.63,1457.52 2086.79,3940.79 4700.53,3432.73"
             style="fill:none;stroke:#ee82ee;stroke-width:10.01;stroke-linecap:round;stroke-linejoin:round;stroke-miterlimit:10;stroke-dasharray:none;stroke-opacity:1"
             id="path30" /><path
             d="M 4700.53,3432.73 2905.47,1439.11 2115.27,4023.72 4757.12,3365.04"
             style="fill:none;stroke:#ee82ee;stroke-width:10.01;stroke-linecap:round;stroke-linejoin:round;stroke-miterlimit:10;stroke-dasharray:none;stroke-opacity:1"
             id="path32" /><path
             d="M 4757.12,3365.04 2817.71,1425.63 2149.34,4106.32 4810.52,3292.71 2727.64,1417.27 2189.02,4188.23 4860.41,3215.92 2635.55,1414.27 2234.33,4269.09 4906.46,3134.84 2541.77,1416.79 2285.28,4348.53 4948.37,3049.65 2446.63,1425 2341.83,4426.18 4985.82,2960.59 2350.47,1439.07 2403.93,4501.66 5018.53,2867.88 2253.65,1459.1 2471.51,4574.61 5046.21,2771.78 2156.53,1485.21 2544.46,4644.66 5068.61,2672.57 2059.48,1517.47 2622.66,4711.44 5085.48,2570.55 1962.89,1555.96 2705.97,4774.6 5096.57,2466.02 1867.15,1600.7 2794.22,4833.77 5101.68,2359.33 1772.65,1651.72 2887.21,4888.63 5100.61,2250.8 1679.79,1709 2984.72,4938.82 5093.18,2140.8 1588.96,1772.49 3086.53,4984.03 5079.25,2029.71"
             style="fill:none;stroke:#add8e6;stroke-width:10.01;stroke-linecap:round;stroke-linejoin:round;stroke-miterlimit:10;stroke-dasharray:none;stroke-opacity:1"
             id="path34" /><path
             d="M 5079.25,2029.71 1500.57,1842.16 3192.36,5023.95 5058.67,1917.9"
             style="fill:none;stroke:#add8e6;stroke-width:10.01;stroke-linecap:round;stroke-linejoin:round;stroke-miterlimit:10;stroke-dasharray:none;stroke-opacity:1"
             id="path36" /><path
             d="M 5058.67,1917.9 H 1415.03 L 3301.95,5058.27 5031.33,1805.77 1332.71,1999.61 3414.99,5086.71 4997.16,1693.73 1254.02,2087.15 3531.15,5109.01 4956.08,1582.19 1179.34,2180.37 3650.11,5124.92 4908.06,1471.57 1109.05,2279.07 3771.51,5134.2 4853.09,1362.29 1043.54,2383.05 3894.97,5136.65 4791.17,1254.78 983.137,2492.09 4020.11,5132.08 4722.34,1149.48 928.219,2605.91 4146.52,5120.32 4646.68,1046.81 879.109,2724.24 4273.79,5101.22 4564.27,947.207 836.137,2846.79 4401.5,5074.67 4475.22,851.094 799.602,2973.21 4529.21,5040.57 4379.69,758.898 769.801,3103.19 4656.47,4998.84 4277.84,671.035 746.996,3236.34 4782.84,4949.46 4169.87,587.922 731.445,3372.3 4907.85,4892.39 4055.99,509.949"
             style="fill:none;stroke:#0000ff;stroke-width:10.01;stroke-linecap:round;stroke-linejoin:round;stroke-miterlimit:10;stroke-dasharray:none;stroke-opacity:1"
             id="path38" /><path
             d="M 4055.99,509.949 723.375,3510.65 5031.05,4827.64 3936.47,437.52"
             style="fill:none;stroke:#0000ff;stroke-width:10.01;stroke-linecap:round;stroke-linejoin:round;stroke-miterlimit:10;stroke-dasharray:none;stroke-opacity:1"
             id="path40" /><path
             d="M 3936.47,437.52 722.996,3651 5151.97,4755.26 3811.57,371.004 730.488,3792.89 5270.14,4675.31 3681.58,310.777 746.016,3935.9 5385.11,4587.88 3546.83,257.18 769.711,4079.56 5496.39,4493.09 3407.66,210.551 801.684,4223.41 5603.56,4391.09 3264.44,171.207 842.016,4366.96 5706.14,4282.06 3117.54,139.445 890.766,4509.75 5803.69,4166.2 2967.39,115.543 947.957,4651.26 5895.78,4043.74 2814.39,99.7461 1013.59,4791.01 5981.98,3914.95 2659,92.2969 1087.63,4928.5 6061.89,3780.1 2501.68,93.3945 1170.02,5063.22 6135.09,3639.51 2342.89,103.223 1260.66,5194.68 6201.21,3493.51 2183.12,121.938 1359.45,5322.38 6259.88,3342.47 2022.88,149.664 1466.23,5445.81 6310.75,3186.77 1862.67,186.5"
             style="fill:none;stroke:#4b0082;stroke-width:10.01;stroke-linecap:round;stroke-linejoin:round;stroke-miterlimit:10;stroke-dasharray:none;stroke-opacity:1"
             id="path42" /><path
             d="M 1862.67,186.5 1580.82,5564.5 6353.5,3026.82 1703.01,232.52"
             style="fill:none;stroke:#4b0082;stroke-width:10.01;stroke-linecap:round;stroke-linejoin:round;stroke-miterlimit:10;stroke-dasharray:none;stroke-opacity:1"
             id="path44" /><path
             d="M 1703.01,232.52 V 5677.96 L 6387.82,2863.04 1544.43,287.762 1832.57,5785.72 6413.43,2695.89 1387.47,352.242 1969.23,5887.31 6430.07,2525.82 1232.65,425.93 2112.69,5982.29 6437.5,2353.34 1080.51,508.785 2262.63,6070.22 6435.52,2178.94 931.602,600.719 2418.71,6150.68 6423.94,2003.14 786.453,701.617 2580.54,6223.26 6402.63,1826.46 645.594,811.34 2747.73,6287.59 6371.44,1649.46 509.563,929.707 2919.85,6343.3 6330.3,1472.68 378.875,1056.51 3096.45,6390.06 6279.15,1296.68 254.047,1191.52 3277.07,6427.54 6217.95,1122.04 135.578,1334.45 3461.2,6455.45 6146.71,949.332 23.9609,1485 3648.34,6473.53 6065.47,779.121 -80.3281,1642.86 3837.96,6481.54 5974.3,611.992 -176.832,1807.65"
             style="fill:none;stroke:#ee82ee;stroke-width:10.01;stroke-linecap:round;stroke-linejoin:round;stroke-miterlimit:10;stroke-dasharray:none;stroke-opacity:1"
             id="path46" /><path
             d="M -176.832,1807.65 4029.51,6479.27 5873.29,448.523 -265.109,1979"
             style="fill:none;stroke:#ee82ee;stroke-width:10.01;stroke-linecap:round;stroke-linejoin:round;stroke-miterlimit:10;stroke-dasharray:none;stroke-opacity:1"
             id="path48" /></g></g></g></g></svg>
