<?xml version="1.0" encoding="UTF-8" standalone="no"?>
<svg
   xmlns:dc="http://purl.org/dc/elements/1.1/"
   xmlns:cc="http://creativecommons.org/ns#"
   xmlns:rdf="http://www.w3.org/1999/02/22-rdf-syntax-ns#"
   xmlns:svg="http://www.w3.org/2000/svg"
   xmlns="http://www.w3.org/2000/svg"
   xmlns:sodipodi="http://sodipodi.sourceforge.net/DTD/sodipodi-0.dtd"
   xmlns:inkscape="http://www.inkscape.org/namespaces/inkscape"
   version="1.1"
   id="svg2"
   xml:space="preserve"
   width="1276"
   height="1076"
   viewBox="0 0 1276 1076"
   sodipodi:docname="blueandvioletTurtle.eps"><metadata
     id="metadata8"><rdf:RDF><cc:Work
         rdf:about=""><dc:format>image/svg+xml</dc:format><dc:type
           rdf:resource="http://purl.org/dc/dcmitype/StillImage" /></cc:Work></rdf:RDF></metadata><defs
     id="defs6"><clipPath
       clipPathUnits="userSpaceOnUse"
       id="clipPath20"><path
         d="M 0,8068 H 9568 V 0 H 0 Z"
         id="path18" /></clipPath></defs><sodipodi:namedview
     pagecolor="#ffffff"
     bordercolor="#666666"
     borderopacity="1"
     objecttolerance="10"
     gridtolerance="10"
     guidetolerance="10"
     inkscape:pageopacity="0"
     inkscape:pageshadow="2"
     inkscape:window-width="640"
     inkscape:window-height="480"
     id="namedview4" /><g
     id="g10"
     inkscape:groupmode="layer"
     inkscape:label="ink_ext_XXXXXX"
     transform="matrix(1.3333333,0,0,-1.3333333,0,1076)"><g
       id="g12"
       transform="scale(0.1)"><g
         id="g14"><g
           id="g16"
           clip-path="url(#clipPath20)"><path
             d="M 12.3867,-17.9766 H 9587.59 V 8057.98 H 12.3867 v -8075.9566 0"
             style="fill:#000000;fill-opacity:1;fill-rule:evenodd;stroke:none"
             id="path22" /><path
             d="m 4819.98,3990.02 h 39.98 l -30.89,-51.4 -37.53,70.59 99.81,-5.23 -67.07,-99.43 -59.14,126.82 159.04,-16.72 -108.27,-143.68 -74.88,185.35 217.18,-34.4 -154.19,-183.76 -84.61,245.71 273.75,-58.19 -204.5,-219.29 -88.16,307.45 328.25,-87.96 -258.83,-249.95 -85.44,370.08 380.23,-123.55 -316.82,-275.41 -76.36,433.1 429.23,-164.76 -378.06,-295.37 -60.9,496.02 474.81,-211.4 -442.13,-309.57 -39.04,558.36 516.52,-263.19 -508.57,-317.79 -10.82,619.6"
             style="fill:none;stroke:#add8e6;stroke-width:9.995;stroke-linecap:round;stroke-linejoin:round;stroke-miterlimit:10;stroke-dasharray:none;stroke-opacity:1"
             id="path24" /><path
             d="m 4652.57,4292.05 553.98,-319.85 -576.96,-319.81 23.72,679.25 586.78,-381.06 -646.81,-315.47 64.47,736.82 614.54,-446.5 -717.63,-304.61 111.28,791.81 636.94,-515.78 -788.95,-287.15 164.02,843.77 653.64,-588.54 -860.25,-263 222.46,892.23 664.35,-664.36 -931.02,-232.12 286.38,936.71 668.79,-742.78 -1000.75,-194.52 355.52,976.79 666.75,-823.36 -1068.96,-150.23 429.59,1012.04 657.99,-905.64 -1135.09,-99.31 508.25,1042.08 642.36,-989.14 -1198.67,-41.86 591.17,1066.5"
             style="fill:none;stroke:#0000ff;stroke-width:9.995;stroke-linecap:round;stroke-linejoin:round;stroke-miterlimit:10;stroke-dasharray:none;stroke-opacity:1"
             id="path26" /><path
             d="m 4830.46,4684.96 619.69,-1073.33 -1259.18,21.98 677.96,1084.96 589.89,-1157.73 -1316.12,92.03 768.2,1097.12 552.89,-1241.8 -1369.03,168.09 861.49,1102.67 508.63,-1325.02 -1417.41,249.92 957.37,1101.33 457.11,-1406.86 -1460.82,337.25 1055.35,1092.86 398.38,-1486.79 -1498.82,429.78 1154.96,1077.02 332.5,-1564.25 -1530.98,527.15 1255.69,1053.65 259.55,-1638.74 -1556.89,629.02 1357,1022.57 179.7,-1709.72 -1576.19,734.99 1458.38,983.69 93.11,-1776.67 -1588.51,844.62 1559.27,936.9"
             style="fill:none;stroke:#4b0082;stroke-width:9.995;stroke-linecap:round;stroke-linejoin:round;stroke-miterlimit:10;stroke-dasharray:none;stroke-opacity:1"
             id="path28" /><path
             d="M 5353.63,4891.65 V 3052.57 L 3760.09,4010.07 5419.2,4892.23 5319.81,2995.78 3728.86,4068.89 5486.21,4888.37 5281.44,2940.08 3700.93,4131.07 5554.38,4879.91 5238.54,2885.78 3676.59,4196.41 5623.38,4866.75 5191.14,2833.22 3656.06,4264.7 5692.92,4848.76 5139.32,2782.71 3639.61,4335.71 5762.68,4825.86 5083.18,2734.58 3627.46,4409.2 5832.32,4797.97 5022.82,2689.13 3619.81,4484.9 5901.52,4765.06 4958.37,2646.7 3616.87,4562.55 5969.95,4727.09 4889.99,2607.56 3618.82,4641.86 6037.24,4684.07 4817.85,2572.03 3625.81,4722.52 6103.06,4636.01 4742.14,2540.38 3638,4804.21 6167.07,4582.94 4663.09,2512.89 3655.51,4886.61 6228.92,4524.94 4580.93,2489.84 3678.45,4969.38 6288.27,4462.09"
             style="fill:none;stroke:#ee82ee;stroke-width:9.995;stroke-linecap:round;stroke-linejoin:round;stroke-miterlimit:10;stroke-dasharray:none;stroke-opacity:1"
             id="path30" /><path
             d="m 6288.27,4462.09 -1792.38,-1990.64 -789,2580.73 2637.88,-657.69"
             style="fill:none;stroke:#ee82ee;stroke-width:9.995;stroke-linecap:round;stroke-linejoin:round;stroke-miterlimit:10;stroke-dasharray:none;stroke-opacity:1"
             id="path32" /><path
             d="M 6344.77,4394.49 4408.27,2457.98 3740.89,5134.66 6398.09,4322.27 4318.33,2449.64 3780.52,5216.45 6447.91,4245.6 4226.38,2446.64 3825.77,5297.19 6493.89,4164.63 4132.75,2449.16 3876.64,5376.51 6535.74,4079.58 4037.75,2457.36 3933.1,5454.04 6573.13,3990.64 3941.73,2471.4 3995.11,5529.41 6605.79,3898.07 3845.05,2491.41 4062.58,5602.25 6633.43,3802.12 3748.07,2517.48 4135.43,5672.2 6655.8,3703.06 3651.17,2549.7 4213.51,5738.88 6672.64,3601.19 3554.73,2588.13 4296.7,5801.94 6683.71,3496.82 3459.13,2632.8 4384.81,5861.03 6688.81,3390.29 3364.77,2683.74 4477.66,5915.8 6687.74,3281.92 3272.05,2740.93 4575.03,5965.91 6680.33,3172.09 3181.36,2804.33 4676.68,6011.06 6666.41,3061.16"
             style="fill:none;stroke:#add8e6;stroke-width:9.995;stroke-linecap:round;stroke-linejoin:round;stroke-miterlimit:10;stroke-dasharray:none;stroke-opacity:1"
             id="path34" /><path
             d="M 6666.41,3061.16 3093.11,2873.89 4782.36,6050.91 6645.87,2949.52"
             style="fill:none;stroke:#add8e6;stroke-width:9.995;stroke-linecap:round;stroke-linejoin:round;stroke-miterlimit:10;stroke-dasharray:none;stroke-opacity:1"
             id="path36" /><path
             d="M 6645.87,2949.52 H 3007.69 L 4891.78,6085.18 6618.57,2837.56 2925.49,3031.11 5004.65,6113.58 6584.45,2725.69 2846.92,3118.52 5120.64,6135.85 6543.44,2614.31 2772.35,3211.59 5239.42,6151.73 6495.49,2503.86 2702.17,3310.15 5360.64,6161 6440.59,2394.74 2636.75,3413.98 5483.91,6163.45 6378.77,2287.4 2576.45,3522.85 5608.86,6158.89 6310.05,2182.25 2521.61,3636.5 5735.08,6147.14 6234.5,2079.74 2472.57,3754.66 5862.17,6128.07 6152.21,1980.28 2429.66,3877.02 5989.68,6101.56 6063.3,1884.31 2393.18,4003.25 6117.2,6067.51 5967.91,1792.26 2363.43,4133.04 6244.27,6025.85 5866.21,1704.53 2340.66,4265.99 6370.45,5976.54 5758.4,1621.54 2325.13,4401.74 6495.28,5919.55 5644.7,1543.68"
             style="fill:none;stroke:#0000ff;stroke-width:9.995;stroke-linecap:round;stroke-linejoin:round;stroke-miterlimit:10;stroke-dasharray:none;stroke-opacity:1"
             id="path38" /><path
             d="M 5644.7,1543.68 2317.07,4539.89 6618.29,5854.9 5525.35,1471.36"
             style="fill:none;stroke:#0000ff;stroke-width:9.995;stroke-linecap:round;stroke-linejoin:round;stroke-miterlimit:10;stroke-dasharray:none;stroke-opacity:1"
             id="path40" /><path
             d="M 5525.35,1471.36 2316.69,4680.02 6739.03,5782.63 5400.64,1404.95 2324.17,4821.7 6857.02,5702.8 5270.84,1344.8 2339.68,4964.5 6971.82,5615.5 5136.3,1291.29 2363.34,5107.94 7082.94,5520.85 4997.34,1244.73 2395.26,5251.57 7189.94,5419.01 4854.33,1205.45 2435.54,5394.91 7292.37,5310.14 4707.65,1173.73 2484.21,5537.48 7389.77,5194.45 4557.72,1149.86 2541.32,5678.79 7481.73,5072.18 4404.96,1134.09 2606.85,5818.32 7567.8,4943.57 4249.8,1126.65 2680.78,5955.61 7647.58,4808.93 4092.71,1127.75 2763.04,6090.13 7720.68,4668.55 3934.16,1137.56 2853.55,6221.39 7786.7,4522.77 3774.63,1156.25 2952.2,6348.89 7845.28,4371.96 3614.63,1183.93 3058.81,6472.14 7896.08,4216.49 3454.66,1220.71"
             style="fill:none;stroke:#4b0082;stroke-width:9.995;stroke-linecap:round;stroke-linejoin:round;stroke-miterlimit:10;stroke-dasharray:none;stroke-opacity:1"
             id="path42" /><path
             d="M 3454.66,1220.71 3173.23,6590.66 7938.77,4056.78 3295.24,1266.67"
             style="fill:none;stroke:#4b0082;stroke-width:9.995;stroke-linecap:round;stroke-linejoin:round;stroke-miterlimit:10;stroke-dasharray:none;stroke-opacity:1"
             id="path44" /><path
             d="M 3295.24,1266.67 V 6703.95 L 7973.04,3893.25 3136.9,1321.83 3424.61,6811.54 7998.61,3726.34 2980.17,1386.21 3561.05,6912.98 8015.21,3556.54 2825.58,1459.79 3704.3,7007.82 8022.63,3384.31 2673.68,1542.52 3854.02,7095.62 8020.65,3210.17 2524.98,1634.31 4009.86,7175.96 8009.1,3034.63 2380.05,1735.06 4171.46,7248.43 7987.81,2858.22 2239.41,1844.62 4338.39,7312.67 7956.68,2681.48 2103.58,1962.81 4510.26,7368.3 7915.6,2504.96 1973.09,2089.43 4686.59,7414.98 7864.52,2329.23 1848.45,2224.22 4866.94,7452.4 7803.41,2154.86 1730.16,2366.94 5050.79,7480.27 7732.28,1982.4 1618.71,2517.27 5237.65,7498.32 7651.16,1812.45 1514.57,2674.89 5426.99,7506.32 7560.13,1645.57 1418.21,2839.44"
             style="fill:none;stroke:#ee82ee;stroke-width:9.995;stroke-linecap:round;stroke-linejoin:round;stroke-miterlimit:10;stroke-dasharray:none;stroke-opacity:1"
             id="path46" /><path
             d="M 1418.21,2839.44 5618.25,7504.05 7459.27,1482.35 1330.07,3010.53"
             style="fill:none;stroke:#ee82ee;stroke-width:9.995;stroke-linecap:round;stroke-linejoin:round;stroke-miterlimit:10;stroke-dasharray:none;stroke-opacity:1"
             id="path48" /></g></g></g></g></svg>
