<?xml version="1.0" encoding="UTF-8" standalone="no"?>
<svg
   xmlns:dc="http://purl.org/dc/elements/1.1/"
   xmlns:cc="http://creativecommons.org/ns#"
   xmlns:rdf="http://www.w3.org/1999/02/22-rdf-syntax-ns#"
   xmlns:svg="http://www.w3.org/2000/svg"
   xmlns="http://www.w3.org/2000/svg"
   xmlns:sodipodi="http://sodipodi.sourceforge.net/DTD/sodipodi-0.dtd"
   xmlns:inkscape="http://www.inkscape.org/namespaces/inkscape"
   version="1.1"
   id="svg2"
   xml:space="preserve"
   width="1276"
   height="1076"
   viewBox="0 0 1276 1076"
   sodipodi:docname="FGTurtle.eps"><metadata
     id="metadata8"><rdf:RDF><cc:Work
         rdf:about=""><dc:format>image/svg+xml</dc:format><dc:type
           rdf:resource="http://purl.org/dc/dcmitype/StillImage" /></cc:Work></rdf:RDF></metadata><defs
     id="defs6"><clipPath
       clipPathUnits="userSpaceOnUse"
       id="clipPath20"><path
         d="M 0,8068 H 9568 V 0 H 0 Z"
         id="path18" /></clipPath></defs><sodipodi:namedview
     pagecolor="#ffffff"
     bordercolor="#666666"
     borderopacity="1"
     objecttolerance="10"
     gridtolerance="10"
     guidetolerance="10"
     inkscape:pageopacity="0"
     inkscape:pageshadow="2"
     inkscape:window-width="640"
     inkscape:window-height="480"
     id="namedview4" /><g
     id="g10"
     inkscape:groupmode="layer"
     inkscape:label="ink_ext_XXXXXX"
     transform="matrix(1.3333333,0,0,-1.3333333,0,1076)"><g
       id="g12"
       transform="scale(0.1)"><g
         id="g14"><g
           id="g16"
           clip-path="url(#clipPath20)"><path
             d="M 12.3867,-17.9766 H 9587.59 V 8057.98 H 12.3867 v -8075.9566 0"
             style="fill:#000000;fill-opacity:1;fill-rule:evenodd;stroke:none"
             id="path22" /><path
             d="M 4819.98,3990.02 H 7328.73 L 5600.26,2157.95 5453.23,4682.41 7398.01,3050.55 4866.52,2754.66 6394.48,4807.07 6840.53,2277.38 4686.05,3694.4 7204.98,4291.4 5905.63,2040.86 5157.45,4539.96 7497.59,3364.7 5027.43,2465.63 6072.56,4888.51 7121.65,2456.45 4623.32,3365.77 7008.13,4563.46 6239.88,1997.34 4895.55,4325.78 7521.45,3703.43 5258.41,2215 5730.5,4892.34 7359.93,2703.64 4639.82,3021.58 6745.39,4788.36 6584.99,2034.41 4685.05,4048.22 H 7463.66 L 5550,2019.87 5387.28,4813.73 7538.79,3008.4 4739.25,2681.18 6428.37,4950.06 6921.28,2154.6 4541.33,3719.92 7322.85,4379.15 5888.57,1894.9 5062.98,4652.53 7644.29,3356.15 4920.55,2364.79 6072.56,5035.46 7228.54,2355.61"
             style="fill:none;stroke:#b10080;stroke-width:9.995;stroke-linecap:round;stroke-linejoin:round;stroke-miterlimit:10;stroke-dasharray:none;stroke-opacity:1"
             id="path24" /><path
             d="M 7228.54,2355.61 4476.61,3357.23 7102.58,4676.04 6256.93,1851.38 4777.68,4413.54 7666.17,3728.95 5177.66,2092.23 5696.61,5035.33 7487.19,2630.17 4499.04,2979.43 6811.34,4919.68 6635.25,1896.32 4550.12,4106.43 H 7598.59 L 5499.74,1881.78 5321.32,4945.05 7679.56,2966.25 4611.99,2607.71 6462.26,5093.05 7002.03,2031.82 4396.61,3745.44 7440.72,4466.9 5871.51,1748.94 4968.53,4765.1 7791,3347.61 4813.66,2263.95 6072.56,5182.41 7335.43,2254.77 4329.91,3348.68 7197.04,4788.61 6274,1705.43 4659.8,4501.29 7810.89,3754.46 5096.91,1969.45"
             style="fill:none;stroke:#b10080;stroke-width:9.995;stroke-linecap:round;stroke-linejoin:round;stroke-miterlimit:10;stroke-dasharray:none;stroke-opacity:1"
             id="path26" /><path
             d="M 5096.91,1969.45 5662.72,5178.32 7614.46,2556.69 4358.26,2937.29 6877.29,5051 6685.51,1758.23 4415.18,4164.63 H 7733.52 L 5449.48,1743.69 5255.38,5076.37 7820.34,2924.11 4484.73,2534.23 6496.14,5236.04 7082.79,1909.05 4251.89,3770.95 7558.59,4554.66 5854.45,1602.98 4874.07,4877.67 7937.7,3339.06 4706.77,2163.1 6072.56,5329.36 7442.31,2153.92 4183.21,3340.14 7291.5,4901.18 6291.05,1559.47 4541.93,4589.04 7955.61,3779.98 5016.16,1846.68 5628.84,5321.31 7741.72,2483.21 4217.48,2895.14 6943.24,5182.32 6735.77,1620.14 4280.25,4222.84 H 7868.46 L 5399.22,1605.6 l -209.8,3602.09 2771.7,-2325.73 -3603.66,-421.2 2172.58,2918.27 633.5,-3592.76 -3056.36,2010.2 3569.28,845.94"
             style="fill:none;stroke:#7700ab;stroke-width:9.995;stroke-linecap:round;stroke-linejoin:round;stroke-miterlimit:10;stroke-dasharray:none;stroke-opacity:1"
             id="path28" /><path
             d="M 7676.46,4642.41 5837.39,1457.03 4779.61,4990.24 8084.4,3330.52 4599.88,2062.26 6072.56,5476.31 7549.2,2053.08 4036.51,3331.59 7385.96,5013.75 6308.11,1413.51 4424.06,4676.79 8100.33,3805.5 4935.41,1723.9 5594.95,5464.3 7868.98,2409.74 4076.71,2852.99 7009.19,5313.64 6786.03,1482.05 4145.32,4281.04 H 8003.39 L 5348.96,1467.51 5123.47,5339.01 8101.89,2839.82 4230.2,2387.28 6563.93,5522.02 7244.29,1663.5 3962.46,3821.99 7794.34,4730.16 5820.33,1311.07 4685.15,5102.81 8231.1,3321.97 4493,1961.41 6072.56,5623.26 7656.09,1952.23"
             style="fill:none;stroke:#7700ab;stroke-width:9.995;stroke-linecap:round;stroke-linejoin:round;stroke-miterlimit:10;stroke-dasharray:none;stroke-opacity:1"
             id="path30" /><path
             d="M 7656.09,1952.23 3899.2,3319.63 7471.94,5113.93 6325.3,1283.89 4326.3,4746.26 8216.54,3824.25 4876.25,1627.32 5570.5,5564.58 7957.94,2357.69 3986.97,2821.83 7049.62,5391.7 6817.16,1400.46 4073.56,4308.5 h 3998 L 5327.97,1400.46 5095.5,5391.7 8158.15,2821.83 4187.18,2357.69 6574.63,5564.58 7268.87,1627.32 3928.59,3824.25 7818.82,4746.26 5819.82,1283.89 4673.18,5113.93 8245.93,3319.63 4489.04,1952.23 6072.56,5623.26 7656.09,1952.23 3899.2,3319.63 7471.94,5113.93 6325.3,1283.89 4326.3,4746.26 8216.54,3824.25 4876.25,1627.32 5570.5,5564.58 7957.94,2357.69 3986.97,2821.83 7049.62,5391.7 6817.16,1400.46 4073.56,4308.5 h 3998 L 5327.97,1400.46 5095.5,5391.7"
             style="fill:none;stroke:#077fff;stroke-width:9.995;stroke-linecap:round;stroke-linejoin:round;stroke-miterlimit:10;stroke-dasharray:none;stroke-opacity:1"
             id="path32" /><path
             d="M 5095.5,5391.7 8158.15,2821.83 4187.18,2357.69 6574.63,5564.58 7268.87,1627.32 3928.59,3824.25 7818.82,4746.26 5819.82,1283.89 4673.18,5113.93 8245.93,3319.63 4489.04,1952.23 6072.56,5623.26 7656.09,1952.23 3899.2,3319.63 7471.94,5113.93 6325.3,1283.89 4326.3,4746.26 8216.54,3824.25 4876.25,1627.32 5570.5,5564.58 7957.94,2357.69 3986.97,2821.83 7049.62,5391.7 6817.16,1400.46 4073.56,4308.5 h 3998 L 5327.97,1400.46 5095.5,5391.7 8158.15,2821.83 4187.18,2357.69 6574.63,5564.58 7268.87,1627.32 3928.59,3824.25 7818.82,4746.26"
             style="fill:none;stroke:#077fff;stroke-width:9.995;stroke-linecap:round;stroke-linejoin:round;stroke-miterlimit:10;stroke-dasharray:none;stroke-opacity:1"
             id="path34" /><path
             d="M 7818.82,4746.26 5814.82,1275.23 4662.45,5124.43 8261.99,3316.67 4467.53,1935.6 6070.85,5652.52 7678.13,1926.42 3855.5,3317.75 7499.7,5147.93 6327.25,1231.71 4278.28,4780.64 8275.5,3833.29 4835.01,1570.44 5551.82,5635.66 8022.82,2316.53 3902.94,2798.08 7088.09,5470.74 6845.75,1309.88 3978.69,4348.77 h 4187.9 L 5285.82,1295.33 5041.15,5496.11 8272.25,2784.9 4072.95,2294.07 6603.63,5693.38 7341.27,1510.04 3783.87,3849.77 7936.7,4834.01 5797.77,1129.27 4568,5237 8408.7,3308.13 4360.64,1834.75 6070.85,5799.46 7785.02,1825.58 3708.79,3309.2 7594.15,5260.5 6344.32,1085.76 4160.41,4868.39 8420.21,3858.8 4754.26,1447.66 5517.93,5778.65 8150.08,2243.06 3762.16,2755.93"
             style="fill:none;stroke:#00a067;stroke-width:9.995;stroke-linecap:round;stroke-linejoin:round;stroke-miterlimit:10;stroke-dasharray:none;stroke-opacity:1"
             id="path36" /><path
             d="M 3762.16,2755.93 7154.04,5602.06 6896.01,1171.79 3843.76,4406.98 H 8301.53 L 5235.56,1157.25 4975.2,5627.43 8413.02,2742.75 3945.68,2220.6 6637.52,5836.37 7422.02,1387.26 3639.15,3875.29 8054.57,4921.77 5780.71,983.316 4473.54,5349.57 8555.39,3299.58 4253.76,1733.91 6070.85,5946.41 7891.91,1724.73 3562.09,3300.66 7688.61,5373.07 6361.38,939.801 4042.54,4956.15 8564.93,3884.32 4673.5,1324.89 5484.04,5921.64 8277.34,2169.58 3621.38,2713.79 7219.99,5733.38 6946.27,1033.7 3708.82,4465.18 H 8436.46 L 5185.3,1019.16 4909.25,5758.75"
             style="fill:none;stroke:#00a067;stroke-width:9.995;stroke-linecap:round;stroke-linejoin:round;stroke-miterlimit:10;stroke-dasharray:none;stroke-opacity:1"
             id="path38" /></g></g></g></g></svg>
