<?xml version="1.0" encoding="UTF-8" standalone="no"?>
<svg
   xmlns:dc="http://purl.org/dc/elements/1.1/"
   xmlns:cc="http://creativecommons.org/ns#"
   xmlns:rdf="http://www.w3.org/1999/02/22-rdf-syntax-ns#"
   xmlns:svg="http://www.w3.org/2000/svg"
   xmlns="http://www.w3.org/2000/svg"
   xmlns:sodipodi="http://sodipodi.sourceforge.net/DTD/sodipodi-0.dtd"
   xmlns:inkscape="http://www.inkscape.org/namespaces/inkscape"
   version="1.1"
   id="svg2"
   xml:space="preserve"
   width="1276"
   height="1076"
   viewBox="0 0 1276 1076"
   sodipodi:docname="rainbowTurtle.eps"><metadata
     id="metadata8"><rdf:RDF><cc:Work
         rdf:about=""><dc:format>image/svg+xml</dc:format><dc:type
           rdf:resource="http://purl.org/dc/dcmitype/StillImage" /></cc:Work></rdf:RDF></metadata><defs
     id="defs6"><clipPath
       clipPathUnits="userSpaceOnUse"
       id="clipPath20"><path
         d="M 0,8068 H 9568 V 0 H 0 Z"
         id="path18" /></clipPath></defs><sodipodi:namedview
     pagecolor="#ffffff"
     bordercolor="#666666"
     borderopacity="1"
     objecttolerance="10"
     gridtolerance="10"
     guidetolerance="10"
     inkscape:pageopacity="0"
     inkscape:pageshadow="2"
     inkscape:window-width="640"
     inkscape:window-height="480"
     id="namedview4" /><g
     id="g10"
     inkscape:groupmode="layer"
     inkscape:label="ink_ext_XXXXXX"
     transform="matrix(1.3333333,0,0,-1.3333333,0,1076)"><g
       id="g12"
       transform="scale(0.1)"><g
         id="g14"><g
           id="g16"
           clip-path="url(#clipPath20)"><path
             d="M 12.3867,-17.9766 H 9587.59 V 8057.98 H 12.3867 v -8075.9566 0"
             style="fill:#0e635e;fill-opacity:1;fill-rule:evenodd;stroke:none"
             id="path22" /><path
             d="m 4819.98,3990.02 h 1029.48 l -1059.3,18.49 1088.79,-38.02 -1117.91,58.58 1146.63,-80.18 -1174.92,102.8 L 5935.52,3925.27 4705.38,4076.32 5962.39,3899.65 4679.03,4102.92 5988.17,3872.08 4653.82,4131.45 6012.77,3842.6 4629.86,4161.87 6036.08,3811.26 4607.23,4194.12 6058.01,3778.11 4586.04,4228.14 6078.45,3743.23 4566.37,4263.88 6097.3,3706.66 4548.34,4301.25 6114.5,3668.48 4532.02,4340.21 6129.92,3628.77 4517.5,4380.66 6143.5,3587.6 4504.88,4422.53 6155.16,3545.05 4494.21,4465.73 6164.8,3501.21 4485.6,4510.18 6172.37,3456.17 4479.1,4555.79 6177.78,3410.02 4474.8,4602.46 6180.97,3362.86 4472.74,4650.1 6181.87,3314.78 4473,4698.59 6180.43,3265.89 4475.64,4747.84"
             style="fill:none;stroke:#ffffff;stroke-width:9.995;stroke-linecap:round;stroke-linejoin:round;stroke-miterlimit:10;stroke-dasharray:none;stroke-opacity:1"
             id="path24" /><path
             d="M 4475.64,4747.84 6176.59,3216.3 4480.7,4797.75 6170.3,3166.12 4488.23,4848.19 6161.52,3115.45 4498.27,4899.06 6150.2,3064.41 4510.87,4950.24 6136.31,3013.11 4526.06,5001.61 6119.82,2961.69 4543.86,5053.07 6100.71,2910.24 4564.29,5104.47 6078.95,2858.9 4587.38,5155.71 6054.52,2807.79 4613.14,5206.66 6027.43,2757.04 4641.57,5257.2 5997.66,2706.75 4672.68,5307.19 5965.22,2657.07 4706.45,5356.52 5930.12,2608.13 4742.89,5405.06 5892.36,2560.03 4781.97,5452.68 5851.96,2512.91 4823.68,5499.26 l 985.27,-3032.35 -940.97,3077.76 895.38,-3122.54 -848.51,3166.65 800.36,-3210.07 -750.96,3252.77 700.31,-3294.71 -648.42,3335.86 595.31,-3376.2 -540.99,3415.7 485.47,-3454.31 -428.76,3492.01"
             style="fill:none;stroke:#ffffff;stroke-width:9.995;stroke-linecap:round;stroke-linejoin:round;stroke-miterlimit:10;stroke-dasharray:none;stroke-opacity:1"
             id="path26" /><path
             d="M 5127.17,5749.83 5498.06,2221.04 5186.2,5785.64 5437.89,2186.23 5247.48,5819.43 5375.5,2153.5 5310.96,5851.08 V 2122.95 l 65.59,3757.55 -132.21,-3785.8 199.83,3812.85 -268.43,-3838.69 337.99,3863.3 -408.5,-3886.64 479.93,3908.68 -552.24,-3929.4 625.42,3948.78 -699.45,-3966.79 774.3,3983.41 -849.94,-3998.63 926.34,4012.4 L 4806.11,1979.26 5887.44,6014.81 4727.58,1969.92 5966.62,6022.63 4647.78,1963.65 6047.02,6027.34 4566.81,1960.51 6128.52,6028.88 4484.82,1960.58 6210.98,6027.18 4401.91,1963.93 6294.29,6022.16 4318.23,1970.63 6378.32,6013.78 4233.9,1980.72 6462.91,6001.96 4149.07,1994.27 6547.95,5986.67 4063.87,2011.32 6633.28,5967.86 3978.44,2031.9 6718.77,5945.49"
             style="fill:none;stroke:#ffffff;stroke-width:9.995;stroke-linecap:round;stroke-linejoin:round;stroke-miterlimit:10;stroke-dasharray:none;stroke-opacity:1"
             id="path28" /><path
             d="M 6718.77,5945.49 3892.93,2056.07 6804.26,5919.53 3807.49,2083.84 6889.62,5889.95 3722.26,2115.23 6974.68,5856.72 3637.39,2150.29 7059.31,5819.84 3553.04,2188.99 7143.35,5779.3 3469.36,2231.37 7226.64,5735.09 3386.5,2277.41 7309.03,5687.21 3304.62,2327.12 7390.36,5635.69 3223.87,2380.46 7470.48,5580.52 3144.41,2437.44 7549.24,5521.74 3066.39,2498.02 7626.48,5459.38 2989.98,2562.16 7702.04,5393.46 2915.31,2629.84 7775.77,5324.04 2842.55,2701 7847.51,5251.15 2771.86,2775.59 7917.12,5174.86 2703.38,2853.56 7984.44,5095.23 2637.26,2934.84 8049.32,5012.33 2573.65,3019.35 8111.62,4926.23 2512.7,3107.03 8171.19,4837 2454.54,3197.78 8227.89,4744.74 2399.33,3291.52 8281.58,4649.54"
             style="fill:none;stroke:#ffffff;stroke-width:9.995;stroke-linecap:round;stroke-linejoin:round;stroke-miterlimit:10;stroke-dasharray:none;stroke-opacity:1"
             id="path30" /><path
             d="M 8281.58,4649.54 2347.2,3388.15 8332.13,4551.5 2298.27,3487.57 8379.39,4450.73 2252.7,3589.68 8423.25,4347.32 2210.59,3694.35 8463.57,4241.41 2172.09,3801.47 8500.23,4133.11 2137.3,3910.91 8533.12,4022.55 H 2106.34 L 8562.13,3909.87 2079.32,4136.25 8587.13,3795.2 2056.35,4251.87 8608.04,3678.67 2037.53,4369.26 8624.74,3560.45 2022.96,4488.27 8637.16,3440.68 2012.72,4608.75 8645.2,3319.53 2006.9,4730.54 8648.78,3197.14 2005.58,4853.48 8647.82,3073.7 2008.83,4977.4 8642.27,2949.35 2016.71,5102.13 8632.04,2824.29"
             style="fill:none;stroke:#ffffff;stroke-width:9.995;stroke-linecap:round;stroke-linejoin:round;stroke-miterlimit:10;stroke-dasharray:none;stroke-opacity:1"
             id="path32" /><path
             d="M 8632.04,2824.29 2029.3,5227.49 8617.08,2698.68 2046.64,5353.31 8597.35,2572.69 2068.77,5479.41 8572.8,2446.52 2095.74,5605.6 8543.4,2320.35 2127.58,5731.7 8509.11,2194.36 2164.32,5857.53 8469.92,2068.75 2205.98,5982.89 8425.8,1943.69 2252.56,6107.59 8376.75,1819.39 2304.07,6231.45 8322.77,1696.03 2360.52,6354.26 8263.87,1573.81 2421.88,6475.83 8200.06,1452.93 2488.13,6595.97 8131.36,1333.58 2559.27,6714.49 8057.8,1215.95 2635.23,6831.18 7979.43,1100.24 2716,6945.86 7896.28,986.637 2801.52,7058.33 7808.41,875.344 2891.73,7168.4 7715.88,766.547 2986.57,7275.88 7618.75,660.438 3085.96,7380.57 7517.11,557.207 3189.83,7482.3 7411.03,457.039 3298.09,7580.86 7300.62,360.117"
             style="fill:none;stroke:#000000;stroke-width:9.995;stroke-linecap:round;stroke-linejoin:round;stroke-miterlimit:10;stroke-dasharray:none;stroke-opacity:1"
             id="path34" /><path
             d="M 7300.62,360.117 3410.64,7676.09 7185.95,266.625 3527.39,7767.8 7067.16,176.742 3648.21,7855.82 6944.33,90.6406 3773,7939.96 6817.61,8.49609 3901.63,8020.07 6687.1,-69.5273 4033.97,8095.96 6552.96,-143.262 4169.89,8167.5 6415.31,-212.551 4309.23,8234.5 6274.32,-277.234 4451.84,8296.83 6130.12,-337.172 4597.57,8354.34 5982.89,-392.207 4746.26,8406.88 5832.79,-442.211 4897.73,8454.31 5680,-487.047 5051.8,8496.51 5524.69,-526.586 5208.31,8533.36 5367.04,-560.707 V 8564.73 L 5207.26,-589.301 5527.82,8590.51 5045.53,-612.25 5690.45,8610.61 4882.05,-629.461 5854.73,8624.91 4717.04,-640.836 6020.44,8633.34 4550.69,-646.293 6187.37,8635.8 4383.22,-645.75 6355.32,8632.23 4214.85,-639.137"
             style="fill:none;stroke:#000000;stroke-width:9.995;stroke-linecap:round;stroke-linejoin:round;stroke-miterlimit:10;stroke-dasharray:none;stroke-opacity:1"
             id="path36" /><path
             d="M 4214.85,-639.137 6524.05,8622.55 4045.8,-626.387 6693.36,8606.72 3876.3,-607.449 6863,8584.67 3706.57,-582.277 7032.76,8556.36 3536.84,-550.828 7202.41,8521.77 3367.34,-513.074 7371.7,8480.85 3198.32,-468.992 7540.4,8433.6 3029.99,-418.574 7708.28,8380.01 2862.61,-361.813 7875.11,8320.08 2696.41,-298.711 8040.62,8253.82 2531.63,-229.289 8204.6,8181.23 2368.51,-153.563 8366.8,8102.37 2207.3,-71.5664 8526.98,8017.26 2048.22,16.6563 8684.89,7925.94 1891.52,111.055 8840.31,7828.47 1737.44,211.574 8992.99,7724.92 1586.22,318.145 9142.7,7615.35 1438.09,430.684 9289.2,7499.86 1293.28,549.109 9432.26,7378.52 1152.02,673.324 9571.65,7251.45 1014.55,803.223 9707.14,7118.75 881.098,938.691"
             style="fill:none;stroke:#000000;stroke-width:9.995;stroke-linecap:round;stroke-linejoin:round;stroke-miterlimit:10;stroke-dasharray:none;stroke-opacity:1"
             id="path38" /><path
             d="M 881.098,938.691 9838.51,6980.55 751.867,1079.61 9965.54,6836.95 627.09,1225.84 10088,6688.11 506.977,1377.25 10205.7,6534.17 391.734,1533.7 10318.4,6375.27 281.574,1695 10426,6211.59 176.691,1861.02 10528.2,6043.29 77.2852,2031.57 10624.8,5870.54 -16.457,2206.47 10715.6,5693.53 -104.355,2385.54 10800.5,5512.46 -186.23,2568.57 10879.3,5327.52 -261.914,2755.36 10951.8,5138.92 -331.238,2945.71 11017.9,4946.88 -394.051,3139.39 11077.4,4751.61 -450.199,3336.19 11130.2,4553.34 -499.551,3535.87 11176.1,4352.31 -541.965,3738.19 11215,4148.75 -577.32,3942.92 H 11246.8 L -605.5,4149.8 11271.3,3735.05 -626.395,4358.59 11288.5,3525.41 -639.91,4569.02 11298.3,3314.26 -645.957,4780.83"
             style="fill:none;stroke:#000000;stroke-width:9.995;stroke-linecap:round;stroke-linejoin:round;stroke-miterlimit:10;stroke-dasharray:none;stroke-opacity:1"
             id="path40" /><path
             d="M -645.957,4780.83 11300.6,3101.85 -644.449,4993.76 11295.3,2888.46 -635.324,5207.54 11282.3,2674.36 -618.516,5421.89 11261.7,2459.83 -593.973,5636.54 11233.2,2245.14 -561.66,5851.2 11197,2030.57 -521.539,6065.6 11153,1816.41 -473.598,6279.45 11101.1,1602.95 -417.82,6492.46 11041.4,1390.46 -354.207,6704.34 10973.9,1179.25 -282.773,6914.82 10898.6,969.59 -203.535,7123.59 10815.5,761.773 -116.531,7330.38 10724.6,556.094 -21.8008,7534.88 10626,352.84 80.6016,7736.81 10519.8,152.297 190.613,7935.89 10406,-45.2461 308.156,8131.83"
             style="fill:none;stroke:#000000;stroke-width:9.995;stroke-linecap:round;stroke-linejoin:round;stroke-miterlimit:10;stroke-dasharray:none;stroke-opacity:1"
             id="path42" /><path
             d="M 308.156,8131.83 10284.7,-239.508 433.145,8324.34 10156,-430.199 565.484,8513.14 10020.1,-617.047 705.066,8697.96 9876.91,-799.766 851.773,8878.52 9726.7,-978.086 1005.47,9054.54 9569.55,-1151.73 1166.03,9225.75 9405.62,-1320.44 1333.3,9391.89 9235.05,-1483.95 1507.11,9552.7 9058.03,-1642 1687.3,9707.92 8874.71,-1794.34 1873.7,9857.31 8685.29,-1940.71 2066.1,10000.6 8489.95,-2080.89 2264.32,10137.6 8288.91,-2214.63 2468.14,10268 8082.37,-2341.71 2677.35,10391.7 7870.55,-2461.9 2891.72,10508.4 7653.68,-2575 3111.02,10617.8 7432.01,-2680.79 3335.01,10719.9 7205.77,-2779.07 3563.43,10814.4 6975.23,-2869.66 3796.02,10901 6740.65,-2952.38 4032.52,10979.8 6502.3,-3027.05 4272.66,11050.3"
             style="fill:none;stroke:#ffffff;stroke-width:9.995;stroke-linecap:round;stroke-linejoin:round;stroke-miterlimit:10;stroke-dasharray:none;stroke-opacity:1"
             id="path44" /><path
             d="M 4272.66,11050.3 6260.45,-3093.51 4516.15,11112.6 6015.39,-3151.61 4762.71,11166.5 5767.4,-3201.21 5012.05,11211.8 5516.79,-3242.16 5263.86,11248.4 V -3274.35 L 5517.84,11276.2 5008.91,-3297.67 5773.68,11295 4752.25,-3312.01 6031.06,11304.8 4494.22,-3317.29 6289.67,11305.5 4235.11,-3313.42 6549.19,11297.1 3975.27,-3300.34 6809.28,11279.3 3715.02,-3277.99 7069.61,11252.3 3454.69,-3246.32 7329.86,11216 3194.61,-3205.31 7589.68,11170.3 2935.13,-3154.93 7848.75,11115.3 2676.57,-3095.18 8106.71,11050.8 2419.28,-3026.06 8363.23,10977 2163.6,-2947.59 8617.98,10893.9 1909.88,-2859.79 8870.61,10801.4 1658.43,-2762.7 9120.77,10699.7 1409.63,-2656.38 9368.14,10588.8 1163.79,-2540.89 9612.36,10468.8"
             style="fill:none;stroke:#ffffff;stroke-width:9.995;stroke-linecap:round;stroke-linejoin:round;stroke-miterlimit:10;stroke-dasharray:none;stroke-opacity:1"
             id="path46" /><path
             d="M 9612.36,10468.8 921.258,-2416.32 9853.11,10339.7 682.371,-2282.76 10090.1,10201.7 447.461,-2140.3 10322.9,10054.8 216.859,-1989.06 10551.2,9899.21 -9.10938,-1829.18 10774.7,9735.05 -230.121,-1660.78 10993.1,9562.46 -445.855,-1484.03 11206.1,9381.59 -655.996,-1299.08 11413.3,9192.62"
             style="fill:none;stroke:#ffffff;stroke-width:9.995;stroke-linecap:round;stroke-linejoin:round;stroke-miterlimit:10;stroke-dasharray:none;stroke-opacity:1"
             id="path48" /><path
             d="M 11413.3,9192.62 -860.23,-1106.12 11614.5,8995.71 -1058.26,-905.328 11809.3,8791.08 -1249.79,-696.906 11997.5,8578.92 -1434.51,-481.063 12178.7,8359.45 -1612.16,-258.023 12352.7,8132.9 -1782.44,-28.0156 12519.2,7899.5 -1945.09,208.711 12677.9,7659.51 -2099.85,451.906 12828.6,7413.18 -2246.46,701.309 12971.1,7160.77 -2384.67,956.645 13105,6902.58 -2514.26,1217.63 13230.2,6638.88 -2635,1483.96 13346.4,6369.98 -2746.66,1755.36 13453.5,6096.17 -2849.04,2031.5 13551.1,5817.78 -2941.95,2312.06 13639.3,5535.12 -3025.21,2596.73 13717.6,5248.53 -3098.63,2885.16 13786.1,4958.34 -3162.06,3177.02 13844.4,4664.9 -3215.35,3471.96 13892.6,4368.55 -3258.36,3769.63 13930.4,4069.66 H -3290.96 L 13957.8,3768.58"
             style="fill:none;stroke:#000000;stroke-width:9.995;stroke-linecap:round;stroke-linejoin:round;stroke-miterlimit:10;stroke-dasharray:none;stroke-opacity:1"
             id="path50" /><path
             d="M 13957.8,3768.58 -3313.05,4371.69 13974.6,3465.68 -3324.52,4675.36 13980.7,3161.34 -3325.28,4980.27 13976.1,2855.94 -3315.26,5286.07 13960.6,2549.84"
             style="fill:none;stroke:#000000;stroke-width:9.995;stroke-linecap:round;stroke-linejoin:round;stroke-miterlimit:10;stroke-dasharray:none;stroke-opacity:1"
             id="path52" /></g></g></g></g></svg>
