<?xml version="1.0" encoding="UTF-8" standalone="no"?>
<svg
   xmlns:dc="http://purl.org/dc/elements/1.1/"
   xmlns:cc="http://creativecommons.org/ns#"
   xmlns:rdf="http://www.w3.org/1999/02/22-rdf-syntax-ns#"
   xmlns:svg="http://www.w3.org/2000/svg"
   xmlns="http://www.w3.org/2000/svg"
   xmlns:sodipodi="http://sodipodi.sourceforge.net/DTD/sodipodi-0.dtd"
   xmlns:inkscape="http://www.inkscape.org/namespaces/inkscape"
   version="1.1"
   id="svg2"
   xml:space="preserve"
   width="1276"
   height="1076"
   viewBox="0 0 1276 1076"
   sodipodi:docname="MLTurtle.eps"><metadata
     id="metadata8"><rdf:RDF><cc:Work
         rdf:about=""><dc:format>image/svg+xml</dc:format><dc:type
           rdf:resource="http://purl.org/dc/dcmitype/StillImage" /></cc:Work></rdf:RDF></metadata><defs
     id="defs6"><clipPath
       clipPathUnits="userSpaceOnUse"
       id="clipPath20"><path
         d="M 0,8068 H 9568 V 0 H 0 Z"
         id="path18" /></clipPath></defs><sodipodi:namedview
     pagecolor="#ffffff"
     bordercolor="#666666"
     borderopacity="1"
     objecttolerance="10"
     gridtolerance="10"
     guidetolerance="10"
     inkscape:pageopacity="0"
     inkscape:pageshadow="2"
     inkscape:window-width="640"
     inkscape:window-height="480"
     id="namedview4" /><g
     id="g10"
     inkscape:groupmode="layer"
     inkscape:label="ink_ext_XXXXXX"
     transform="matrix(1.3333333,0,0,-1.3333333,0,1076)"><g
       id="g12"
       transform="scale(0.1)"><g
         id="g14"><g
           id="g16"
           clip-path="url(#clipPath20)"><path
             d="M 12.3867,-17.9766 H 9587.59 V 8057.98 H 12.3867 v -8075.9566 0"
             style="fill:#646464;fill-opacity:1;fill-rule:evenodd;stroke:none"
             id="path22" /><path
             d="m 4819.98,3990.02 h 39.98 l -49.97,0.87 59.94,-2.09 -69.87,3.66 79.76,-5.58 -89.61,7.84 99.4,-10.44 -109.12,13.4 118.77,-16.7 -128.33,20.33 137.8,-24.3 -147.17,28.61 156.42,-33.25 -165.56,38.22 174.57,-43.52 -183.44,49.15 192.16,-55.1 -200.72,61.36 209.13,-67.94 -217.37,74.84 225.42,-82.04 -233.28,89.54 240.95,-97.35 -248.41,105.45 255.66,-113.83 -262.7,122.49 269.5,-131.44 -276.07,140.67 282.4,-150.16 -288.48,159.91 294.3,-169.92 -299.85,180.18 305.14,-190.68 -310.15,201.42 314.87,-212.39 -319.3,223.58 323.44,-234.99 -327.28,246.62 330.8,-258.45 -334,270.47 336.89,-282.68 -339.45,295.08"
             style="fill:none;stroke:#000000;stroke-width:9.995;stroke-linecap:round;stroke-linejoin:round;stroke-miterlimit:10;stroke-dasharray:none;stroke-opacity:1"
             id="path24" /><path
             d="m 4667.15,4140.86 341.67,-307.65 -343.56,320.38 345.11,-333.27 -346.31,346.31 347.15,-359.49 -347.64,372.8 347.77,-386.24 -347.53,399.8 346.93,-413.46 -345.95,427.21 344.59,-441.06 -342.86,454.99 340.75,-468.99 -338.25,483.06 335.36,-497.18 -332.07,511.34 328.39,-525.53 -324.32,539.75"
             style="fill:none;stroke:#000000;stroke-width:9.995;stroke-linecap:round;stroke-linejoin:round;stroke-miterlimit:10;stroke-dasharray:none;stroke-opacity:1"
             id="path26" /><path
             d="m 4676.38,4263.63 324.84,-562.64 -324.66,585.7 323.78,-608.93 -322.18,632.3 319.85,-655.79 -316.8,679.39 313.03,-703.08 -308.53,726.84 303.29,-750.65 -297.3,774.49 290.57,-798.34 -283.1,822.19 274.88,-846.02 -265.92,869.8 256.21,-893.52 -245.75,917.17 234.55,-940.72 -222.59,964.14 209.88,-987.43 L 4744,4499.1 4926.23,3465.57 4758.93,4521.87 4910.56,3443.02 4775.35,4544.19 4893.41,3420.94 4793.23,4566 l 81.57,-1166.57 -62.25,1187.77 42.21,-1208.66 -21.45,1229.2 V 3358.37 l 22.15,1269.17 -45,-1288.57 68.53,1307.55 -92.73,-1326.1 117.6,1344.19 L 4760.73,3302.8 4930.04,4681.75 4733.91,3286.17 4957.5,4697.86 4705.83,3270.6 4986.18,4712.87"
             style="fill:none;stroke:#800000;stroke-width:9.995;stroke-linecap:round;stroke-linejoin:round;stroke-miterlimit:10;stroke-dasharray:none;stroke-opacity:1"
             id="path28" /><path
             d="M 4986.18,4712.87 4676.55,3256.16 5016.05,4726.72 4646.1,3242.91 5047.07,4739.35 4614.53,3230.92 5079.17,4750.69 4581.9,3220.25 5112.31,4760.68 4548.26,3210.96 5146.44,4769.26 4513.67,3203.1 5181.48,4776.38 4478.18,3196.73 5217.39,4781.98 4441.86,3191.91 5254.1,4786.01 4404.78,3188.68 5291.54,4788.43"
             style="fill:none;stroke:#800000;stroke-width:9.995;stroke-linecap:round;stroke-linejoin:round;stroke-miterlimit:10;stroke-dasharray:none;stroke-opacity:1"
             id="path30" /><path
             d="M 5291.54,4788.43 4362,3178.43 5334.94,4797.66 4318,3170.23 5379.52,4804.82 4272.87,3164.14 5425.18,4809.82 4226.7,3160.25 5471.84,4812.6 4179.59,3158.6 5519.38,4813.09 4131.65,3159.27 5567.7,4811.25 4082.97,3162.3 5616.7,4807.02 4033.67,3167.75 5666.27,4800.34 3983.86,3175.66 5716.3,4791.18 3933.64,3186.07 5766.67,4779.5 3883.14,3199.04 5817.27,4765.26 3832.48,3214.57 5867.98,4748.43 3781.76,3232.7 5918.68,4728.98 3731.11,3253.45 5969.24,4706.91 3680.66,3276.85 6019.55,4682.2 3630.52,3302.89 6069.49,4654.83 3580.82,3331.58 6118.92,4624.81 3531.69,3362.93 6167.72,4592.14 3483.24,3396.93 6215.77,4556.82 3435.61,3433.56 6262.95,4518.87 3388.93,3472.81 6309.12,4478.32"
             style="fill:none;stroke:#8b0000;stroke-width:9.995;stroke-linecap:round;stroke-linejoin:round;stroke-miterlimit:10;stroke-dasharray:none;stroke-opacity:1"
             id="path32" /><path
             d="M 6309.12,4478.32 3343.3,3514.66 6354.16,4435.18 3298.88,3559.09 6397.95,4389.48 3255.76,3606.05 6440.36,4341.27 3214.09,3655.5 6481.27,4290.58 3173.97,3707.41 6520.56,4237.46 3135.54,3761.73 6558.11,4181.96 3098.9,3818.39 6593.8,4124.15 3064.19,3877.34 6627.51,4064.09 3031.5,3938.51 6659.14,4001.83 H 3000.96 l 3687.6,-64.37 -3715.88,129.76 3742.99,-196.16 -3768.9,263.55 3793.6,-331.9 L 2923.31,4203.9 6762.55,3732.5 2902.43,4275 6782.11,3660.53 2884.22,4347.83 6798.95,3586.88 2868.77,4422.27 6812.99,3511.67 2856.16,4498.22 6824.13,3435 2846.5,4575.57 6832.3,3356.99 2839.86,4654.21 6837.4,3277.75"
             style="fill:none;stroke:#8b0000;stroke-width:9.995;stroke-linecap:round;stroke-linejoin:round;stroke-miterlimit:10;stroke-dasharray:none;stroke-opacity:1"
             id="path34" /><path
             d="M 6837.4,3277.75 2826.92,4737.45 6848.64,3193.65 2817.41,4822.38 6856.4,3107.93 2811.42,4908.87 6860.59,3020.71 2809.05,4996.77 6861.11,2932.15 2810.41,5085.95 6857.87,2842.4 2815.55,5176.23 6850.79,2751.62 2824.58,5267.47 6839.8,2659.96 2837.55,5359.51 6824.83,2567.59 2854.54,5452.17 6805.81,2474.68 2875.6,5545.29 6782.69,2381.39 2900.79,5638.7 6755.43,2287.91 2930.14,5732.21 6723.97,2194.41 2963.71,5825.66 6688.29,2101.07 3001.5,5918.85 6648.37,2008.06 3043.56,6011.61 6604.18,1915.59 3089.89,6103.76 6555.71,1823.82 3140.5,6195.09 6502.96,1732.96 3195.39,6285.45 6445.94,1643.18 3254.54,6374.61 6384.65,1554.67 3317.95,6462.41 6319.13,1467.63 3385.59,6548.65 6249.38,1382.23"
             style="fill:none;stroke:#ffd700;stroke-width:9.995;stroke-linecap:round;stroke-linejoin:round;stroke-miterlimit:10;stroke-dasharray:none;stroke-opacity:1"
             id="path36" /><path
             d="M 6249.38,1382.23 3457.42,6633.14 6175.47,1298.68 3533.41,6715.7 6097.42,1217.16 3613.5,6796.14 6015.3,1137.86 3697.64,6874.26 5929.16,1060.96 3785.77,6949.89 5839.07,986.648 3877.8,7022.84 5745.12,915.109 3973.65,7092.93 5647.38,846.516 4073.25,7159.98 5545.95,781.047 4176.49,7223.82 5440.92,718.883 4283.27,7284.27 5332.42,660.191 4393.47,7341.16 5220.55,605.141 4506.98,7394.33 5105.44,553.895 4623.66,7443.61 4987.21,506.609 4743.39,7488.86 4866.02,463.445 V 7529.91 L 4741.99,424.547 4991.4,7566.62 4615.29,390.063 5119.38,7598.84 4486.07,360.129 5249.8,7626.45 4354.5,334.883 5382.48,7649.3 4220.75,314.449 5517.25,7667.29 4085,298.949 5653.95,7680.27 3947.42,288.5"
             style="fill:none;stroke:#ffd700;stroke-width:9.995;stroke-linecap:round;stroke-linejoin:round;stroke-miterlimit:10;stroke-dasharray:none;stroke-opacity:1"
             id="path38" /><path
             d="M 3947.42,288.5 5792.36,7688.16 3808.21,283.211 5932.31,7690.83 3667.57,283.176 6073.61,7688.2 3525.68,288.492 6216.03,7680.18 3382.76,299.246 6359.39,7666.67 3239.01,315.516 6503.47,7647.62 3094.65,337.371 6648.06,7622.95 2949.89,364.875 6792.94,7592.6 2804.95,398.078"
             style="fill:none;stroke:#ffd700;stroke-width:9.995;stroke-linecap:round;stroke-linejoin:round;stroke-miterlimit:10;stroke-dasharray:none;stroke-opacity:1"
             id="path40" /><path
             d="M 2804.95,398.078 6942.88,7565.18 2654.76,428.551 7093.26,7531.64 2504.25,465.184 7243.84,7491.91 2353.68,508.031 7394.35,7445.93 2203.29,557.148 7544.55,7393.66 2053.33,612.57 7694.19,7335.08 1904.08,674.324 7842.99,7270.15 1755.79,742.426 7990.7,7198.87 1608.72,816.887 8137.06,7121.23 1463.14,897.699 8281.8,7037.25 1319.31,984.852 8424.65,6946.94 1177.5,1078.31 8565.35,6850.33 1037.98,1178.05 8703.63,6747.47 901.012,1284.02 8839.22,6638.41 766.863,1396.16 8971.86,6523.21 635.797,1514.4 9101.29,6401.95 508.078,1638.66 9227.24,6274.71 383.965,1768.84 9349.45,6141.6 263.723,1904.86 9467.66,6002.71 147.605,2046.59 9581.62,5858.18 35.8672,2193.91 9691.08,5708.11 -71.2461,2346.68"
             style="fill:none;stroke:#800080;stroke-width:9.995;stroke-linecap:round;stroke-linejoin:round;stroke-miterlimit:10;stroke-dasharray:none;stroke-opacity:1"
             id="path42" /><path
             d="M -71.2461,2346.68 9795.79,5552.67 -173.488,2504.76 9895.5,5391.99 -270.617,2667.99 9989.98,5226.25 -362.395,2836.21 10079,5055.6 -448.594,3009.24 10162.3,4880.23 -528.992,3186.89 10239.7,4700.34 -603.367,3368.97 10311,4516.12 -671.512,3555.27 10376,4327.79 -733.219,3745.58 10434.4,4135.56 -788.289,3939.67 H 10486.1 L -836.539,4137.31 10530.8,3740.35 -877.785,4338.25 10568.5,3537.85 -911.859,4542.25 10598.9,3332.42 -938.594,4749.05 10622,3124.32 -957.84,4958.38 10637.4,2913.82 -969.445,5169.97 10645.1,2701.21 -973.285,5383.54 10645,2486.76 -969.234,5598.8 10637,2270.76 -957.176,5815.46 10620.9,2053.51 -937.008,6033.22 10596.6,1835.31 -908.645,6251.78 10564.2,1616.47 -872,6470.83"
             style="fill:none;stroke:#800080;stroke-width:9.995;stroke-linecap:round;stroke-linejoin:round;stroke-miterlimit:10;stroke-dasharray:none;stroke-opacity:1"
             id="path44" /><path
             d="M -872,6470.83 10523.3,1397.29 -827.012,6690.05 10474.2,1178.1 -773.621,6909.13 10416.6,959.211 -711.789,7127.75 10350.5,740.945 -641.477,7345.58 10275.9,523.633 -562.664,7562.3 10192.9,307.602 -475.352,7777.57 10101.3,93.1797 -379.543,7991.06 10001.2,-119.305 -275.254,8202.45 9892.73,-329.508 -162.52,8411.39 9775.79,-537.105 -41.3828,8617.55 9650.47,-741.758 88.1016,8820.61 9516.84,-943.137 225.855,9020.23 9374.98,-1140.91 371.797,9216.07"
             style="fill:none;stroke:#800080;stroke-width:9.995;stroke-linecap:round;stroke-linejoin:round;stroke-miterlimit:10;stroke-dasharray:none;stroke-opacity:1"
             id="path46" /><path
             d="M 371.797,9216.07 9231.41,-1342.4 519.676,9415.69 9079.25,-1540.06 676.094,9611.3 8918.6,-1733.53 840.945,9802.55 8749.57,-1922.47 1014.12,9989.09 8572.29,-2106.51 1195.48,10170.6 8386.88,-2285.32 1384.89,10346.6 8193.51,-2458.55 1582.18,10516.9 7992.34,-2625.86 1787.18,10681.1 7783.55,-2786.91 1999.71,10838.9 7567.33,-2941.38 2219.57,10990 7343.89,-3088.95 2446.54,11134 7113.45,-3229.28 2680.39,11270.6 6876.25,-3362.09 2920.88,11399.5 6632.53,-3487.06 3167.77,11520.5 6382.55,-3603.9 3420.77,11633.1 6126.59,-3712.33 3679.61,11737.3 5864.93,-3812.07 3944.01,11832.6 5597.87,-3902.85 4213.66,11918.8 5325.72,-3984.43 4488.24,11995.6 5048.79,-4056.54 4767.43,12062.9 V -4118.96 l 283.46,16239.36"
             style="fill:none;stroke:#000000;stroke-width:9.995;stroke-linecap:round;stroke-linejoin:round;stroke-miterlimit:10;stroke-dasharray:none;stroke-opacity:1"
             id="path48" /><path
             d="M 5050.89,12120.4 4481.96,-4171.48 5338.27,12167.9 4192.75,-4213.87 5629.23,12205.2 3900.14,-4245.94 5923.38,12232 3604.53,-4267.51 6220.37,12248.3 3306.27,-4278.4 6519.79,12253.8 3005.77,-4278.46 6821.28,12248.3 2703.41,-4267.54 7124.41,12231.9 2399.59,-4245.52 7428.8,12204.3 2094.74,-4212.27 7734.02,12165.4 1789.26,-4167.71 8039.66,12115.1 1483.57,-4111.75 8345.29,12053.4 1178.11,-4044.32 8650.48,11980.3 873.285,-3965.37 8954.81,11895.5 569.551,-3874.86 9257.84,11799.2 267.34,-3772.78 9559.13,11691.4 -32.9102,-3659.12 9858.23,11571.9 -330.758,-3533.89 10154.7,11440.9 -625.758,-3397.13 10448.1,11298.4 -917.461,-3248.88 10738,11144.4 -1205.43,-3089.21 11023.9,10979.1 -1489.22,-2918.21 11305.5,10802.4"
             style="fill:none;stroke:#000000;stroke-width:9.995;stroke-linecap:round;stroke-linejoin:round;stroke-miterlimit:10;stroke-dasharray:none;stroke-opacity:1"
             id="path50" /><path
             d="M 11305.5,10802.4 -1768.39,-2735.96 11582.2,10614.6 -2042.5,-2542.58 11853.6,10415.7 -2311.1,-2338.21 12119.3,10205.9 -2573.77,-2123.01 12378.8,9985.35 -2830.07,-1897.13 12631.8,9754.2 -3079.57,-1660.76 12877.7,9512.66 -3321.86,-1414.1 13116.2,9260.94 -3556.52,-1157.36 13346.9,8999.26 -3783.14,-890.797 13569.4,8727.86 -4001.32,-614.645 13783.2,8447.02 -4210.66,-329.168 13988,8156.98 -4410.77,-34.6602 14183.3,7858.07 -4601.29,268.59 14368.9,7550.57 -4781.84,580.262 14544.3,7234.8 -4952.07,900.035 14709.3,6911.11 -5111.63,1227.56 14863.4,6579.84 -5260.19,1562.48 15006.3,6241.37 -5397.42,1904.42 15137.8,5896.05"
             style="fill:none;stroke:#000000;stroke-width:9.995;stroke-linecap:round;stroke-linejoin:round;stroke-miterlimit:10;stroke-dasharray:none;stroke-opacity:1"
             id="path52" /><path
             d="M 15137.8,5896.05 -5562.39,2246.06 15297,5549.87 -5715.85,2596.7 15444.6,5194.87 -5857.37,2955.95 15580,4831.47 -5986.55,3323.39 15702.8,4460.09 -6102.97,3698.61 15812.7,4081.15 H -6206.26 L 15909.3,3695.12 -6296.04,4470.55 15992.2,3302.47 -6371.97,4866.33 16061.1,2903.69 -6433.7,5267.99 16115.6,2499.28 -6480.93,5675.02 16155.4,2089.77 -6513.34,6086.89 16180.3,1675.68 -6530.66,6503.05 16190,1257.57 -6532.63,6922.96 16184.2,835.996 -6519.02,7346.05 16162.7,411.539 -6489.6,7771.73 16125.3,-15.2188 -6444.18,8199.42 16071.9,-443.676 -6382.58,8628.5 16002.1,-873.234 -6304.65,9058.38 15916,-1303.27 -6210.27,9488.41 15813.3,-1733.16 -6099.32,9918 15694.1,-2162.27 -5971.73,10346.5 15558.1,-2589.96"
             style="fill:none;stroke:#ffffff;stroke-width:9.995;stroke-linecap:round;stroke-linejoin:round;stroke-miterlimit:10;stroke-dasharray:none;stroke-opacity:1"
             id="path54" /><g
             id="g56"
             transform="scale(1.10067)"><path
               d="M 14135.1,-2353.07 -5294.43,9787.85 13996.4,-2739.77 -5148.14,10173.4 13842.5,-3124 -4986.64,10556.2 13673.4,-3505.18 -4809.95,10935.6 13489.1,-3882.71 -4618.11,11311.1 13289.7,-4255.99 -4411.19,11682 13075.3,-4624.42 -4189.26,12047.8 12845.9,-4987.4 -3952.44,12407.8 12601.7,-5344.33 -3700.86,12761.5 12342.8,-5694.63 -3434.68,13108.3 12069.4,-6037.69 -3154.09,13447.5 11781.7,-6372.93 -2859.28,13778.6 11479.8,-6699.77 -2550.47,14101 11164.1,-7017.62 -2227.93,14414.2 10834.8,-7325.92 -1891.93,14717.5 10492.2,-7624.09 -1542.76,15010.4 10136.6,-7911.6 -1180.75,15292.3 9768.25,-8187.88 -806.232,15562.8 9387.61,-8452.4 -419.573,15821.2 8995.03,-8704.64 -21.1625,16067.1 8590.89,-8944.08 388.594,16300 8175.63,-9170.22"
               style="fill:none;stroke:#ffffff;stroke-width:9.08081;stroke-linecap:round;stroke-linejoin:round;stroke-miterlimit:10;stroke-dasharray:none;stroke-opacity:1"
               id="path58" /></g><g
             id="g60"
             transform="scale(1.21161)"><path
               d="M 7427.05,-8330.59 735.169,15006.8 7040.09,-8523.5 1126.83,15193.3 6643.83,-8703.47 1527.58,15366.6 6238.71,-8870.07 1936.96,15526.4 5825.19,-9022.91 2354.52,15672.2 5403.72,-9161.6 2779.77,15803.7 4974.81,-9285.77 3212.22,15920.5 4538.95,-9395.08 3651.36,16022.2 4096.66,-9489.18 V 16108.6 L 3648.48,-9567.76 4547.59,16179.3 3194.95,-9630.53 5003.58,16234 2736.64,-9677.2 5464.07,16272.6 2274.11,-9707.53 5928.48,16294.6 1807.96,-9721.27 6396.21,16300 1338.79,-9718.21 6866.68,16288.5 867.193,-9698.15 7339.25,16259.8 393.798,-9660.93 7813.31,16214 -80.7681,-9606.39 8288.22,16150.7 -555.875,-9534.4 8763.36,16070 -1030.88,-9444.88 9238.07,15971.7 -1505.13,-9337.72 9711.7,15855.7 -1977.97,-9212.89"
               style="fill:none;stroke:#ffffff;stroke-width:8.24936;stroke-linecap:round;stroke-linejoin:round;stroke-miterlimit:10;stroke-dasharray:none;stroke-opacity:1"
               id="path62" /></g><g
             id="g64"
             transform="scale(1.16864)"><path
               d="M -2050.69,-9551.6 10558,16300 -2538.77,-9403.82 11044.7,16143 -3024.02,-9237.67"
               style="fill:none;stroke:#ffffff;stroke-width:8.55264;stroke-linecap:round;stroke-linejoin:round;stroke-miterlimit:10;stroke-dasharray:none;stroke-opacity:1"
               id="path66" /></g></g></g></g></g></svg>
