<?xml version="1.0" encoding="UTF-8" standalone="no"?>
<svg
   xmlns:dc="http://purl.org/dc/elements/1.1/"
   xmlns:cc="http://creativecommons.org/ns#"
   xmlns:rdf="http://www.w3.org/1999/02/22-rdf-syntax-ns#"
   xmlns:svg="http://www.w3.org/2000/svg"
   xmlns="http://www.w3.org/2000/svg"
   xmlns:sodipodi="http://sodipodi.sourceforge.net/DTD/sodipodi-0.dtd"
   xmlns:inkscape="http://www.inkscape.org/namespaces/inkscape"
   version="1.1"
   id="svg2"
   xml:space="preserve"
   width="2556"
   height="1280"
   viewBox="0 0 2556 1280"
   sodipodi:docname="ABTurtle.eps"><metadata
     id="metadata8"><rdf:RDF><cc:Work
         rdf:about=""><dc:format>image/svg+xml</dc:format><dc:type
           rdf:resource="http://purl.org/dc/dcmitype/StillImage" /></cc:Work></rdf:RDF></metadata><defs
     id="defs6"><clipPath
       clipPathUnits="userSpaceOnUse"
       id="clipPath20"><path
         d="M 0,9598 H 19166 V 0 H 0 Z"
         id="path18" /></clipPath></defs><sodipodi:namedview
     pagecolor="#ffffff"
     bordercolor="#666666"
     borderopacity="1"
     objecttolerance="10"
     gridtolerance="10"
     guidetolerance="10"
     inkscape:pageopacity="0"
     inkscape:pageshadow="2"
     inkscape:window-width="640"
     inkscape:window-height="480"
     id="namedview4" /><g
     id="g10"
     inkscape:groupmode="layer"
     inkscape:label="ink_ext_XXXXXX"
     transform="matrix(1.3333333,0,0,-1.3333333,0,1280)"><g
       id="g12"
       transform="scale(0.1)"><g
         id="g14"><g
           id="g16"
           clip-path="url(#clipPath20)"><path
             d="M 4812.39,742.023 H 14387.6 V 8817.98 H 4812.39 v -8075.957 0"
             style="fill:#000000;fill-opacity:1;fill-rule:evenodd;stroke:none"
             id="path22" /><path
             d="m 9619.98,4750.02 h 14.99 l 15.09,-13.11 3.48,-24.75 -16.33,-25.15 -33.63,-9.64 -36.24,16.9 -18.29,41.09 14.61,47.79 46.62,29.13 59.23,-9.38 41.76,-49.77 -1.22,-69.95 -50.16,-55.71 -79.36,-9.75 -70.43,47.51 -23.29,86.89 41.63,85.34 92,39.06 99.81,-32.43 56.63,-94.25 -19.96,-113.19 -93.21,-75.48 -124.86,4.36 -95.03,88.61 -14.11,134.2 80.27,114.62 140.62,35.06 133.58,-68.06 58.04,-143.64 -52.07,-151.21 -142.82,-82.46 -166.79,32.42 -107.69,137.83 9.42,179.67 128.44,133.01 189.18,16.55 157.68,-114.56 44.97,-194.78 -96.19,-180.91 -195.96,-75.22 -201.93,73.5 -106.6,192.32"
             style="fill:none;stroke:#ff00ff;stroke-width:9.995;stroke-linecap:round;stroke-linejoin:round;stroke-miterlimit:10;stroke-dasharray:none;stroke-opacity:1"
             id="path24" /><path
             d="m 9301.86,4692.48 46.75,219.97 183.6,138.35 234.31,-16.39 169.62,-169.62 17.08,-244.28 -150.38,-199.56 -249.3,-52.99 -227.29,125.99 -90.59,248.89 96.72,251.95 242.68,129.03 272.69,-62.95 167.45,-230.46 -25.28,-288.75 -212.1,-204.82 -299.44,-15.69 -240.22,187.68 -59.12,304.15 157.42,272.66 302.42,104.13 301.18,-121.68 149.74,-293.89 -81,-324.88 -278.37,-194.92 -342.94,36.04 -238.58,255.85 -12.39,354.6 226.44,279.64 359.28,63.35 316.96,-190.47 115.9,-356.47 -148.4,-349.62 -345.91,-168.68 -376.52,100.88 -220.77,327.31 48.72,396.82 300.83,270.86 409.73,7.15 317.72,-266.62 65.7,-414.62 -225.11,-360.24 -411,-125.66"
             style="fill:none;stroke:#ff00ff;stroke-width:9.995;stroke-linecap:round;stroke-linejoin:round;stroke-miterlimit:10;stroke-dasharray:none;stroke-opacity:1"
             id="path26" /><path
             d="m 9570.09,4114.52 -397.2,176.84 -185.85,398.58 122.59,427.55 377.22,244.96 450.34,-63.29 301.61,-346.99 V 4487.4 l -308.16,-354.54 -470.15,-66.07 -402.36,261.3 -133.61,465.97 206.98,443.87 451.97,201.24 477.93,-146.12 267.5,-428.05 -79.8,-503.46 -394.3,-330.88 -519.66,9.07 -389.95,351.12 -64.56,525.79 299.02,443.31 521.34,139.69 489.61,-238.79 214.8,-506.02 -171.4,-527.58 -479.81,-288.27 -556.14,98.06 -358.53,442.75 20.05,574.37 395.36,423.97 581.51,61.12 483.06,-338.24 143.9,-577.04 -272.3,-534.34 -560.65,-226.52 -576.48,198.5 -307.35,532.34 118.24,608.3 492.27,384.59 628.82,-32.95 456.55,-440.89 55.8,-637.24"
             style="fill:none;stroke:#ff00ff;stroke-width:9.995;stroke-linecap:round;stroke-linejoin:round;stroke-miterlimit:10;stroke-dasharray:none;stroke-opacity:1"
             id="path28" /><path
             d="m 10498.3,4475.76 -379,-521.56 -633.01,-146.15 -578.04,307.36 -236.4,615.85 227.33,624.58 585.7,324.66 659.92,-140.27 409,-542.8 -47.7,-682.98 -487.7,-487.66 -692.95,-48.46 -558.77,421.06 -146.5,689.25 344.04,620.67 671.55,244.42 671.83,-257.9 340.2,-639.81 -164.1,-710.94 -594.36,-431.8 -736.81,64.46 -517.26,535.64 -39.23,748.6 464.59,594.65 745.66,144.94 662.21,-382.31 250.5,-727.69 -290.1,-718.2 -694.69,-353.94 -761.3,189.82 -452.89,646.8 83.05,790.25 584.8,545.33 804.1,28.08 629.13,-509.5 141.5,-802.21 -422.1,-702.53 -784.25,-254.81 -763.64,324.14 -365.86,750.12 217.3,810.97 700.19,472.29 843.26,-103.54"
             style="fill:none;stroke:#ff00ff;stroke-width:9.995;stroke-linecap:round;stroke-linejoin:round;stroke-miterlimit:10;stroke-dasharray:none;stroke-opacity:1"
             id="path30" /><path
             d="m 10187.5,5804.64 571.8,-635.07 15,-859.44 -555.7,-662.3 -858.89,-136.03 -741.67,463.45 -257.16,841.13 359.78,808.08 806.22,375.94 859.92,-246.57 489.9,-754.43 -125.9,-895.74 -686.4,-596.72 h -914.57 l -693.98,603.27 -128.67,915.54 506.26,779.58 898.33,257.59 851.53,-397.06 384.1,-862.87 -277.6,-908.04 -809.45,-505.82 -947.71,150.11 -619.98,738.86 16.92,969.37 652.08,724.2 972.21,119.37 816.23,-550.52 256.1,-955.79 -436,-893.86 -920.04,-390.53 -955.34,310.4 -519.93,865.31 176.17,999.08 792.3,641.58 1023.84,-35.75 752.9,-702.1 108.2,-1028.82 -596.3,-851.49 -1013.41,-252.69 -935.09,476.46 -395.01,977.69 344.93,1001.74"
             style="fill:none;stroke:#ff00ff;stroke-width:9.995;stroke-linecap:round;stroke-linejoin:round;stroke-miterlimit:10;stroke-dasharray:none;stroke-opacity:1"
             id="path32" /><path
             d="m 8453.42,5701.75 921.86,532.24 1049.82,-204.06 661.5,-846.69 -56.5,-1077.98 -753.3,-780.1 -1085.33,-94.95 -885.43,643.3 -247.33,1071.28 518.51,975.16 1035.76,397.59 1047.22,-381.16 542.7,-979.08 -233.8,-1099.87 -902,-679.71 -1131.63,79.14 -805.7,805.69 -79.83,1141.65 691.74,917.96 1129.2,240.02 1014.02,-562.09 398.3,-1094.2 -419.1,-1091.74 -1036.95,-551.36 -1149.18,265.31 -696.18,958.21 103.67,1184.88 859.18,829.7 1197.76,62.77 949.1,-741.5 230.7,-1187.18 -607.2,-1051.69 -1152.91,-396.99 -1135.24,458.66 -558.13,1095.39 298.63,1197.72 1015.24,710.88 1237.51,-130.08 852.1,-913.73 43.8,-1253.61 -792.6,-978.71 -1245.11,-219.56 -1088.06,653.77"
             style="fill:none;stroke:#ff00ff;stroke-width:9.995;stroke-linecap:round;stroke-linejoin:round;stroke-miterlimit:10;stroke-dasharray:none;stroke-opacity:1"
             id="path34" /><path
             d="m 8190.23,3607.03 -393.8,1211.99 499.89,1177.66 1154.37,563.02 1245.41,-333.7 723.8,-1073.07 -158.3,-1289.67 -969.4,-872.78 -1309.11,-22.85 -1006.84,844.85 -206.39,1303.09 701.79,1123.11 1271.25,388.66 1219,-542.73 566,-1213.84 -370.6,-1292.25 -1131.6,-734.9 -1341.13,188.49 -891.8,1025.89 v 1364.32 l 898.36,1033.43 1360.97,191.27 1156.8,-751.23 381.5,-1330.68 -587.1,-1259.14 -1273.79,-567.11 -1338.15,409.11 -744.17,1190.92 220.46,1391.94 1083.41,909.09 1419.04,-24.77 1058.5,-953.03 174.2,-1418.64 -802.1,-1189.07 -1390.2,-372.51 -1298.11,633.13 -566.28,1334.06 449.4,1383.1 1250.84,751.58 L 10688.4,6529.5 11613,5387.67 11561.6,3914.3 10552.7,2832.44"
             style="fill:none;stroke:#ff00ff;stroke-width:9.995;stroke-linecap:round;stroke-linejoin:round;stroke-miterlimit:10;stroke-dasharray:none;stroke-opacity:1"
             id="path36" /><path
             d="m 10552.7,2832.44 -1476.13,-155.15 -1219.92,854.2 -361.49,1449.87 680.64,1335.84 1394.72,563.5 1426.98,-491.36 757.2,-1311.37 -289.9,-1491.33 -1201.1,-938.41 -1527.18,80.03 -1103.64,1065.77 -134.15,1533.37 907.68,1249.31 1509.51,348.5 L 11288.2,6195.54 11847,4739.89 11312,3270 9939.54,2509.23 l -1539.82,327.3 -950.39,1261.21 110.51,1580.35 1123.73,1123.74 1590.33,111.21 1277.2,-962.43 333.5,-1569.14 -780.1,-1407.43 -1516.89,-552.09 -1511.65,580.26 -762.51,1434.08 366.49,1587.43 1322.08,960.55 L 10635,6841.4 11777.1,5658.68 11863.4,4011.77 10845,2708.26 9216.32,2391.68 7775.11,3223.76 7231.68,4801.98 7858.83,6354.24 9354.98,7116.56 10989.1,6709.13 11958,5325.45"
             style="fill:none;stroke:#ff00ff;stroke-width:9.995;stroke-linecap:round;stroke-linejoin:round;stroke-miterlimit:10;stroke-dasharray:none;stroke-opacity:1"
             id="path38" /><path
             d="m 11958,5325.45 -177.1,-1684.87 -1242.7,-1158.81 -1703.11,-59.48 -1328.25,1075.6 -297.66,1688.1 885.42,1473.59 1639.75,532.79 1591.65,-675.63 760.2,-1558.62 -450.1,-1679.87 -1445.9,-975.31 -1736.13,213.17 -1173.74,1303.56 -30.7,1758.85 1133.95,1351.4 1747.32,276.75 1504.5,-940.14 520.2,-1701.37 -725.7,-1629.86 -1621.43,-756.11 -1724.6,494.52 -979.86,1508.85 251.08,1786.54 1365.34,1186.88 h 1814.07 l 1372.9,-1193.43 253.9,-1806.34 -996.2,-1534 -1763.05,-505.54 -1666.78,777.23 -750.05,1684.65 540.62,1768.27 1572.34,982.52 1836.22,-290.83 1198.2,-1427.96 -32.7,-1868.78 -1254,-1392.7 -1865.01,-229 -1561.95,1053.56 -488.92,1824.68 830.3,1702.37 1748.08,742.01"
             style="fill:none;stroke:#ff00ff;stroke-width:9.995;stroke-linecap:round;stroke-linejoin:round;stroke-miterlimit:10;stroke-dasharray:none;stroke-opacity:1"
             id="path40" /><path
             d="m 9508.4,7442.69 1810.9,-588.38 983.2,-1636.37 -332.4,-1884.97 -1491.4,-1207.68 -1922.82,67.14 -1410.81,1315.6 -202.16,1923.44 1112.18,1588.36 1886.29,470.3 1736.62,-884.84 732,-1811.74 -637.8,-1852.28 -1700.9,-982.02 -1932.86,375.71 -1215.33,1555.54 103.58,1976.3 1378.2,1427.18 1981.41,173.35 1613.2,-1172.04 449.7,-1947.77 -940.8,-1769.43 -1875.59,-719.95 -1892.53,688.82 -978.83,1765.85 420.81,1979.76 1620.42,1221.07 2029.02,-141.88 1441.8,-1441.78 142.6,-2039 L 11183,2254.6 9173.88,1827.55 7373.06,2825.76 6667.14,4765.26 7408.59,6696.8 9239.79,7670.47 11265.5,7202.8 12490.4,5516.85 12308.3,3435.84 10802.1,1981.26 8705.98,1871.41 7048.05,3166.73 6645.64,5236.93"
             style="fill:none;stroke:#ff00ff;stroke-width:9.995;stroke-linecap:round;stroke-linejoin:round;stroke-miterlimit:10;stroke-dasharray:none;stroke-opacity:1"
             id="path42" /><path
             d="m 6645.64,5236.93 1056.98,1830.73 2003.49,689.86 1969.29,-795.64 966.5,-1896.9 -516.2,-2070.55 -1752.1,-1226.84 -2132.22,224.11 -1465.57,1571.62 -75.17,2152.61 1358.65,1677.8 2131.01,375.75 1859.2,-1117.07 671.7,-2067.51 -851.3,-2005.7 -1962.92,-957.36 -2114.32,566.53 -1226.81,1818.83 267.98,2182.51 1637.81,1474.69 2208.56,38.55 1695.9,-1423.06 347.2,-2191.57 -1178.5,-1885.96 -2131.52,-651.67 -2040.76,908.6 -946.19,2029.12 618.5,2156.95 1886.06,1224.83 2231.91,-313.68 1482,-1704.79 V 3587.85 L 11156.3,1875.52 8904.54,1559.05 6993.33,2800.21 6363.81,4995.6 7331.13,7070 l 2095.53,933 2198.44,-672.12 1220.8,-1953.77 -361.2,-2280.43 -1772.5,-1487.3 -2318.46,40.46"
             style="fill:none;stroke:#ff00ff;stroke-width:9.995;stroke-linecap:round;stroke-linejoin:round;stroke-miterlimit:10;stroke-dasharray:none;stroke-opacity:1"
             id="path44" /><path
             d="M 8393.74,1649.84 6666.79,3204.8 6382.98,5516.27 7688.04,7451.11 9947.18,8056.44 12053.8,7028.98 12971.6,4866.87 12244.2,2628.25 10222.3,1413.37 7894.38,1823.84 6403.63,3664.76 l 82.85,2372.37 1622.34,1739.75 2370.78,249.17 1956.8,-1370.16 579.1,-2322.7 L 11926.4,2195.85 9697.68,1295.37 7420.12,2079.59 6213.23,4170 6674.75,6544.35 8584.72,8036.58 11010.2,7909.47 12760.9,6218.82 12973.5,3789.32 11537,1812.27 9151.02,1261.41 6984.47,2413.39 6103.32,4708.85 6945.98,7024.03 9105.21,8220.91 11524.9,7706.59 13016.7,5726.96 12843.4,3249.25 11083.6,1489.44 8595.92,1315.48 6600.33,2819.27 6079.77,5268.3 7296.04,7462.5 9658.18,8322.25 12009.6,7419.62 13194.4,5191.29 12625.6,2727.36"
             style="fill:none;stroke:#ff00ff;stroke-width:9.995;stroke-linecap:round;stroke-linejoin:round;stroke-miterlimit:10;stroke-dasharray:none;stroke-opacity:1"
             id="path46" /><path
             d="M 12625.6,2727.36 10575.8,1238.07 8046.71,1459.34 6279.69,3289.14 6146.3,5834.38 7718.52,7846.73 10230.2,8334.96 12450.5,7053.11 13286.8,4624.34 12322.6,2238.03 10025,1067.32 7518.03,1692.38 6033.21,3812.92 6304.33,6392.41 8204.9,8164.72 10807,8255.59 12834.3,6613.89 13288.2,4039.9 11939.5,1795.25 9444.21,984.48 7024.49,2011.59 5869.96,4378.73 6552.9,6927.5 8744.61,8405.82 11373.5,8083.03 13149.2,6110.97 13195.6,3452.7 11483.4,1412.21 8847.61,994.746 6580.22,2411.57 5797.05,4973.19 6888.6,7424.83 9325.34,8561.11 11914.6,7818.63 13384.4,5555.36 13008.2,2878.02 10963.9,1100.99 H 8250.28 l -2051.78,1783.58 -379.06,2697.14 1486.12,2288.42 2627.74,753.5 2482,-1157.4"
             style="fill:none;stroke:#ff00ff;stroke-width:9.995;stroke-linecap:round;stroke-linejoin:round;stroke-miterlimit:10;stroke-dasharray:none;stroke-opacity:1"
             id="path48" /><path
             d="M 12415.3,7466.23 13531.3,4959.8 12727.7,2331.28 10392.4,872.078 7667.79,1303.62 5891.38,3420.68 5939.69,6188.87 7795.6,8250.07 10553.5,8588.7 12861.2,7032.12 13583,4338.54 12358.3,1827.66 9782.2,734.16 7115.82,1600.52 5669.29,4007.96 6157.86,6778.8 8348.32,8552.6 11170.2,8454.06 13238.9,6524.97 13535.1,3706.91 11906.9,1381.68 9147.82,693.754 6609.72,1986.98 5540.75,4632.77 6471.41,7335.6 8951.33,8767.38 11767.2,8220.04 13536.3,5955.64 13385.7,3081.02 11382.6,1006.76 8505.04,755.008 6164.1,2455.8 5512.07,5280.06 6875.2,7843.74 9590.56,8886.07 12328.4,7889.58 13743.3,5336.96 13135.5,2477.31 10796.7,714.875 7870.28,919.508 5792.42,2997.36 5587.09,5933.72 7361.56,8288.52"
             style="fill:none;stroke:#ff00ff;stroke-width:9.995;stroke-linecap:round;stroke-linejoin:round;stroke-miterlimit:10;stroke-dasharray:none;stroke-opacity:1"
             id="path50" /><path
             d="M 7361.56,8288.52 10250.5,8902.59 12838.1,7468.27 13851.7,4683.48 12787.9,1912.13 10162.4,516.148 7260.25,1186.17 5506.59,3599.88 5767.06,6577.01 7920.41,8656.47 10914.8,8813.4 13281.6,6964.26 13855.6,4011.04 12348.9,1401.28 9494.85,418.555 6691.52,1551.18 5316.61,4249.57 l 733.87,2943.38 2488.98,1742.8 3026.84,-318.13 2079,-2229.51 106.6,-3051.62 L 11827.1,959.617 8810.2,427.648 6180.01,2008.03 5230.26,4931.06 6433.11,7764.8 9204.5,9116.5 12187.7,8317.15 13917.6,5752.56 13539.9,2677.21 11233.6,600.594 8125.67,546.344 5740.63,2547.63 5252.8,5627.67 6907.97,8276.5 9899.71,9191.16 12762.2,7916.68 14088.6,5072.3 13222.2,2050.64 10581.7,335.887 7458.93,774.758 5386.82,3158.45"
             style="fill:none;stroke:#ff00ff;stroke-width:9.995;stroke-linecap:round;stroke-linejoin:round;stroke-miterlimit:10;stroke-dasharray:none;stroke-opacity:1"
             id="path52" /><path
             d="M 5386.82,3158.45 V 6321.87 L 7465.48,8713.1 10608,9154.75 13273.7,7423.67 14151.1,4363.58 12803.6,1473.9 9886.32,175.027 6827.68,1110.15 5130.14,3826.79 5632.04,6995.68 8093.64,9061.21 11311.5,9005.04 13707,6848.17 14100.4,3643.85 12292.3,963.258 9164.3,125.102 6249.18,1546.91 4979.94,4537.05 5985.29,7631.19 8778.25,9309.38 11992,8742.7 14048.9,6202.7 13934.7,2931.33 11698.8,533.691 8433.45,190.488 5739.78,2076.61 4943.05,5272.14 6440.47,8210.99 9503.28,9448.45 12631.4,8371.35 14288.1,5501.91 13654.9,2244.54 11036.1,198.488 7712.28,372.68 5314.48,2688.21 5023.53,6013.84 6988.69,8718.64 10251.2,9471.86 13212,7897.56 14415.5,4762.3 13265.2,1601.82 10319.2,-31.1758"
             style="fill:none;stroke:#ff00ff;stroke-width:9.995;stroke-linecap:round;stroke-linejoin:round;stroke-miterlimit:10;stroke-dasharray:none;stroke-opacity:1"
             id="path54" /><path
             d="M 10319.2,-31.1758 7019.6,670.176 4986.48,3368.21 l 236.01,3375.07 2395.9,2395.9 3385.01,236.7 2714,-2045.15 L 14425,4001.8 12772.6,1020.84 9565.19,-146.574 6373.94,1078.43 4766.8,4101.02 5538,7441.43 8315.59,9459.47 11740.8,9159.8 14132.7,6682.91 14313.2,3239.37 12187.1,518.148 8792.38,-141.719 5793.1,1589.91 4663.94,4869.22 5965.05,8089.58 9064.2,9668.68 12444,8826 14444.8,5968.59 14079.6,2494.47 11521.2,108.668 8020.05,-13.5938 5293.64,2194.22 4683.57,5654.09 6495.59,8669.81 9846.39,9758.55 13094.2,8379.96 14643,5204.31 13727.3,1786.64 10789.8,-194.707 7268.01,237.711 4890.44,2878.27 4828.34,6435.95 7118.73,9165.53 10643,9723.72 13673.3,7830.21 14719.4,4408.35"
             style="fill:none;stroke:#ff00ff;stroke-width:9.995;stroke-linecap:round;stroke-linejoin:round;stroke-miterlimit:10;stroke-dasharray:none;stroke-opacity:1"
             id="path56" /><path
             d="M 14719.4,4408.35 13262,1134.93 10010,-381.516 6555.99,608.906 4596.27,3626.61 5097.74,7194.74 7820.88,9561.93 H 11434.1 L 14164.8,7188.18 14669,3600.26 12693,557.406 9200.52,-444.035 5903.2,1093.53 4421.39,4421.73 5488.02,7910.5 8586.08,9846.39 12199.2,9274.13 14553.9,6467.98 14489.8,2800.37 12032,70.6758 8381.27,-377.578 5327.79,1682.02 4373.22,5244.5 5992.2,8563.89 9396.36,10008.9 12918.3,8864.54 14828.1,5686.03 14183.3,2029.3 11293.8,-310.602 7572.91,-180.664 4846.32,2361.92 4456.11,6074.6 l 2144.1,3062.1 3631.99,905.5 3339.6,-1701.57 1405.9,-3479.84 -1223.5,-3553.37 -3259,-1881.557 -3698.86,718.989 -2322.96,2973.258 197.73,3772.93 2627.96,2721.34 3773.73,330.15"
             style="fill:none;stroke:#ff00ff;stroke-width:9.995;stroke-linecap:round;stroke-linejoin:round;stroke-miterlimit:10;stroke-dasharray:none;stroke-opacity:1"
             id="path58" /><path
             d="M 11072.8,9942.53 14141.4,7713 14995.8,4012.25 13210.4,654.313 9655.23,-710.387 6072.09,593.766 4221.04,3933.14 5015.91,7672.69 8073.15,9976.49 11896.9,9709.11 14610.8,6995.17 14878.9,3161.46 12563.1,88.2461 8794.21,-712.852 5419.86,1157.58 4098.62,4787.67 5484.81,8398.82 8904.52,10217.1 12683.2,9344.74 14965.6,6203.28 14626.7,2330.02 11826.3,-374.32 7933.59,-578.328 4857.94,1824.63 4112.25,5660.87 6068.77,9049.67 9773.35,10325.3 13410.7,8855.66 15194,5355.75 14242.5,1539.55 11016.7,-719.211 7095.26,-307.051 4402.71,2580.35 4264.76,6530.96 6755.62,9606.93 10658.4,10295.1 14059.7,8251.42 15287.4,4472.86 13733.1,811.078 10153.2,-934.957 6301.06,97.2148 4068.2,3407.56 4555.43,7375.77"
             style="fill:none;stroke:#ff00ff;stroke-width:9.995;stroke-linecap:round;stroke-linejoin:round;stroke-miterlimit:10;stroke-dasharray:none;stroke-opacity:1"
             id="path60" /><path
             d="m 4555.43,7375.77 2974.81,2678.53 4007.36,69.9 3074.2,-2579.46 628.5,-3968.52 L 13108.4,164.531 9256.47,-1013.14 5572.15,627.223 3865.63,4286.88 4980.03,8173.23 8374.95,10377.9 12388.5,9813.86 15050.7,6751.27 V 2688.3 L 12381.9,-381.832 8348.59,-948.68 4928.52,1272.34 3803.11,5197.13 5530.75,8902.07 9269.85,10566.8 13188.7,9368.7 15363,5889.21 14720.3,1831.84 11569.7,-811.914 7452.34,-740.043 4388.4,2018.74 3885.33,6115.91 6196.44,9542.26 10193.4,10613.2 13917,8797.1 15537.7,4978.91 14254.4,1029.25 10690.4,-1112.24 6590.7,-389.355 3967.75,2849.72 4113.38,7020.09 6962.71,10075.6 11122.7,10512.9 14553.2,8110.77 15567.6,4042.42 13661.8,302.059 9764.92,-1272.38 5786.28,97.582"
             style="fill:none;stroke:#ff00ff;stroke-width:9.995;stroke-linecap:round;stroke-linejoin:round;stroke-miterlimit:10;stroke-dasharray:none;stroke-opacity:1"
             id="path62" /><path
             d="M 5786.28,97.582 3679.83,3746.05 4484.64,7886.45 7812.32,10486.3 12034.4,10265.1 15079.3,7324.64 15448.7,3102.89 12954.8,-329.672 8815.75,-1285.23 5060.69,711.367 3534.8,4686.43 4992.79,8692.22 8725.55,10761.3 12905,9872.94 15479.5,6456.49 15180.8,2184.07 12148.8,-847.906 7866.39,-1147.36 4433.98,1439.15 3539.37,5647.97 5627.85,9415.7 9680.6,10890.8 13711.6,9343.4 15741.1,5526.56 14767.5,1309.65 11262.2,-1237.13 6940.89,-859.059 3924.11,2264.91 3696.56,6606.77 6376.42,10036.8 10654.2,10868.4 14432.5,8686.95 15854.5,4557.1 14216.4,502.695 10315.8,-1484.79 6063.15,-424.492 3546.41,3169.79 4005.58,7538.53 7221.93,10537.8 11622,10691.5 15047.5,7917.56 15813.8,3571.81 13538.5,-214.977"
             style="fill:none;stroke:#ff00ff;stroke-width:9.995;stroke-linecap:round;stroke-linejoin:round;stroke-miterlimit:10;stroke-dasharray:none;stroke-opacity:1"
             id="path64" /><path
             d="M 13538.5,-214.977 9332.17,-1581.7 5256.37,148.379 3313.16,4132.54 4461.75,8419.11 8144.98,10903.5 12559.6,10361.4 15539.1,7052.37 15616.9,2595.28 12748.3,-823.398 8335.51,-1522.31 4542.39,847.895 3233.22,5130 5056.53,9225.2 9123.81,11121.8 13442.5,9883.44 15892.2,6111.3 15265.5,1652.38 11863.5,-1304.97 H 7350.73 L 3941.15,1658.93 3311.71,6137.66 5777.69,9934.94 10134.8,11184.3 14247.4,9266.6 16095.1,5116.61 14765.5,767.602 10904.6,-1644.98 6402.94,-931.992 3470.09,2563.25 3549.8,7130.27 6609.54,10528.5 11153.1,11086.3 14952.4,8523.73 16139.8,4092.34 14126.4,-35.5508 9894.24,-1832.02 5516.82,-409.703 3143.68,3539.86 l 800.98,4542.62 3588.62,2906.02 4619.92,-161.3 3384.4,-3156.12"
             style="fill:none;stroke:#ff00ff;stroke-width:9.995;stroke-linecap:round;stroke-linejoin:round;stroke-miterlimit:10;stroke-dasharray:none;stroke-opacity:1"
             id="path66" /><g
             id="g68"
             transform="scale(1.00738)"><path
               d="M 15423.9,7614.92 15904.6,3041.34 13264,-729.805 8792.19,-1844.75 4681.4,249.802 2951.24,4532.1 4456.53,8903.77 8464.95,11218 13013.3,10333.9 15869,6678.77 15626,2041.73 12397,-1302.03 7761.36,-1707.6 3992.71,1030.48 l -1049,4543.73 2191.6,4121.8 4362.78,1674.69 4396.01,-1599.99 2270.4,-4095.94 -974.7,-4585.61 -3748,-2824.33 -4686.54,327.72 -3325.48,3325.48 -328.41,4696.43 2836.28,3763.84 4614.75,980.9 L 14683,9069.56 16300,4626.93 14603.9,208.571 10420.8,-2015.63 5799.76,-948.772 3009.2,2892.11 3423.41,7626.58 6845.68,10931.4 11601.6,11180.7 15358.4,8245.55 16269,3560.83 13880.4,-576.478 9358.58,-2133.45 4919.9,-340.105 2744.26,3929.81 l 1160.55,4654.7 3933.7,2754.39"
               style="fill:none;stroke:#ff00ff;stroke-width:9.92182;stroke-linecap:round;stroke-linejoin:round;stroke-miterlimit:10;stroke-dasharray:none;stroke-opacity:1"
               id="path70" /></g><g
             id="g72"
             transform="scale(1.02527)"><path
               d="M 7701.74,11141.1 12399.1,10647.4 15623.7,7189.43 15788.9,2459.32 12807.2,-1222.69 8136.54,-2046.26 4067.03,398.944 2598.43,4918.83 4457.28,9298.01 8737.55,11385.6 13342.2,10151.8 16010.7,6195.66 15428.5,1454.4 11875,-1745.2 7089.14,-1828.74 3418.65,1251.17 2668.33,5988.47 5212.6,10060.2 9808.7,11465.3 14203.8,9508.52 16239,5143.87 14910.2,509.887 10863.2,-2118.33 6079.69,-1446.06 2907.41,2203.23 v 4840.23 l 3178.67,3656.64 4802.82,675 L 14960.5,8730.95 16300,4059.48 14244.1,-349.342 9795.64,-2329.93 5134.28,-904.812 2548.69,3233 3312.73,8056.97 7057.9,11199.5 11951,11114.1 15591.5,7836.25 16189.1,2969.2 13444.3,-1100.1 8698.35,-2371.77 4277.88,-215.767 2354.28,4315.96"
               style="fill:none;stroke:#ff00ff;stroke-width:9.7487;stroke-linecap:round;stroke-linejoin:round;stroke-miterlimit:10;stroke-dasharray:none;stroke-opacity:1"
               id="path74" /></g><g
             id="g76"
             transform="scale(1.04197)"><path
               d="M 2316.55,4246.79 3814.96,8858.45 7975.46,11358.3 12760.2,10514.6 15820.8,6735.1 15650.9,1869.89 12327.6,-1693.97 7476.55,-2203.83 3477,596.686 2294.64,5338.87 4515.63,9697.8 9056,11532.2 13690.7,9936.38 16144,5687.19 15206.8,866.095 11332.9,-2160.58 6418.68,-1903.04 2875.41,1518.66 2445.69,6430.41 5346.6,10423.2 10160.1,11534.4 14526.2,9212.95 16300,4592.01 14605.5,-63.6942 10268,-2468.01 5412.35,-1435.92 2422,2532.41 l 346.95,4961.57 3520.31,3520.32 4971.14,347.6 3983.7,-3001.88 1038,-4883.77 L 13859.2,-894.801 9158.44,-2605.75 4483.76,-811.305 2130.74,3614.08 3259.29,8502.35 7321.89,11454 l 5007.31,-438.1 3495,-3619.16 263.6,-5029.13 -3103.5,-3972.23 -4952.91,-962.75"
               style="fill:none;stroke:#ff00ff;stroke-width:9.59245;stroke-linecap:round;stroke-linejoin:round;stroke-miterlimit:10;stroke-dasharray:none;stroke-opacity:1"
               id="path78" /></g><g
             id="g80"
             transform="scale(1.06032)"><path
               d="M 7892.34,-2522.92 3594.27,-41.4305 1976.94,4655.62 3839.64,9265.96 8274.29,11525.5 13108.1,10320.3 15968.3,6235.57 15446.6,1271.65 11792.8,-2135.6 6795.11,-2310.12 2905.19,839.879 l -870,4934.001 2582.83,4298.52 4773.86,1551.1 4624.82,-1963.08 2204.6,-4520.01 -1302.8,-4862.16 -4177,-2817.44 -5005.56,614.6 -3377.65,3751.27 -88.18,5051.76 3250.74,3874.06 4999.65,791.9 L 14817.3,8859.45 16300,4009.66 14235.4,-627.583 9630.58,-2774.83 4742.06,-1373.07 1969.72,2895.97 2678.8,7941.33 6527.57,11287 h 5104.33 l 3855.9,-3351.85 711.7,-5064.04 -2787.7,-4292.75 -4924.78,-1412.15 -4647.5,2167.16 -2087.64,4688.92 1502.02,4912.89 4360.74,2724.92 5083.46,-805.2 3311.3,-3946.26 -90,-5155.43"
               style="fill:none;stroke:#ff00ff;stroke-width:9.42637;stroke-linecap:round;stroke-linejoin:round;stroke-miterlimit:10;stroke-dasharray:none;stroke-opacity:1"
               id="path82" /></g><g
             id="g84"
             transform="scale(1.07641)"><path
               d="M 15681.5,1727.01 12279.8,-2051 7229.26,-2671.13 3006.88,176.898 1687.49,5100.95 3924.23,9686.94 8625.28,11682.4 13486.8,10102.8 16121.9,5717.28 15232.6,674.121 11249.3,-2551.53 6122.16,-2372.49 2366.74,1129.5 1829.51,6240.88 4780.09,10454.7 9775.97,11700.4 14367.7,9360.74 16300,4578.22 14619.2,-303.251 10144.1,-2886.95 5067.07,-1900.08 1879.99,2179.2 l 271.17,5174.22 3602.47,3730.48 5170.87,452.4 4203,-3053.71 L 16297.2,3415.97 13853.9,-1179.36 8990.69,-3046.16 4091.3,-1262.93 1561.34,3301.24 2647.28,8410.21 6822.35,11556.3 12042,11191.3 15745.1,7488.21 16110.8,2259.3 12953.5,-1930.59 7817.24,-3022.33 3220.59,-474.364 1421.48,4468.65 3308.25,9383.85 7960.97,11857.7 13100,10671.3"
               style="fill:none;stroke:#ff00ff;stroke-width:9.28552;stroke-linecap:round;stroke-linejoin:round;stroke-miterlimit:10;stroke-dasharray:none;stroke-opacity:1"
               id="path86" /></g><g
             id="g88"
             transform="scale(1.09531)"><path
               d="M 12873.9,10487.1 15923.1,6290.19 15470.6,1117.68 11732.3,-2492.35 6538.03,-2764.57 2435.68,440.539 1441.47,5555.33 4049.01,10071.7 8984.28,11771.1 13828.1,9814.05 16201.9,5155.18 14935.8,77.3003 10645.2,-2927.03 5431.46,-2379.05 1853,1458.38 1669.73,6706.76 4977.53,10791.6 10158.3,11705.1 14671.5,8993.26 16300,3981.35 14239.1,-873.763 9494.43,-3187.9 4390.94,-1820.43 1433.88,2563.59 2078.9,7816.79 6015.49,11361.3 11316.5,11453.8 15381.3,8043 16212.2,2797.48 13395.4,-1710.28 8307.82,-3265.71 3443.57,-1100 1191.37,3729.84 2661.55,8856.94 7138.6,11764.4 12429.4,11020.8 15937.6,6985.06 V 1633.1 L 12423.5,-2409.52 7114.54,-3155.64 2614.53,-233.303 1134.29,4928.88 3405.77,9800.08"
               style="fill:none;stroke:#ff00ff;stroke-width:9.12525;stroke-linecap:round;stroke-linejoin:round;stroke-miterlimit:10;stroke-dasharray:none;stroke-opacity:1"
               id="path90" /></g><g
             id="g92"
             transform="scale(1.11164)"><path
               d="M 3355.75,9656.15 8197.85,11812 13270.9,10261 16084.4,5758.45 15253.1,510.048 11179.1,-2908.5 5857.07,-2815.61 1898.1,749.06 1248.32,6041.12 4232.34,10465.1 9391.16,11847.4 14195.5,9504.19 16285.8,4579.69 14631.2,-512.539 10037.9,-3272.51 4756.07,-2341.19 1378.02,1830.35 1565.51,7199.34 5232.45,11131.7 10584.2,11694.2 14996,8605.01 16300,3374.88 13850.8,-1431.88 8844.75,-3454.46 3735.42,-1695.18 1031.3,2988.48 2064.1,8301.76 6332.93,11636.9 11747.2,11353.2 15650.5,7583.82 16123.8,2173.78 12929.1,-2223.39 7628.81,-3447.06 2821.87,-891.165 869.238,4195.63 2734.34,9319.95 7507.73,11965.9 12850.6,10830.2 16140.5,6464.35 15758.8,1006.51 11886.9,-2865.37 6420.14,-3247.65 2039.9,53.103"
               style="fill:none;stroke:#ff00ff;stroke-width:8.99124;stroke-linecap:round;stroke-linejoin:round;stroke-miterlimit:10;stroke-dasharray:none;stroke-opacity:1"
               id="path94" /></g><g
             id="g96"
             transform="scale(1.1302)"><path
               d="M 2006.39,52.2308 883.88,5333.25 3503.51,10059.2 8585.22,11908.8 13638,9969.2 16181,5186.55 14961.5,-95.6206 10572.2,-3284.67 5162.86,-2811.42 1387.83,1097.75 1103.19,6529.09 4454.37,10818.4 9801.92,11857.9 14523.5,9131.83 16300,3972.63 14254.3,-1090.64 9384.67,-3571.85 4077.39,-2248.59 937.538,2235.58 1510.2,7684.17 l 4010.03,3739.43 5484.07,191.5 4268,-3456.16 954.4,-5412.77 L 13393.6,-1968.86 8157.96,-3670.03 3086.4,-1517.28 669.237,3438.64 2097.5,8768.99 6676.12,11857.3 12162.2,11183.7 15863.5,7072.89 15960.2,1537.65 12398.8,-2706.61 6922.15,-3574.03 2216.04,-633.326 592.28,4677.76 2853,9755.42 7894.43,12106.3 13245.8,10571.8 16280.2,5899.19 15504.2,377.578 11292.7,-3283.43"
               style="fill:none;stroke:#ff00ff;stroke-width:8.84357;stroke-linecap:round;stroke-linejoin:round;stroke-miterlimit:10;stroke-dasharray:none;stroke-opacity:1"
               id="path98" /></g><g
             id="g100"
             transform="scale(1.15486)"><path
               d="M 11051.6,-3213.32 H 5586.14 L 1458.02,375.196 696.167,5796.06 3679.95,10390.7 8950.35,11901.9 13923.4,9582.99 16156.9,4566.3 14550.1,-689.331 9885.78,-3603.94 4449.12,-2742.86 908.163,1477.09 l 96.217,5512.25 3691.87,4100.26 5480.55,672.9 4581.3,-3090.13 1431.4,-5341.95 -2426.2,-4974.57 -5098.77,-2164.28 -5272.06,1712.99 -2857.277,4755.31 964.097,5467.68 4318.1,3496.75 5557.31,-194.1 4070,-3795.31 582.1,-5538.83 L 12829.9,-2469.62 7417.61,-3819.06 2443.72,-1284.74 350.927,3895.11 2171.17,9181.48 7016.85,11979.1 12513.6,10910.7 15963.7,6494.69 15670.2,894.095 11771.4,-3143.28 6175.81,-3632.83 1628.11,-328.731 362.623,5152.68 3005.71,10123.6 8265.74,12142.7 13564.3,10214.2 16300,5278.84"
               style="fill:none;stroke:#ff00ff;stroke-width:8.65476;stroke-linecap:round;stroke-linejoin:round;stroke-miterlimit:10;stroke-dasharray:none;stroke-opacity:1"
               id="path102" /></g><g
             id="g104"
             transform="scale(1.16495)"><path
               d="M 16158.7,5233.08 14994.8,-242.864 10520.3,-3614.57 4927.15,-3223.46 959.463,744.222 567.75,6345.98 3949.79,10834.1 9450.91,12003.4 14373.5,9274.74 16300,3981.83 14279.9,-1280.66 9299.06,-3929.03 3798.28,-2659.08 477.436,1911.67 970.22,7544.2 5040.49,11474.8 10695.4,11771.2 15160.9,8282.27 16243.1,2715.26 13405.3,-2199.87 8034.97,-4049.02 2764.79,-1919.73 182.32,3148.64 1559.5,8672.2 l 4666.66,3267.6 5670.04,-595.9 3891.1,-4172.76 199.3,-5706.34 -3596,-4440.7 -5631.52,-992.98 -4905.31,2947.4 L 84.043,4425.19 2323.43,9700.85 7478.51,12215.2 13022.8,10729.6 16234.9,5967.47 15534.3,261.89 11259.2,-3587.43 5503.07,-3687.9 1089.66,15.3875 187.725,5709.99 3245.29,10603.1 8767.15,12291.3"
               style="fill:none;stroke:#ff00ff;stroke-width:8.57974;stroke-linecap:round;stroke-linejoin:round;stroke-miterlimit:10;stroke-dasharray:none;stroke-opacity:1"
               id="path106" /></g><g
             id="g108"
             transform="scale(1.18741)"><path
               d="M 8601.32,12058.8 13780.4,9752.98 16178,4611.17 14613.1,-846.466 9847.93,-3940.99 4217.27,-3149.65 484.167,1144.8 V 6839.21 L 4222.8,11140 9870.12,11933.7 14656.4,8825.41 16230.7,3335.41 13815.2,-1844.55 8590.05,-4170.94 3116.29,-2497.44 80.8677,2360.24 977.598,8021.96 5372.01,11709.3 11111.8,11609.1 15381.1,7765.02 16081.8,2058.75 12864.6,-2710.98 7303.2,-4201.14 2124.58,-1675.36 -128.361,3632.24 1654.72,9119.99 6604.32,12094 12295.1,11090.6 15934.3,6596.5 15732.4,813.023 11782.8,-3422.4 6019.12,-4028.19 1268.34,-701.656 -135.734,4929.78 2501.06,10104.8 7890.09,12282.1 13389.7,10388.4 16300,5347.59 15188.6,-370.267 10595.2,-3959.01 4769.87,-3653.72 570.723,401.352 61.5834,6220.83"
               style="fill:none;stroke:#ff00ff;stroke-width:8.41746;stroke-linecap:round;stroke-linejoin:round;stroke-miterlimit:10;stroke-dasharray:none;stroke-opacity:1"
               id="path110" /></g><g
             id="g112"
             transform="scale(1.21206)"><path
               d="M 60.3311,6094.33 3426.6,10727.6 9010.88,12016.8 14074.8,9324.28 16131.7,3966.08 14167.3,-1431.08 9140.24,-4217.6 3514.15,-3021.73 50.1599,1575.13 451.958,7321.13 4527.83,11397 10282,11799.4 14892.1,8325.46 16093.1,2675.17 13290.6,-2380.69 7854.68,-4359.2 2450.29,-2284.65 -269.363,2830.28 1034.71,8478.83 5728.02,11888.7 11511.3,11382.8 15546.9,7203.75 15851.2,1398.09 12269.4,-3186.36 6554.52,-4297.23 1509.06,-1384.23 -389.042,4128.25 1796.51,9537.67 6998.53,12188.2 12667.5,10774.8 16020.9,5985.54 15409.4,166.858 11127.4,-3826.14 5272,-4030.62 715.507,-340.848 -303.325,5437.24 2720.64,10470 8308.55,12285.6 13720.7,9988.25 16300,4700 14776.1,-987.222 9891.45,-4281.97 4039.31,-3563.41"
               style="fill:none;stroke:#ff00ff;stroke-width:8.24628;stroke-linecap:round;stroke-linejoin:round;stroke-miterlimit:10;stroke-dasharray:none;stroke-opacity:1"
               id="path114" /></g><g
             id="g116"
             transform="scale(1.23394)"><path
               d="M 3967.7,-3500.24 89.6805,806.739 -11.5357,6605.52 3719.02,11051.4 9455.28,11960 14384,8880.16 16084.4,3318.43 13717.2,-1998.33 8438.89,-4459.64 2836.65,-2853.22 -339.722,2037.95 472.509,7817.27 4880.14,11648.8 H 10724.3 L 15138.1,7811.96 15952.6,2016.6 12763,-2894.96 7129.58,-4510.31 1814.57,-2031.88 -572.371,3329.27 1144.6,8945.23 6128.25,12059.4 11936.5,11139.4 15719.1,6631.47 15616.4,743.605 11673.3,-3635.61 5820.39,-4354.25 928.313,-1054.5 -600.004,4649.25 1990.34,9960.24 7433.34,12270.7 13060.8,10442.2 16110.5,5366.74 15081.6,-468.457 10473.7,-4199.86 4543.97,-3992.79 201.657,56.4789 -419.392,5965.35 2990.79,10835.6 8763.58,12274.9 14068.2,9572.04 16300,4048.24 14359.1,-1588.63"
               style="fill:none;stroke:#ff00ff;stroke-width:8.10009;stroke-linecap:round;stroke-linejoin:round;stroke-miterlimit:10;stroke-dasharray:none;stroke-opacity:1"
               id="path118" /></g><g
             id="g120"
             transform="scale(1.24529)"><path
               d="M 14228.2,-1574.14 9108.8,-4529.81 3302.15,-3401.11 -342.167,1263.4 -32.1649,7178.65 4085.34,11442.4 9994.16,11959.4 14796,8470.66 16132.1,2683.47 13341.8,-2564.26 7789.39,-4695.64 2196.85,-2660.12 -690.417,2548.65 548.629,8377.9 5311.29,11966.8 11264.3,11550.6 15486.8,7328.05 15903.6,1367.07 12305,-3408.41 6452.21,-4652.46 1215.36,-1749.63 -833.885,3880.62 1314.74,9478 6612.09,12294.6 12461.8,10944.1 15993,6083.84 15469.1,95.0644 11141.8,-4083.77 5130.36,-4398.81 383.623,-690.26 -766.516,5226.7 2249.34,10450.3 7956.24,12415.4 13556.2,10152.8 16300,4767.81 14836.9,-1100.32 9879.58,-4571.48 l -6022.62,633 -4132.78,4431.87 -211.626,6060.13 3818.616,4715.58 5979.6,1054.4 5208.03,-3129.32"
               style="fill:none;stroke:#ff00ff;stroke-width:8.02624;stroke-linecap:round;stroke-linejoin:round;stroke-miterlimit:10;stroke-dasharray:none;stroke-opacity:1"
               id="path122" /></g><g
             id="g124"
             transform="scale(1.2681)"><path
               d="m 14257.6,9028.78 1845,-5678.29 -2334.4,-5499.5 L 8394.87,-4769.76 2616.39,-3221.42 -731.093,1741.42 -1.06889,7686.97 4453.45,11697.8 10450.6,11802.5 15048.4,7944.49 15988,2012.47 12803.2,-3084.23 7052.14,-4842.5 1554.62,-2394.85 -990.277,3062.69 670.622,8854.94 5727.48,12138.9 l 5974.82,-839.7 3961,-4556.56 V 701.204 L 11697.1,-3861.3 5706.7,-4703.2 630.01,-1406.36 -1039.58,4416.19 1521.97,9909.46 7062.7,12376.3 12866.5,10601.9 16084.7,5451.77 15134.1,-550.32 10475.9,-4459.01 4392.02,-4352.82 -132.789,-278.664 -875.298,5768.59 2533.88,10822.9 8426.56,12401.8 13913.2,9725.81 16300,4102.97 14411.2,-1710.24 9168.47,-4860.37 3141.19,-3797.6 -712.891,961.792 -499.023,7086.2 3683.04,11570.9"
               style="fill:none;stroke:#ff00ff;stroke-width:7.88185;stroke-linecap:round;stroke-linejoin:round;stroke-miterlimit:10;stroke-dasharray:none;stroke-opacity:1"
               id="path126" /></g><g
             id="g128"
             transform="scale(1.28773)"><path
               d="m 3626.91,11394.6 6009.4,631.6 L 14589.2,8558.12 16052.9,2687.57 13304.4,-2706.71 7687.48,-4976.09 1955.84,-3002.52 -1077.05,2250.6 81.0929,8208.75 4867.11,11948 10936.2,11629.9 15310.7,7405.5 15841.1,1343.46 12262,-3582.7 6325.24,-4953.31 942.059,-2091.02 -1244.24,3604.48 843.654,9340.93 6186.25,12302.4 12165,11031.5 15845.9,6146.9 15419,41.6886 11088.6,-4288.63 4975.69,-4716.09 78.645,-1025.91 -1197.03,4975.66 1779.47,10345.4 7552.38,12446.6 13291.4,10243.6 16179.2,4812.43 14794.6,-1184.86 9811.9,-4804.99 3672.55,-4267.87 -611.196,168.077 -934.136,6330.19 2867.23,11195.7 8932.05,12374.6 14286,9283.5 16300,3434.43 13981.2,-2304.81 8462.43,-5116.76 2448.79,-3617.39 -1108.31,1462.67"
               style="fill:none;stroke:#ff00ff;stroke-width:7.76172;stroke-linecap:round;stroke-linejoin:round;stroke-miterlimit:10;stroke-dasharray:none;stroke-opacity:1"
               id="path130" /></g><g
             id="g132"
             transform="scale(1.30389)"><path
               d="M -1094.57,1444.55 -453.961,7539.58 4031.02,11721.9 10163.5,11936 14935.3,8071.95 16002.2,2021.36 12835.9,-3248.31 6985.33,-5149.26 1319.23,-2744.14 -1380.81,2791.77 214.311,8744.87 5326.93,12193.4 11451.7,11441.3 15583.3,6852.73 15691.1,675.238 11717.3,-4060.65 5607.32,-5028.37 357.965,-1748.21 -1452.92,4174.92 1067.87,9836.7 6688.27,12457.5 12653.2,10747.1 16034.9,5539.75 15170.2,-612.709 10478.3,-4691.27 H 4257.76 L -439.875,-607.679 -1306.68,5559.96 2087.56,10786.6 8081.91,12505.5 13737,9868.45 16276.5,4164.65 14450,-1809.78 9148.61,-5122.44 2970.54,-4143.93 -1052.62,650.675 -943.316,6912.47 3249.85,11569.5 9473.52,12333.6 14675.1,8825.11 16300,2760.95 13546.2,-2885.2 7760.13,-5341.24"
               style="fill:none;stroke:#ff00ff;stroke-width:7.66555;stroke-linecap:round;stroke-linejoin:round;stroke-miterlimit:10;stroke-dasharray:none;stroke-opacity:1"
               id="path134" /></g><g
             id="g136"
             transform="scale(1.32253)"><path
               d="M 7650.72,-5265.93 1753.31,-3349.75 -1442.34,1968.7 -364.252,8082.85 4463.57,11992.3 10675.8,11775.4 15224.7,7533.51 15875.2,1344.02 12303.4,-3757.13 6257.31,-5264.58 701.959,-2433.99 -1635.1,3350.43 397.252,9252.81 5806.66,12375.9 11941.9,11183.4 15792.1,6255.3 15464.6,6.28825 11115.1,-4497.76 4873.78,-5043.8 -197.883,-1359.03 -1608.93,4752.91 1337.69,10294.7 7200.82,12545.4 13105.9,10396.1 16154.3,4896.64 14846.2,-1257.47 9818.47,-5046.12 3534.66,-4606.71 -922.181,-149.869 -1362.12,6141.48 2435.63,11181.3 8611.92,12494.1 14137.8,9431.02 16300,3490.45 14033.1,-2415.01 8444.59,-5386.48 2273.75,-3961.83 -1451.01,1164.87 -898.383,7481.46 3665.47,11888.7 10005,12221 15010.5,8310.25 16223.3,2071.18"
               style="fill:none;stroke:#ff00ff;stroke-width:7.55747;stroke-linecap:round;stroke-linejoin:round;stroke-miterlimit:10;stroke-dasharray:none;stroke-opacity:1"
               id="path138" /></g><g
             id="g140"
             transform="scale(1.33946)"><path
               d="M 16018.2,2045.01 12878.6,-3392.97 6937.96,-5438.5 1109.04,-3083.47 -1746.76,2521.35 -224.061,8628.54 4934.86,12240.9 11202,11582.2 15502.2,6970.72 15722.4,665.481 11749.6,-4240.49 5529.03,-5337.35 111.492,-2082.17 -1842.73,3932.32 629.71,9757.03 6320.39,12532.6 12439.7,10892.9 15984.4,5637.68 15211.4,-657.701 10495.1,-4904.27 4145.99,-5015.09 -721.34,-930.913 -1715.89,5348.4 1655.1,10743.1 7742.02,12604.1 13560.2,10013.6 16253.3,4238.19 14495.8,-1891.04 9145.1,-5365.82 2823.53,-4477.38 -1367,343.27 V 6734.43 L 2828.42,11560.7 9164.78,12451.2 14534.2,8964.26 16300,2806.34 13591.1,-3002.93 7732.03,-5611.55 1595.15,-3735.32 -1807.46,1710 -802.412,8055.65 4122.08,12187.8 10553.3,12075.5"
               style="fill:none;stroke:#ff00ff;stroke-width:7.46195;stroke-linecap:round;stroke-linejoin:round;stroke-miterlimit:10;stroke-dasharray:none;stroke-opacity:1"
               id="path142" /></g><g
             id="g144"
             transform="scale(1.35712)"><path
               d="M 10416,11918.4 15136.6,7667.95 15911.2,1359.46 12354.9,-3912.84 6208.53,-5559.77 485.987,-2768.7 -2003.2,3095.47 -33.4434,9157.77 5433.53,12442.7 11718.2,11334.5 15736.6,6372.17 15513.7,-12.9496 11153.9,-4688.27 4792.53,-5356.87 -450.085,-1685.95 -1999.29,4527.57 909.617,10236.6 6853.89,12638.3 12919.2,10549.8 16128.4,4991.26 14903,-1312.9 9839.39,-5269.04 3418.69,-4932.54 -1208.97,-463.665 -1769.98,5948.72 2015.69,11159.2 8294.77,12608.9 13987.9,9581.77 16300,3558.67 14092.2,-2507.32 8443.01,-5638.69 2121.58,-4295.03 -1769.96,869.217 -1318.63,7323.48 3258.97,11901.1 9720.58,12352.9 14896.6,8452.51 16244.8,2109.47 13099.2,-3565.44 6998.59,-5785.88 934.244,-3457.99 -2117.08,2280.71 -654.185,8617.2"
               style="fill:none;stroke:#ff00ff;stroke-width:7.36485;stroke-linecap:round;stroke-linejoin:round;stroke-miterlimit:10;stroke-dasharray:none;stroke-opacity:1"
               id="path146" /></g><g
             id="g148"
             transform="scale(1.3749)"><path
               d="M -645.724,8505.75 4550.34,12280.9 10952.2,11720.8 15418.8,7095.49 15755.5,670.715 11792.4,-4401.89 5469.87,-5630.87 -111.235,-2408.62 -2210.54,3688.22 206.335,9670.19 5958.14,12600.9 12225.3,11038.3 15932.2,5744.39 15256.2,-686.5 10524.4,-5098.99 4054.79,-5324.91 -978.949,-1248.67 -2104.33,5133.72 1235.42,10692 7405.99,12696.9 13381.7,10160.4 16229.1,4322.4 14547,-1955.18 9156.05,-5591.41 2698.25,-4798.5 -1657.74,39.3209 -1771.41,6551.89 2417.76,11544.4 8858.31,12564.4 14391.4,9107 16300,2864.14 13643.3,-3102.9 7720.25,-5864.86 l -6285.7,1802.39 -3563.38,5487.12 911.07,6482.57 4943.28,4297.08 h 6553.58 l 4948.7,-4301.85 913.1,-6496.97 -3575.2,-5505.41 -6313.68,-1810.4 -5956.002,2777.32"
               style="fill:none;stroke:#ff00ff;stroke-width:7.2696;stroke-linecap:round;stroke-linejoin:round;stroke-miterlimit:10;stroke-dasharray:none;stroke-opacity:1"
               id="path150" /></g><g
             id="g152"
             transform="scale(1.39147)"><path
               d="M 292.494,-3095.71 -2350.11,2839.67 -449.495,9056.29 5066.43,12503 11494.2,11485 15679.6,6496.91 15565.9,-17.1329 11204.1,-4861.42 4730.52,-5656.28 -679.625,-2007.09 -2369.56,4299.83 494.318,10171.7 l 6016.962,2554 6220.12,-2021 3370.3,-5609.14 -1137,-6447.89 L 9873.67,-5474.98 3323.11,-5246.23 -1473.2,-773.587 -2159.09,5752.19 1606.62,11130.2 7980.41,12719.4 13836.6,9735.5 16300,3638.25 14157.9,-2582.96 8456.58,-5874.6 1990.73,-4617.77 -2066.76,575.584 -1721.66,7160.6 2861.45,11906.5 9437.57,12481.9 14781,8599.66 16267.6,2160.62 13163.4,-3677.44 6987.21,-6048.26 767.201,-3784.36 -2443.59,2008.06 l 1377.7,6481.57 5294.93,3989.97 6617.36,-462.7 4693.2,-4693.16 463.2,-6624.571 -3998.6,-5306.399"
               style="fill:none;stroke:#ff00ff;stroke-width:7.18306;stroke-linecap:round;stroke-linejoin:round;stroke-miterlimit:10;stroke-dasharray:none;stroke-opacity:1"
               id="path154" /></g><g
             id="g156"
             transform="scale(1.41018)"><path
               d="M 11844.9,-4546.09 5428.53,-5909.93 -311.817,-2728.01 -2557.8,3442.76 -203.196,9576.71 5601.2,12663 12010.1,11183.4 15878.2,5859.24 15304.4,-700.221 10565.3,-5276.67 3982.74,-5621.65 -1214.3,-1561.27 -2473.39,4916.19 827.726,10633.9 7073.61,12784.5 13201.7,10308.6 16203.8,4416.51 14603.2,-2003.36 9180.45,-5800.41 2593.23,-5108.07 -1926.4,-261.353 -2157.81,6365.19 2017.19,11520.9 8554.02,12673.5 14246.7,9253.02 16300,2933.48 13702.3,-3186.32 7723.66,-6102.3 1295.04,-4379.76 -2428.59,1140.75 -1616.64,7753.57 3337.18,12214 10005.7,12330.4 15117.6,8041.02 16162.1,1446.56 12622.1,-4218.57 6230.43,-6172.71 121.292,-3452.74 -2706.38,2611.21 -861.154,9046.26 4756.19,12694.2 11392.4,11761.5 15791.3,6701.21"
               style="fill:none;stroke:#ff00ff;stroke-width:7.08775;stroke-linecap:round;stroke-linejoin:round;stroke-miterlimit:10;stroke-dasharray:none;stroke-opacity:1"
               id="path158" /></g><g
             id="g160"
             transform="scale(1.42554)"><path
               d="M 15621.2,6629.02 V -7.26151 L 11265.1,-5018.37 4686.47,-5942.94 -888.007,-2322.83 -2721.08,4069.85 90.9443,10100.2 6172.7,12808 12542.5,10860.6 16074,5208.92 15031,-1376.82 9920.41,-5665.08 3246.58,-5548.58 -1716.39,-1079.9 -2530.71,5552.15 1207.7,11094.6 7668.65,12825.8 13683.7,9892.03 16300,3728.44 14229.8,-2643.05 8484.28,-6095.29 1879.77,-4930.74 -2342.91,283.835 l 234.3,6709.315 4580.92,4912.45 6683.6,702.5 5507.89,-3856.72 1627.5,-6527.6 -3055.7,-5997.3 L 6991.49,-6296.29 620.643,-4102.63 -2750.08,1735.64 -1463.09,8356.67 3854.78,12511.4 10597.5,12158.1 15457,7465.33 16046.1,732.065 12071.2,-4738.9 5478.59,-6260.92 -498.524,-3082.83 -2925.75,3240.31 -608.049,9608.15 5321.88,12895.2"
               style="fill:none;stroke:#ff00ff;stroke-width:7.01139;stroke-linecap:round;stroke-linejoin:round;stroke-miterlimit:10;stroke-dasharray:none;stroke-opacity:1"
               id="path162" /></g><g
             id="g164"
             transform="scale(1.44526)"><path
               d="M 5249.26,12719.2 11794,11328.1 15822.8,5981.67 15355.6,-699.877 10617,-5438.43 3928.57,-5906.13 -1428.87,-1869.01 -2824.31,4696.02 431.267,10569.2 6744.7,12867.1 13020.3,10458.2 16177.7,4519.86 14664,-2036.66 9217.38,-5993.89 2507.11,-5406.82 -2174.44,-558.928 -2527.33,6174.65 1626.09,11490.8 8251.81,12778.7 14100.2,9402.1 16300,3013.56 13767.6,-3254.3 7741.24,-6324.89 1175.22,-4687.8 -2708.17,858.25 -2000.1,7595.08 2956.58,12217.3 9733.3,12453.9 15005.7,8184.4 16184.4,1499.75 12686.6,-4321.47 6224.52,-6421.14 -33.2093,-3764.9 -3014.84,2348.34 -1253.56,8921.53 4390.96,12728.8 11152.2,11898.6 15712.6,6833.78 15831.6,15.9222 11446.3,-5210.3 4704.49,-6278.09 -1087.06,-2659.13 -3084.75,3875.03"
               style="fill:none;stroke:#ff00ff;stroke-width:6.91571;stroke-linecap:round;stroke-linejoin:round;stroke-miterlimit:10;stroke-dasharray:none;stroke-opacity:1"
               id="path166" /></g><g
             id="g168"
             transform="scale(1.46074)"><path
               d="M -3052.05,3833.95 -301,10012.9 5832.11,12872.8 12340.4,11006.6 16029.8,5325.47 15086.5,-1385.97 9968.97,-5834.58 H 3184.73 l -5122.71,4453.1 -945.14,6724.99 3700.557,5698.39 6534.583,1873.7 6164.08,-2874.3 2767.8,-6216.51 -1990.5,-6510.7 -5776.61,-3609.6 -6731.13,1066.1 L -2597.16,-6.17194 -2478.1,6814.66 2088.92,11886.8 8866.73,12719.1 14530.8,8898.57 16300,2295.93 13302,-3850.9 7003.53,-6524.44 492.766,-4408.97 -3034.85,1461.98 -1844.9,8210.53 3483.27,12525.2 10338.6,12285.8 15357.8,7605.31 16075.6,776.578 12135.2,-4850.81 5466.19,-6513.58 -660.913,-3391.67 -3238.22,2987.39 -997.185,9495.82 4967.02,12939.3 11730.7,11624.5 15974.9,6192.21 15614,-695.479 10820.4,-5659.33 3942.71,-6261.05"
               style="fill:none;stroke:#ff00ff;stroke-width:6.8424;stroke-linecap:round;stroke-linejoin:round;stroke-miterlimit:10;stroke-dasharray:none;stroke-opacity:1"
               id="path170" /></g><g
             id="g172"
             transform="scale(1.48011)"><path
               d="M 3891.13,-6179.13 -1623.96,-2172.18 -3158.22,4473.41 45.3514,10498.5 6419.05,12945.1 12837.7,10608.9 16150.8,4631.84 14729.2,-2056.04 9266.05,-6172.85 2438.68,-5695.43 -2403.17,-853.581 -2881.06,5980.52 1243.88,11454.5 7951.57,12880.3 13952.3,9554.03 16300,3103.7 13838.8,-3307.83 7772.07,-6533.59 1073.83,-4987.18 -2968.84,577.079 -2369.11,7432.07 2583.23,12214.5 9461.72,12575 14892.1,8332.26 16207.7,1564.25 12758.7,-4409.65 6233.25,-6656.54 -168.785,-4069.95 -3305.04,2085.3 -1632.98,8791.56 4031.41,12757.8 10911.8,12034.7 15632.4,6972.44 15874.1,51.585 11513.9,-5332.83 4687.37,-6536.53 -1257.26,-2964.64 -3401.4,3634.34 -688.961,10024.4 5553.46,13069.1 12265.4,11270.6 16153,5507.08 15305.3,-1396.53"
               style="fill:none;stroke:#ff00ff;stroke-width:6.75288;stroke-linecap:round;stroke-linejoin:round;stroke-miterlimit:10;stroke-dasharray:none;stroke-opacity:1"
               id="path174" /></g><g
             id="g176"
             transform="scale(1.49656)"><path
               d="M 15137.1,-1381.18 10022.5,-5986.37 3137.85,-6106.54 -2139.46,-1678.36 -3217.66,5129.15 436.509,10977 7034.1,12994.1 13339.7,10186.7 16258.2,3927.96 14353.8,-2713.46 8556.6,-6478.22 1708.16,-5515.74 -2831.16,-293.841 V 6628.58 l 4543.7,5226.92 6861.67,964.4 L 14388.2,9044.18 16300,2377.09 13367.4,-3911.89 7025.15,-6735.64 382.857,-4704.89 -3299.62,1188.31 -2212.02,8055.19 3116.45,12526.3 10074.5,12404.8 15248.7,7746.03 16097.6,832.122 12200.5,-4945.58 5465.56,-6750.2 -804.29,-3692.19 -3531.28,2732.19 -1373.56,9372.97 4614.5,12971 l 6883,-1213.7 4400.6,-5434.24 -244.2,-6991.622 -4773.4,-5118.908 -6964.24,-731.97 -5738.9,4018.42 -1695.69,6801.04 3183.646,6248.28 6505.054,2628.2 6636.83,-2285.3"
               style="fill:none;stroke:#ff00ff;stroke-width:6.67865;stroke-linecap:round;stroke-linejoin:round;stroke-miterlimit:10;stroke-dasharray:none;stroke-opacity:1"
               id="path178" /></g><g
             id="g180"
             transform="scale(1.5147)"><path
               d="m 12653.8,10760.8 3469.3,-6008.91 -1324.6,-6814.25 -5472.79,-4275.83 -6938.87,363.65 -5000.63,4829.05 -606.17,6928.53 4089.981,5629.36 6783.169,1566 L 13802.8,9708.62 16300,3203.25 13915.6,-3347.81 7815.32,-6729.25 989.717,-5278.43 -3211.79,297.158 -2724.56,7264.83 2216.7,12206.1 9190.95,12693.8 14777.1,8484.33 16232,1639.36 12837.8,-4484.02 6255.72,-6879.69 -286.616,-4368.32 -3578.12,1822.09 -2000.23,8656.7 3677.2,12781.6 10671.5,12169.7 15550.9,7116.83 15918.7,98.8774 11590.1,-5441.53 4685.15,-6783.72 -1409.48,-3264.98 -3701.74,3392.21 -1062.98,9923.36 5216.28,13122.8 12057.5,11417.1 16103.5,5638.82 15365.8,-1379.8 10202,-6195.1 3142.48,-6441.62 -2349.75,-1994.11 -3577.52,4968.95 65.7412,11032.4"
               style="fill:none;stroke:#ff00ff;stroke-width:6.59867;stroke-linecap:round;stroke-linejoin:round;stroke-miterlimit:10;stroke-dasharray:none;stroke-opacity:1"
               id="path182" /></g><g
             id="g184"
             transform="scale(1.53219)"><path
               d="m 64.9905,10906.4 6653.8395,2162 6443.07,-2735 3069.9,-6294.05 -1813.3,-6767.32 -5811.03,-3919.56 -6960.3,854.62 -4694.51,5213.78 -122.5,7018.03 4513.88,5379.4 6939.13,1099.1 L 14244,9192.65 16300,2467.77 13438.4,-3959.39 7059.24,-6934.06 290.104,-4993.04 -3546.98,915.553 l 980.95,6979.857 5322,4626.39 H 9810.95 L 15137.9,7891.13 16120.6,898.354 12272.9,-5026.65 5478.67,-6974.86 -930.087,-3986.41 -3807.57,2476.51 -1738.21,9245.05 4266.87,12997.4 11264,11889.2 15819.8,6459.8 15696,-629.974 10949.2,-5901.93 l -7044.52,-864.95 -5886.69,3970.62 -1838.63,6861.85 3115.577,6387.91 6545.183,2778.2 6765.48,-2198.2 3665.5,-6100.44 -1236.4,-7012.04 -5535.95,-4482.94 -7122.4,248.72 -5214.54,4862.64"
               style="fill:none;stroke:#ff00ff;stroke-width:6.52333;stroke-linecap:round;stroke-linejoin:round;stroke-miterlimit:10;stroke-dasharray:none;stroke-opacity:1"
               id="path186" /></g><g
             id="g188"
             transform="scale(1.55843)"><path
               d="M -2790.41,-1426.13 -3523.48,5548.6 500.939,11296.1 7312,12994.3 13569.3,9805.98 16201.3,3291.61 13912.8,-3354.62 7822.6,-6870.82 916.262,-5528.36 -3417.26,18.2926 -3048.71,7050.66 1845.31,12118.6 8866.92,12732.9 14571.8,8588.03 16158.8,1714 12845.3,-4517.88 6253,-7048.41 -385.421,-4632.22 -3811.89,1549.3 -2341.78,8465.66 3307.84,12723 10367.9,12229.3 15374.6,7222.59 15868.7,156.146 11603.7,-5503.71 4668.5,-6977.83 -1535.46,-3538.92 -3962.62,3129.64 -1418.3,9757.82 4853.23,13092.4 11777.2,11493.9 15956,5742.32 15336.1,-1343.18 10217.5,-6286.21 3108.24,-6658.79 -2504.12,-2273.93 -3863.7,4720.54 -299.404,10894.1 6443.85,13216 13059.3,10543.2 16300,4182.96 14572.3,-2746.34 8719.79,-6844.33"
               style="fill:none;stroke:#ff00ff;stroke-width:6.41349;stroke-linecap:round;stroke-linejoin:round;stroke-miterlimit:10;stroke-dasharray:none;stroke-opacity:1"
               id="path190" /></g><g
             id="g192"
             transform="scale(1.58297)"><path
               d="M 8584.62,-6738.23 1586.14,-6002.66 -3215.26,-853.789 -3461.07,6185.27 973.439,11661.4 7916,12885.6 13961.4,9253.12 16141.9,2542.49 13383.6,-3955.48 7036.1,-7051.38 211.395,-5222.71 -3741.32,637.431 -2879.49,7656.48 2378.2,12390.5 9455.2,12514.1 14879.7,7962.33 15988,965.157 12232.2,-5045.43 5451.28,-7118.55 -1029.28,-4233.21 -4028.61,2198.87 -2071.54,9024 3885.82,12892.8 10923.1,11903.7 15587.5,6538 V -574.804 L 10919,-5945.29 l -7049.83,-990.79 -5973.24,3879.07 -1964.04,6849.41 3012.67,6460.7 6515.18,2900.7 6823.16,-2086 3782.6,-6053.43 -1117.2,-7053.3 -5472.87,-4592.31 -7146.44,124.74 -5314,4784.75 -871.83,7100.52 L 145.306,11312.2 7061.49,13165.4 13499.8,10025.2 16300,3428.41"
               style="fill:none;stroke:#ff00ff;stroke-width:6.31407;stroke-linecap:round;stroke-linejoin:round;stroke-miterlimit:10;stroke-dasharray:none;stroke-opacity:1"
               id="path194" /></g><g
             id="g196"
             transform="scale(1.59066)"><path
               d="M 16221.3,3411.85 14016.4,-3373.94 7897.85,-7050.35 865.057,-5810.28 -3631.08,-258.018 l 249.45,7143.208 4876.77,5229.71 7114.66,747.8 5862.7,-4105.11 1732.2,-6947.45 -3252.1,-6382.52 -6644.59,-2684.59 -6778.947,2334.18 -3586.353,6211.74 1369.22,7044 5657.11,4419.85 7172.26,-375.9 L 15310,7385.59 15936.5,224.532 11709.4,-5593.56 4699.11,-7212.01 -1656.2,-3832.83 -4236.8,2889.86 -1772.85,9659.52 4530.76,13153.7 11583.6,11654.5 15924.8,5893.55 15421.4,-1305.56 10316.2,-6410.75 3110.84,-6914.6 -2660.18,-2565.81 -4163.23,4505.46 -656.893,10831.1 6142.29,13305.8 12900.2,10711.6 16300,4317.5 14670.2,-2741.78 8806.4,-7002.1 l -7223.65,631.99 -5039.32,5218.36 -379.83,7247.58 4470.113,5721.47 7130.357,1386"
               style="fill:none;stroke:#ff00ff;stroke-width:6.28357;stroke-linecap:round;stroke-linejoin:round;stroke-miterlimit:10;stroke-dasharray:none;stroke-opacity:1"
               id="path198" /></g><g
             id="g200"
             transform="scale(1.61659)"><path
               d="M 7639.51,12991.5 13831.9,9416.31 16160.8,2652.59 13480,-3982.85 7100.67,-7233.26 150.698,-5500.44 -3959.45,369.46 l 749.36,7129.64 5245.27,4891.3 7170.73,250.4 5578.49,-4517.37 1247,-7072.18 -3700.2,-6158.21 -6835.68,-2221.05 -6618.95,2809.57 -3153.48,6465.61 1862.65,6951.51 5968.93,4026.12 7149.23,-877.8 4821.8,-5355.15 125.8,-7208.007 -4635.9,-5524.863 -7126.48,-1128.72 -6121.54,3825.16 -2111.35,6905.93 2938.5,6599.95 6550.47,3054.5 6950.6,-1993 3939.9,-6066.82 -1007.2,-7166.5 -5464.13,-4749.87 H 2321.26 L -3147.51,-2006.46 -4156.42,5172.28 -206.489,11254.6 6767.92,13254.5 13346.4,10186.9 16300,3553.07 14176,-3394.25 8012.51,-7245.62 831.099,-6108.19 -3844.55,-535.968 l 127,7276.008"
               style="fill:none;stroke:#ff00ff;stroke-width:6.18277;stroke-linecap:round;stroke-linejoin:round;stroke-miterlimit:10;stroke-dasharray:none;stroke-opacity:1"
               id="path202" /></g><g
             id="g204"
             transform="scale(1.63769)"><path
               d="m -3669.66,6653.21 4808.65,5340.59 7135.88,876.1 5962.83,-4021.97 1862.4,-6950.39 -3155.7,-6470.08 -6629.15,-2813.92 -6852.104,2226.38 -3712.276,6178.27 1252.14,7101.29 5606.24,4539.82 7212.54,-251.8 5280.41,-4924.06 755,-7183.474 -4144.7,-5919.266 -7014.45,-1748.88 -6443.93,3283.34 -2710.37,6708.4 2356.56,6843.94 6271.19,3620.7 7111.3,-1382.3 4462,-5711.09 -379.5,-7240.56 -5038.7,-5217.77 -7229.02,-632.46 -5873.19,4267.12 L -4409.36,4247.71 -998.294,10663 5787.72,13267.9 12621,10780.8 16148,4417.99 14634.8,-2700.93 8819.93,-7082.75 1553.61,-6574.65 -3599.16,-1421.87 -4107.7,5850.54 281.473,11675.2 7418.31,13192.1 13802.4,9653.36 16300,2791.37 13682,-4028.83 7228.96,-7459.96 104.826,-5815.22"
               style="fill:none;stroke:#ff00ff;stroke-width:6.10312;stroke-linecap:round;stroke-linejoin:round;stroke-miterlimit:10;stroke-dasharray:none;stroke-opacity:1"
               id="path206" /></g><g
             id="g208"
             transform="scale(1.65366)"><path
               d="m 103.813,-5759.06 -4257.883,5860.473 631.62,7219.387 5215.2,5036.3 7243.07,379.6 5717.78,-4467.3 1385.1,-7125.68 -3631,-6289.14 -6869.28,-2365.29 -6738.88,2722.69 -3301.03,6478.63 1759.78,7058.09 5961.12,4174 7240.29,-761 4967.2,-5326.58 254.3,-7281.817 -4587.3,-5664.823 -7181.53,-1266.3 -6253.31,3757.37 -2255.31,6941.13 2852.87,6720.92 6565.14,3202.1 7058.44,-1891.3 4087.9,-6060.66 -891.3,-7258.94 -5437.17,-4895.68 -7318.38,-127.74 -5609.38,4706.82 -1145.96,7235.35 3883.545,6214.95 7011.225,2143.6 6700.52,-2983.3 3101,-6650.13 L 14238.8,-3379.62 8079.91,-7379.27 804.717,-6356.8 -4017.13,-809.902 V 6542.84 L 808.683,12094.3 8095.85,13118.4 14270,9108.92 16300,2029.39 13186.2,-4648.15"
               style="fill:none;stroke:#ff00ff;stroke-width:6.04417;stroke-linecap:round;stroke-linejoin:round;stroke-miterlimit:10;stroke-dasharray:none;stroke-opacity:1"
               id="path210" /></g><g
             id="g212"
             transform="scale(1.67228)"><path
               d="M 13039.4,-4596.39 6380.74,-7561.02 -592.43,-5429.1 -4458.07,757.219 -3316.45,7965.14 2276.25,12658 9578.88,12530.5 15008.8,7641.35 15899.7,386.113 11810.5,-5676.4 4744.04,-7569.84 l -6578,3208.3 -2860.8,6739.64 2263.44,6966.17 6281.03,3774.03 7219.29,-1273 4615.2,-5699.27 -256.1,-7332.14 -5005.6,-5367.85 -7302.33,-767.51 -6017.15,4213.25 -1777.78,7130.29 3337.54,6550.33 6819.02,2755 6956.7,-2395.4 3680.2,-6374.36 -1405,-7228.23 -5804.86,-4535.27 -7359.39,385.69 -5303.32,5121.36 -642.81,7347.4 L -59.7379,11617.9 7132.52,13278.3 13652.6,9811.56 16300,2914.81 13772.3,-4029.9 7305.92,-7614.29 71.1651,-6076.49 -4381.89,-167.093 l 516.36,7384.333 5236.38,5236.36 7390.29,516.8 5918.96,-4460.26"
               style="fill:none;stroke:#ff00ff;stroke-width:5.97688;stroke-linecap:round;stroke-linejoin:round;stroke-miterlimit:10;stroke-dasharray:none;stroke-opacity:1"
               id="path214" /></g><g
             id="g216"
             transform="scale(1.68948)"><path
               d="M 14530.6,8423.48 16056.4,1245.04 12497.1,-5176.21 5595.27,-7688.26 -1264.38,-5055.08 -4715.3,1435.15 -3061.1,8600.27 2890.48,12924.3 10222,12282.9 15336.4,6986.8 15721.9,-368.532 11185.4,-6174.9 3949.52,-7581.42 l -6386.33,3687.15 -2401.8,6975.34 2764.67,6842.82 6578.46,3351.91 7166.78,-1786.9 4238.2,-6052.78 -772.7,-7351.55 -5408.38,-5043.39 -7393.46,-258.18 -5751.6,4657.55 -1285.67,7291.4 3814.805,6348.95 7047.135,2289.7 6823.47,-2896.4 3250.8,-6665.19 -1920,-7165.89 L 8161.04,-7507 791.796,-6602.17 -4178.2,-1082.43 -4307.88,6346.95 470.255,12041.3 7815.12,13204.6 14124.1,9262.35 16300,2145.21 13271.7,-4656.41 6521.32,-7804.17 -641.248,-5750.34 -4701.08,501.251 -3663.25,7885.81 1966.95,12780.1"
               style="fill:none;stroke:#ff00ff;stroke-width:5.91601;stroke-linecap:round;stroke-linejoin:round;stroke-miterlimit:10;stroke-dasharray:none;stroke-opacity:1"
               id="path218" /></g><g
             id="g220"
             transform="scale(1.70653)"><path
               d="M 1947.3,12652.4 H 9335.81 L 14914.2,7803.21 15943.3,480.801 11914.4,-5723.09 4800.89,-7762.87 l -6709.53,3128.71 -3012.32,6765.79 2166.18,7085.27 6285.68,3927.7 7323.6,-1159.9 4768,-5682.37 -129.5,-7419.6 -4967.4,-5516.84 -7371.18,-905.07 -6159.34,4154.52 -1923.66,7179.18 3259.45,6682.88 6846.98,2906.4 7077.05,-2299.5 3834,-6380.89 -1293.2,-7333.94 -5789.72,-4688.44 -7448.39,260.11 -5452.87,5084.88 -779.66,7417.93 L -395.073,11556.2 6847.84,13362.1 13501.5,9971.89 16300,3045.36 13866.9,-4020.91 7392.17,-7759.09 50.2963,-6331.98 -4556.22,-435.909 l 391.74,7474.889 5201.66,5386.52 7462.5,652.8 6062.72,-4404.79 1686.4,-7304.71 -3520.9,-6621.93 -7004.41,-2688.73 -7053,2567.08 -3640.22,6567.15"
               style="fill:none;stroke:#ff00ff;stroke-width:5.85692;stroke-linecap:round;stroke-linejoin:round;stroke-miterlimit:10;stroke-dasharray:none;stroke-opacity:1"
               id="path222" /></g><g
             id="g224"
             transform="scale(1.72505)"><path
               d="M -4916.38,1179.57 -3371.42,8448.04 2565.44,12921.8 9983.98,12403 15244.5,7142.48 15763.7,-281.838 11283,-6227.95 3997.5,-7776.53 -2519.41,-4164.14 -5068.84,2840.35 -2396.52,9802 l 6586.64,3502.2 7271.48,-1678.8 4388.2,-6039.79 -651,-7440.1 -5374.46,-5190.07 -7464.06,-391.18 -5892.13,4603.43 -1427.27,7342.67 3741.5,6480.44 L 5860.44,13428 12803.9,10622.7 16205.1,3947.5 14392,-3324.46 8250.4,-7624.85 791.105,-6840.84 -4326.12,-1353.29 -4588.08,6148.32 137.532,11984 7535.38,13288.4 13976.9,9417.96 16300,2268.14 13361.4,-4654.67 6599.31,-7952.78 -670.688,-6004.79 -4881.05,237.328 -3963.1,7713.44 1636.61,12755.4 9173.5,12887 14950.2,8039.77 16130.3,588.804 12131.2,-5811.19 4911.41,-8018.49"
               style="fill:none;stroke:#ff00ff;stroke-width:5.79404;stroke-linecap:round;stroke-linejoin:round;stroke-miterlimit:10;stroke-dasharray:none;stroke-opacity:1"
               id="path226" /></g><g
             id="g228"
             transform="scale(1.74041)"><path
               d="m 4868.07,-7947.74 -6838.7,3044.79 -3164.89,6787.12 2064.98,7201.42 6285.42,4081.81 7424.42,-1043.4 4920.6,-5660.55 v -7503.12 l -4924.4,-5664.84 -7435.77,-1045.03 -6299.86,4091.18 -2071.31,7223.5 3177.02,6813.16 6870.18,3058.8 7194.44,-2199.6 3988.3,-6382.48 -1177.8,-7436.26 -5769.74,-4841.37 -7533.56,131.5 -5601.5,5043.62 -918.95,7484.24 L -724.885,11490.4 6564.18,13443.5 13349.2,10134.3 16300,3182.66 13965.4,-4002.38 7487.25,-7894.87 41.5627,-6582 -4718.25,-704.119 -4454.19,6857.56 707.964,12393.3 8238.52,13184.8 14443.5,8840 16276.7,1487.32 12835.2,-5267.09 5803.89,-8107.92 -1369.19,-5638.04 -5163.82,934.456 -3715.17,8387.1 l 5984.94,4676 7587.47,-397.7 5467.56,-5279.91 662.7,-7574.688"
               style="fill:none;stroke:#ff00ff;stroke-width:5.74291;stroke-linecap:round;stroke-linejoin:round;stroke-miterlimit:10;stroke-dasharray:none;stroke-opacity:1"
               id="path230" /></g><g
             id="g232"
             transform="scale(1.76032)"><path
               d="M 15806.6,-187.058 11386.2,-6271.22 4055.73,-7963.59 -2589.43,-4430.29 -5287.57,2598.59 -2711.54,9676.17 3878.39,13329 11251.2,11761.9 15789,5739.94 l -526.2,-7524.78 -5335.78,-5335.82 -7530.44,-526.58 -6031.02,4544.71 -1570.68,7389.42 3663.88,6609.81 7104.25,2585.7 7060.69,-2710.3 3552,-6680.27 L 14473.1,-3282.89 8347.56,-7733.33 802.007,-7073.18 -4461.57,-1622.59 -4858.28,5947.08 -189.783,11922.5 7256.58,13369.9 13828.5,9575.63 16300,2397.81 13455.1,-4643.46 6686.08,-8092.47 -688.094,-6253.88 -5048.86,-26.0562 l 795,7563.9462 5564.47,5188.91 7606.64,265.7 5917.25,-4791.76 1322.7,-7501.244 -3924.5,-6531.446 -7249.54,-2355.52 -7019.29,2979.51 -3344.04,6856.29 1975.09,7371.13 6328.87,4268.84 7579.91,-930.7"
               style="fill:none;stroke:#ff00ff;stroke-width:5.67795;stroke-linecap:round;stroke-linejoin:round;stroke-miterlimit:10;stroke-dasharray:none;stroke-opacity:1"
               id="path234" /></g><g
             id="g236"
             transform="scale(1.77446)"><path
               d="m 10420,12259.1 5071.2,-5632.09 132.3,-7580.446 -4875.2,-5810.004 -7493.79,-1186.9 -6436.73,4022.11 -2219.94,7261.1 3089.45,6939.03 6886.58,3211.2 7306.83,-2095.2 4141.5,-6377.33 -1058.7,-7532.92 -5743.11,-4992.46 H 1607.8 L -4139.61,-2518.66 -5199.87,5025.42 -1049.15,11417 6279.36,13518.4 13191.5,10295.2 16294.7,3325.33 14063.2,-3973.48 7588.25,-8019.47 44.3488,-6824.64 -4867.03,-971.485 -4733.63,6670.91 382.796,12353.3 7974.98,13285.5 14318.8,9006.53 16300,1612.54 12943.1,-5270.11 5891.62,-8263.29 -1396.59,-5895.21 -5344.92,675.918 -4013.23,8228.32 1948.82,13056.3 9618.69,12788.5 15233.6,7552.51 16036.4,-85.5915 11629.6,-6379.13 4172.06,-8238.5 l -6850.62,3490.57 -2881.26,7131.38 2505.01,7275.06"
               style="fill:none;stroke:#ff00ff;stroke-width:5.63269;stroke-linecap:round;stroke-linejoin:round;stroke-miterlimit:10;stroke-dasharray:none;stroke-opacity:1"
               id="path238" /></g><g
             id="g240"
             transform="scale(1.79527)"><path
               d="M -3019.41,9546.59 3569.2,13350.5 11040,11898.3 15727.3,5898.86 15328.7,-1706.93 10036.1,-7187.59 2443.33,-7851.87 -3725.09,-3370.25 -5440.87,4061.62 -1858.73,10798.6 5267.22,13534 12442.5,10922.5 16145.7,4241.69 14557,-3232.61 8452.13,-7832.93 823.912,-7299.51 -4585.2,-1890.4 -5119,5743.37 -511.989,11857.1 6978.65,13449.3 13678.9,9735.26 16300,2533.88 13552.6,-4623.26 6781.2,-8223.7 -694.074,-6497.9 -5205.14,-288.943 -4536,7359.31 988.707,12694.5 8661.22,13096.6 14717.7,8364.7 16184.8,817.356 12339.1,-5843.58 5064.1,-8348.56 -2072.39,-5465.23 -5568,1395.29 -3704.59,8869.02 2607.23,13288.6 10273.1,12482.9 15531.9,6843.51 15801.1,-865.453 10945,-6862.25 3343.03,-8202.69 -3276.02,-4225.55"
               style="fill:none;stroke:#ff00ff;stroke-width:5.56742;stroke-linecap:round;stroke-linejoin:round;stroke-miterlimit:10;stroke-dasharray:none;stroke-opacity:1"
               id="path242" /></g><g
             id="g244"
             transform="scale(1.81076)"><path
               d="M -3248,-4189.41 -5614.67,3094.46 -2621.09,10146.9 4267.47,13506.7 11673.2,11522.3 15962.1,5163.78 15027,-2451.54 9323.2,-7587.3 1646.34,-7721.29 -4237.48,-2784.18 -5439.45,4804.77 -1366.33,11323.1 5986.76,13571.2 13013.6,10442.7 16265.5,3468.99 14143.8,-3930.18 7685.94,-8123.96 58.0364,-7051.93 -4997.31,-1236.42 V 6471.97 L 61.6563,12291.6 7700.49,13365.2 14172.2,9162.42 16300,1742.03 13036.5,-5256.65 5979.37,-8398.67 -1410.67,-6139.31 -5507.2,416.502 -4297.45,8054.52 1628.66,13027.1 9366.23,12892.1 15119.3,7711.98 16063.1,25.4339 11731,-6397.14 4245.27,-8402.93 l -6967.94,3398.49 -3030.24,7138.8 2397.37,7378.36 6652.33,3997.08 7645.61,-1348.1 4887.6,-6035.58 -271.2,-7764.37 -5300.4,-5683.99"
               style="fill:none;stroke:#ff00ff;stroke-width:5.51979;stroke-linecap:round;stroke-linejoin:round;stroke-miterlimit:10;stroke-dasharray:none;stroke-opacity:1"
               id="path246" /></g><g
             id="g248"
             transform="scale(1.82986)"><path
               d="M 10151.3,-7245.81 2500.01,-8050 -3804.36,-3635.63 -5666.9,3834.61 -2170.41,10696.9 4972.99,13583 12260.2,11073.8 16115.2,4396.84 14643.5,-3174.05 8563.76,-7924.08 856.281,-7520.15 -4697.59,-2156.84 -5370.74,5537.29 -829.362,11788 6701.53,13526.6 13528.2,9896.78 16300,2676.05 13653.7,-4594.51 6884.26,-8346.89 -689.185,-6737.11 -5350.47,-551.384 -4809.98,7177.84 670.679,12658.5 8405.35,13199.4 14599.8,8531.52 16213,942.044 12450,-5846.54 5153.79,-8502.15 l -7251.32,2783.52 -3647.77,6860.46 1748.47,7573.47 6290.44,4570.3 7748.59,-677.9 5405,-5597.13 407.4,-7772.942 -4793.8,-6135.718 -7645.94,-1486.22 -6747.89,3895.9 -2537.65,7369.87 2920.9,7229.54 6949.84,3541.1 7570.94,-1887.7 4477,-6393.83"
               style="fill:none;stroke:#ff00ff;stroke-width:5.46218;stroke-linecap:round;stroke-linejoin:round;stroke-miterlimit:10;stroke-dasharray:none;stroke-opacity:1"
               id="path250" /></g><g
             id="g252"
             transform="scale(1.84677)"><path
               d="M 15901,5321.37 15092.3,-2372.9 9432.11,-7651.13 1694.76,-7921.32 -4324.06,-3047.38 -5669.39,4582.4 -1677.75,11225.6 5695.68,13621.4 12834.7,10591 16235.8,3617.91 14227.1,-3878.65 7790.66,-8220.07 82.1259,-7273.58 -5116.43,-1499.99 -5252.07,6270.66 -254.695,12226.3 7426.8,13442.9 14024.6,9320.18 16300,1877.59 13133.4,-5234.69 6075.02,-8526.07 -1413.95,-6378.64 -5658.59,157.519 -4573.57,7877.83 1312.33,12994.4 h 7801.6 L 15003.9,7874.28 16090.4,143.25 11837,-6406.53 l -7509.82,-2153.4 -7082.91,3302.82 -3179.8,7141.95 2286.5,7478.82 6634.49,4145.64 7729.64,-1224.2 5032.1,-5997.1 -136.6,-7830.17 -5242.1,-5821.85 -7778.32,-955.06 -6499.23,4383.78 -2029.71,7574.97 3438.97,7050.93 7223.76,3066.3"
               style="fill:none;stroke:#ff00ff;stroke-width:5.41214;stroke-linecap:round;stroke-linejoin:round;stroke-miterlimit:10;stroke-dasharray:none;stroke-opacity:1"
               id="path254" /></g><g
             id="g256"
             transform="scale(1.86406)"><path
               d="M 4680.17,13629.4 12077,11226 16084.1,4557.05 14732.6,-3107.6 8682.13,-8007.21 l -7783.5,271.8 -5697.92,5313.4 -814.66,7750.92 4471.77,6386.39 L 6425.13,13602 13376.4,10060.1 16300,2824.07 13758.3,-4557.61 6994.89,-8462.45 -673.943,-6971.78 -5485.37,-813.435 -5076.22,6993.59 356.296,12619.1 8149.62,13301 14480.8,8701.07 16241.8,1073.26 12565.3,-5841.23 5251.83,-8648.62 -2112.07,-5968.38 -5912.58,887.926 -4282.17,8558.43 1982.76,13279.4 9810.87,12732 15361.6,7181.28 15909.4,-652.185 11181.9,-6925.68 3495.71,-8559.44 l -6875.06,3810.91 -2689.41,7389.09 2818.92,7343.54 6947.62,3694.1 7669.62,-1770.6 4628.2,-6370.28 -686.5,-7846.74 -5667.93,-5473.49 -7871.27,-412.52 -6213.28,4854.34 -1504.99,7742.53"
               style="fill:none;stroke:#ff00ff;stroke-width:5.36196;stroke-linecap:round;stroke-linejoin:round;stroke-miterlimit:10;stroke-dasharray:none;stroke-opacity:1"
               id="path258" /></g><g
             id="g260"
             transform="scale(1.88248)"><path
               d="M -5890.15,4358.36 -1983.7,11124.5 5406.04,13669 12655,10740.3 16205.6,3771.83 14312.9,-3819.29 7902.05,-8308.2 116.114,-7489.86 -5224.94,-1762.28 -5498.35,6067.08 -566.498,12157.4 7153.85,13518.7 13875.8,9479.74 16300,2018.93 13233.8,-5204.64 6178.18,-8645.88 -1406.96,-6613.45 -5799.63,-101.053 -4841.97,7698.4 999.65,12958.2 8861.79,13095.5 14887.5,8039.3 16118.4,267.526 11947.3,-6407.71 4417.36,-8709.84 -2778.28,-5506.13 -6108.2,1634.91 -3935.65,9211.49 2676.91,13505.7 10487.4,12408.1 15663.6,6453.48 v -7892.54 l -5179.7,-5958.57 -7820.99,-1099.17 -6625.92,4302.92 -2178.4,7597 3341.14,7165.08 7224.74,3216.7 7565.43,-2313 4193.7,-6711.27 -1238.4,-7818.96 -6066.4,-5090.29 -7920.533,138.25"
               style="fill:none;stroke:#ff00ff;stroke-width:5.30948;stroke-linecap:round;stroke-linejoin:round;stroke-miterlimit:10;stroke-dasharray:none;stroke-opacity:1"
               id="path262" /></g><g
             id="g264"
             transform="scale(1.89784)"><path
               d="M 950.513,-7945.55 -4890.81,-2686 -5849.05,5118.29 -1450.7,11639.1 6149.37,13675.6 13223.6,10225.2 16300,2977.68 13866.2,-4512.91 7112.79,-8570.74 -648.811,-7202.16 -5610.35,-1075.17 -5335.12,6806.64 45.3311,12576.5 7893.97,13401.4 14360.8,8873.28 16271.3,1210.72 12684.8,-5828.02 5357.86,-8788.32 -2116.5,-6214.69"
               style="fill:none;stroke:#ff00ff;stroke-width:5.26651;stroke-linecap:round;stroke-linejoin:round;stroke-miterlimit:10;stroke-dasharray:none;stroke-opacity:1"
               id="path266" /></g></g></g></g></g></svg>
