<?xml version="1.0" encoding="UTF-8" standalone="no"?>
<svg
   xmlns:dc="http://purl.org/dc/elements/1.1/"
   xmlns:cc="http://creativecommons.org/ns#"
   xmlns:rdf="http://www.w3.org/1999/02/22-rdf-syntax-ns#"
   xmlns:svg="http://www.w3.org/2000/svg"
   xmlns="http://www.w3.org/2000/svg"
   xmlns:sodipodi="http://sodipodi.sourceforge.net/DTD/sodipodi-0.dtd"
   xmlns:inkscape="http://www.inkscape.org/namespaces/inkscape"
   version="1.1"
   id="svg2"
   xml:space="preserve"
   width="1276"
   height="1076"
   viewBox="0 0 1276 1076"
   sodipodi:docname="AMTurtle.eps"><metadata
     id="metadata8"><rdf:RDF><cc:Work
         rdf:about=""><dc:format>image/svg+xml</dc:format><dc:type
           rdf:resource="http://purl.org/dc/dcmitype/StillImage" /></cc:Work></rdf:RDF></metadata><defs
     id="defs6"><clipPath
       clipPathUnits="userSpaceOnUse"
       id="clipPath20"><path
         d="M 0,8068 H 9568 V 0 H 0 Z"
         id="path18" /></clipPath></defs><sodipodi:namedview
     pagecolor="#ffffff"
     bordercolor="#666666"
     borderopacity="1"
     objecttolerance="10"
     gridtolerance="10"
     guidetolerance="10"
     inkscape:pageopacity="0"
     inkscape:pageshadow="2"
     inkscape:window-width="640"
     inkscape:window-height="480"
     id="namedview4" /><g
     id="g10"
     inkscape:groupmode="layer"
     inkscape:label="ink_ext_XXXXXX"
     transform="matrix(1.3333333,0,0,-1.3333333,0,1076)"><g
       id="g12"
       transform="scale(0.1)"><g
         id="g14"><g
           id="g16"
           clip-path="url(#clipPath20)"><path
             d="M 12.3867,-17.9766 H 9587.59 V 8057.98 H 12.3867 v -8075.9566 0"
             style="fill:#000000;fill-opacity:1;fill-rule:evenodd;stroke:none"
             id="path22" /><path
             d="m 4819.98,3990.02 h 2 l 2.4,-1.81 1.1,-3.84 -1.8,-4.66 -5.08,-3.18 -6.97,0.61 -5.94,5.35 -1.72,8.83 4.38,8.98 9.8,4.99 11.81,-2.08 8.86,-9.5 1.47,-13.92 -7.73,-12.85 -14.83,-5.99 -16.41,4.4 -11.07,14.17 -0.34,18.99 11.75,16.17 20.08,6.14 20.66,-7.52 12.52,-19.28 -1.67,-23.93 -16.39,-18.86 -25.43,-5.4 -24.45,11.4 -13.14,24.72 4.53,28.62 21.57,20.83 30.76,3.78 27.69,-15.99 12.89,-30.36 -8.22,-32.98 -27.18,-22.01 -35.97,-1.26 -30.29,21.21 -11.74,36.12 12.69,36.86 33.15,22.36 40.92,-2.15 32.16,-26.98 9.67,-41.87"
             style="fill:none;stroke:#ffffff;stroke-width:9.995;stroke-linecap:round;stroke-linejoin:round;stroke-miterlimit:10;stroke-dasharray:none;stroke-opacity:1"
             id="path24" /><path
             d="m 4886.47,3978.13 -17.89,-40.18 -39.34,-21.81 -45.53,6.4 -33.21,33.22 -6.68,47.51 23.74,42.83 45.66,20.33 49.67,-11.47 33.4,-39.81 2.78,-52.9 -30.19,-44.75 -51.97,-17.89 -53.23,17.29 -32.68,46.67 2.02,57.93 37.11,45.83 58.19,14.51 56.12,-23.82 30.99,-53.67 -7.68,-62.5 -44.43,-46.01 -64.17,-10.16 -58.24,30.96 -28.31,60.7 14.13,66.48 52.06,45.24 69.79,4.89 59.51,-38.66 24.62,-67.62 -21.33,-69.78 -59.84,-43.47 -74.95,1.31 -59.86,46.77 -19.92,74.33 29.2,72.29 67.69,40.67 79.52,-8.36 59.21,-55.22 14.23,-80.71 -37.66,-73.92 -75.46,-36.8 -83.4,16.21"
             style="fill:none;stroke:#ffffff;stroke-width:9.995;stroke-linecap:round;stroke-linejoin:round;stroke-miterlimit:10;stroke-dasharray:none;stroke-opacity:1"
             id="path26" /><path
             d="m 4750.14,3870.99 -57.52,63.88 -7.58,86.62 46.61,74.59 83.05,31.88 86.47,-24.79 54.74,-72.64 v -91.96 l -55.94,-74.23 -90.31,-25.9 -88.65,34.03 -50.85,81.37 8.45,96.58 65.54,72.79 97.14,18.89 89.83,-43.82 45.83,-89.94 -17.7,-100.41 -75.29,-70.21 -103.38,-10.86 -89.96,54.05 -39.69,98.23 27.68,103.31 85.06,66.45 108.93,1.9 88.95,-64.62 32.44,-106.1 -38.29,-105.19 -94.72,-61.51 -113.67,7.94 -86.75,75.41 -24.1,113.41 49.42,105.99 104.14,55.37 117.47,-18.61 83.32,-86.28 14.74,-120.04 -60.97,-105.6 -113.17,-48.03 -120.25,29.98 -78.63,97.1 -4.39,125.86 72.8,103.98"
             style="fill:none;stroke:#ffffff;stroke-width:9.995;stroke-linecap:round;stroke-linejoin:round;stroke-miterlimit:10;stroke-dasharray:none;stroke-opacity:1"
             id="path28" /><path
             d="m 4700.94,4149.86 121.68,39.53 121.91,-41.98 72.66,-107.72 -6.85,-130.75 -84.81,-101.07 -129.53,-29.91 -122.35,54.48 -65.42,118.02 18.92,134.61 96.83,96.82 136.58,19.2 121.51,-67.36 56.92,-127.83 -31.7,-137.32 -108.73,-91.23 -142.73,-7.48 -119.32,80.49 -47.19,137.03 45.1,138.78 120.35,84.28 147.84,-5.17 115.74,-93.72 36.27,-145.47 -58.97,-138.93 -131.57,-75.96 -151.79,18.64 -110.72,106.92 -24.23,153.02 73.2,137.67 142.21,66.32 154.48,-32.84 104.26,-119.94 11.15,-159.53 -87.64,-134.96 -152.16,-55.37 -155.79,47.63 -96.35,132.61 2.87,164.89 102.15,130.75 161.23,43.2 155.69,-62.91 87,-144.78"
             style="fill:none;stroke:#ffffff;stroke-width:9.995;stroke-linecap:round;stroke-linejoin:round;stroke-miterlimit:10;stroke-dasharray:none;stroke-opacity:1"
             id="path30" /><path
             d="m 5079.64,4042.52 -17.76,-168.99 -116.56,-125 -169.31,-29.85 -154.06,78.5 -76.24,156.31 33.37,171.7 130.73,117.71 176.24,15.42 150.88,-94.28 64.11,-167.03 -49.59,-172.94 -144.48,-108.87 h -181.91 l -146.08,110.08 -50.69,176.78 66.27,172.62 157.65,98.52 186.2,-16.29 139.64,-125.73 36.05,-185.44 -83.25,-170.68 -170.1,-86.67 -188.99,33.32 -131.56,141.08 -20.27,192.84 100.39,167.07 181.63,73.38 190.19,-50.96 121.84,-155.94 3.48,-198.88 -117.5,-161.72 -192.12,-58.74 -189.73,69.06 -110.5,170.16 14.22,203.4 134.43,154.64 201.39,42.81 187.51,-87.44 97.61,-183.56 -32.68,-206.32 -150.99,-145.81 -209.32,-25.7"
             style="fill:none;stroke:#ffffff;stroke-width:9.995;stroke-linecap:round;stroke-linejoin:round;stroke-miterlimit:10;stroke-dasharray:none;stroke-opacity:1"
             id="path32" /><path
             d="m 4749.78,3661.08 -183.51,105.95 -83.18,195.97 51.75,207.54 167,135.23 215.76,7.54 177.67,-124.41 67.33,-207.22 -71.26,-206.97 -182.3,-122.96 -220.59,11.56 -169.98,142.63 -50.13,217.17 91.06,204.53 196.69,109.04 223.69,-31.44 160.43,-160.44 31.72,-225.66 -110.97,-200.19 -210.01,-93.5 -224.97,51.93 -149.05,177.64 -12.19,232.56 130.79,193.9 222.08,76.47 224.34,-72.89 135.87,-194.04 -8.3,-237.74 -150.33,-185.65 -232.76,-58.03 -221.73,94.12 -120.94,209.48 29.6,241.06 169.41,175.43 241.87,38.31 217.09,-115.43 104.34,-223.75 -51.54,-242.46 -187.83,-163.27 -249.26,-17.43 -210.4,136.63 -86.15,236.69 73.93,241.82"
             style="fill:none;stroke:#ffffff;stroke-width:9.995;stroke-linecap:round;stroke-linejoin:round;stroke-miterlimit:10;stroke-dasharray:none;stroke-opacity:1"
             id="path34" /><path
             d="m 4494.82,4220.8 205.39,149.22 254.83,-4.45 201.63,-157.53 66.49,-248.11 -96.61,-239.1 -221.89,-133.33 -258.45,27.17 -190.78,177.91 -45.48,257.89 119.34,234.22 237.17,115.67 260,-50.54 177.9,-197.58 23.26,-265.85 -141.95,-227.16 -251.01,-96.35 -259.41,74.38 -163.01,216.32 v 271.87 l 164.21,217.91 263.26,75.49 256.6,-98.5 146.19,-233.94 -24.13,-275.81 -185.93,-206.49 -273.73,-53.21 -251.54,122.68 -127.51,250.25 48.95,277.58 206.87,192.9 282.3,29.67 244.17,-146.71 107.08,-265.04 -74.24,-277.08 -226.83,-177.22 -288.82,-5.04 -234.5,170.37 -85.03,278.14 99.82,274.26 245.61,159.5 293.13,-20.5 222.53,-193.44"
             style="fill:none;stroke:#ffffff;stroke-width:9.995;stroke-linecap:round;stroke-linejoin:round;stroke-miterlimit:10;stroke-dasharray:none;stroke-opacity:1"
             id="path36" /><path
             d="m 5220.7,4221.22 61.51,-289.39 -125.45,-269.04 -262.99,-139.83 -295.17,46.75 -208.3,215.69 -36.66,298.61 150.93,261.41 278.77,118.33 294.82,-73.5 191.85,-236.92 10.67,-305.66 -176,-251.35 -292.77,-95.13 -292.02,100.55 -173.27,256.87 16.27,310.42 200.45,238.89 304.82,70.37 286.72,-127.65 152.64,-275.37 -43.96,-312.77 -224.04,-224.04 -314.75,-44.23 -278.86,154.57 -130.1,292.2 72.18,312.61 246.54,206.87 322.4,16.9 268.47,-181.09 105.76,-307.14 -100.69,-309.88 -267.73,-187.47 -327.64,11.44 -255.55,206.94 -79.8,320.04 129.27,304.53 287.38,165.92 330.35,-40.56 240.14,-231.9 52.38,-330.71 -157.66,-296.52 -305.28,-142.35"
             style="fill:none;stroke:#ffffff;stroke-width:9.995;stroke-linecap:round;stroke-linejoin:round;stroke-miterlimit:10;stroke-dasharray:none;stroke-opacity:1"
             id="path38" /><path
             d="m 4876.33,3458.63 -330.44,70.23 -222.3,255.72 -23.7,339.01 185.63,285.84 321.21,116.91 327.85,-100.23 202.1,-278.16 -6.02,-344.78 -212.91,-272.51 -335.01,-89.77 -322.5,130.3 -179.66,299 36.56,347.91 239.27,256.58 346.48,61.09 314.36,-160.18 155.11,-318.01 -67.7,-348.31 -264.43,-238.09 -355.46,-31.1 -303.45,189.62 -128.59,334.99 99.18,345.88 288.16,217.14 h 361.82 l 289.76,-218.35 100.28,-349.72 -130.74,-340.59 -310.23,-193.85 -365.42,31.97 -273.34,246.12 -70.37,362.04 162.11,332.38 330.4,168.35 366.17,-64.56 254.26,-272.66 39.07,-371.77 -193.04,-321.27 -348.45,-140.79 -363.97,97.53 -232.61,297.72 -6.61,378.75"
             style="fill:none;stroke:#ffffff;stroke-width:9.995;stroke-linecap:round;stroke-linejoin:round;stroke-miterlimit:10;stroke-dasharray:none;stroke-opacity:1"
             id="path40" /><path
             d="m 4249.16,4169.01 223.25,307.28 364.17,111.33 358.78,-130.58 208.5,-321.06 -26.78,-382.87 -252.45,-290.41 -377.38,-80.22 -350.57,163.47 -182.06,342.41 60.82,384.02 280.4,270.78 387.89,47.63 339.32,-195.9 153.48,-361.58 -95.27,-382.1 -306.82,-248.46 -395.56,-13.81 -325.04,227.59 -122.93,378.33 129.84,377.08 331.45,223.56 400.25,-20.97 307.79,-258.28 90.61,-392.47 -164.24,-368.89 -354.04,-196.25 -401.85,56.48 -287.65,287.65 -56.75,403.82 198.19,357.55 374.37,166.67 400.26,-92.4 264.7,-315.46 21.6,-412.23 -231.39,-343.04 -392.19,-135.05 -395.45,128.49 -239.06,341.42 14.58,417.53 263.55,325.46 407.32,101.56 387.34,-164.42"
             style="fill:none;stroke:#ffffff;stroke-width:9.995;stroke-linecap:round;stroke-linejoin:round;stroke-miterlimit:10;stroke-dasharray:none;stroke-opacity:1"
             id="path42" /><path
             d="m 5260.14,4482.67 210.9,-365.28 -51.52,-419.64 -294.39,-304.84 -419.56,-66.45 -375.95,199.89 -180.37,386.8 88.95,418.44 323.6,281.31 428.74,29.98 361.29,-234.63 147.68,-405.74 -126.54,-413.87 -350.93,-254.97 -434.72,7.58 -343.4,268.3 -113.05,421.9 164,405.9 376.11,225.99 437.37,-45.97 322.36,-300.61 76.72,-435.07 -201.02,-394.52 -398.87,-194.54 -436.6,84.87 -298.28,331.28 -38.95,445.08 237.29,379.73 418.97,160.83 432.35,-123.98 271.28,-360 v -451.78 l -272.48,-361.6 -436.2,-125.07 -424.56,162.97 -241.53,386.52 39.81,455.03 306.31,340.19 450.34,87.54 413.24,-201.55 209.19,-410.55 -80.19,-454.75 -338.44,-315.61"
             style="fill:none;stroke:#ffffff;stroke-width:9.995;stroke-linecap:round;stroke-linejoin:round;stroke-miterlimit:10;stroke-dasharray:none;stroke-opacity:1"
             id="path44" /><path
             d="m 5119.09,3321.78 -461.23,-48.48 -398.39,239.38 -174.47,431.85 120.8,450.86 368.61,287.99 468.69,8.17 380.05,-276.12 137.64,-450.19 -161.36,-443.31 -396.49,-257.49 -472.61,33.05 -358.31,311.47 -98.91,465.37 201.49,432.09 421.83,224.29 472.87,-74.89 333.27,-345.11 58.59,-477.17 -240.88,-417.22 -444.38,-188.63 -469.39,117.03 -305.07,376.73 -16.95,485.46 279.19,398.73 463.89,150.72 462.12,-159.12 273.87,-406.03 -25.68,-490.08 -316.1,-376.7 -480.12,-110.85 -451.07,200.83 -239.86,432.72 69,490.93 351.25,351.25 492.91,69.28 436.22,-241.8 203.27,-456.55 -112.65,-487.91 -384.36,-322.52 -502.06,-26.31 -417.63,281.69 -164.33,477.25"
             style="fill:none;stroke:#ffffff;stroke-width:9.995;stroke-linecap:round;stroke-linejoin:round;stroke-miterlimit:10;stroke-dasharray:none;stroke-opacity:1"
             id="path46" /><path
             d="m 4022.35,3982.44 156.29,480.99 415.1,290.66 507.44,-17.72 395.37,-320.16 123.31,-494.61 -199.56,-470.14 -443.18,-255.87 -508.92,62.48 -369.56,356.88 -80.52,508.41 242.12,455.37 468.33,218.38 506.43,-107.64 340.32,-391.5 36.26,-518.47 -283.62,-436.73 -490.27,-178.45 -499.9,152.84 -307.84,423.71 9.15,524.66 323.68,414.29 508.79,136.32 489.31,-197.69 272.32,-453.22 -55.38,-526.83 -361.96,-388.15 -523.65,-92.34 -474.67,241.86 -233.98,479.71 102.03,524.91 398.13,358.48 534.69,46.78 456.02,-284.95 193.07,-502.95 -148.77,-518.83 -431.85,-325.42 h -541.73 l -433.44,326.63 -149.87,522.66 195.21,508.55 462.8,289.19 544.65,-47.65"
             style="fill:none;stroke:#ffffff;stroke-width:9.995;stroke-linecap:round;stroke-linejoin:round;stroke-miterlimit:10;stroke-dasharray:none;stroke-opacity:1"
             id="path48" /><path
             d="m 5164.5,4776.88 407.04,-366.5 104.7,-538.65 -240.98,-494.09 -490.7,-250.02 -543.35,95.81 -376.95,404.23 -57.88,550.7 285.7,475.48 515.26,208.18 537.75,-144.09 343.37,-439.49 9.75,-558.64 -329,-452.82 -536.21,-163.94 -527.85,192.12 -306.48,471.94 39.33,562.34 370.48,426.2 553.36,117.62 513.62,-239.51 266.52,-501.26 -88.96,-561.71 -409.82,-395.76 -566.46,-69.55 -495.12,285.85 -223.78,527.19 138.8,556.67 446.63,361.68 575.36,20.09 472.42,-330.79 178.52,-549.43 -188.41,-547.18 -480.6,-324.17 -579.91,30.39 -445.62,373.91 -131.08,567.78 237.42,533.24 511.39,283.48 580.01,-81.52 414.86,-414.86 81.8,-581.99 -285.41,-514.9"
             style="fill:none;stroke:#ffffff;stroke-width:9.995;stroke-linecap:round;stroke-linejoin:round;stroke-miterlimit:10;stroke-dasharray:none;stroke-opacity:1"
             id="path50" /><path
             d="m 5444.02,3300.91 -538.73,-239.85 -575.56,132.88 -380.34,453.27 -31.02,591.89 331.99,492.2 562.31,193.62 566.54,-184.08 342.26,-488.79 -20.86,-597.34 -376.78,-465.28 -581.88,-145.07 -552.95,234.71 -300.85,521.08 73.45,598.21 419.36,434.27 597.26,94.59 534.8,-284.36 256.4,-549.85 -126.35,-594.42 -459.39,-399.34 -608.21,-42.53 -512.17,332.61 -209.21,574.8 179.13,585.92 496.49,360.72 614.6,-10.72 485.17,-379.06 159.61,-595.68 -231.39,-572.71 -530.32,-318.65 -616.29,64.77 -453.95,423.31 -107.95,612.25 282.69,554.82 560.57,273.4 613.21,-119.19 418.66,-464.98 54.63,-624.3 -332.63,-532.31 -586.93,-225.3 -605.29,173.56 -379.55,503.69"
             style="fill:none;stroke:#ffffff;stroke-width:9.995;stroke-linecap:round;stroke-linejoin:round;stroke-miterlimit:10;stroke-dasharray:none;stroke-opacity:1"
             id="path52" /><path
             d="m 3874.55,3673.67 v 631.69 l 380.75,505.28 609.14,174.67 592.52,-227.45 336.87,-539.09 -55.49,-634.26 -426.7,-473.89 -626.94,-121.87 -574.94,280.42 -290.87,570.85 111.43,631.93 470.03,438.31 640.15,67.28 552.59,-332.03 241.88,-598.67 -167.37,-624.64 -510.38,-398.75 -648.58,-11.32 -525.59,381.87 -190.24,622.25 222.89,612.37 547.37,355.47 652.08,-45.6 494.09,-429.5 136.32,-641.35 -277.52,-595.14 -580.69,-308.76 -650.56,103.04 -458.24,474.52 -80.52,655.75"
             style="fill:none;stroke:#ffffff;stroke-width:9.995;stroke-linecap:round;stroke-linejoin:round;stroke-miterlimit:10;stroke-dasharray:none;stroke-opacity:1"
             id="path54" /><path
             d="m 3798.03,4197.05 330.83,573.02 610,258.93 643.95,-160.56 418.29,-516.54 23.23,-665.26 -382.38,-546.1 -634.99,-206.33 -632.24,217.7 -374.47,555.18 35.1,669.75 431.74,514.52 655.42,151.32 615.42,-274.01 327.09,-590.07 -94.04,-669.09 -478.47,-478.47 -671.07,-94.31 -593.57,329.02 -276.44,620.9 153.11,663.21 522.19,438.17 681.72,35.72 566.78,-382.29 222.9,-647.36 -211.88,-652.1 -562.48,-393.85 -687.23,24 -535.19,433.39 -166.84,669.17 269.86,635.75 598.99,345.83 687.49,-84.42 498.97,-481.85 108.67,-686.1 -326.59,-614.22 -631.38,-294.42 -682.41,145.04 -458.35,527.29 -48.81,697.94 381.6,587.61 659.34,239.98 671.94,-205.43"
             style="fill:none;stroke:#ff0000;stroke-width:9.995;stroke-linecap:round;stroke-linejoin:round;stroke-miterlimit:10;stroke-dasharray:none;stroke-opacity:1"
             id="path56" /><path
             d="m 5463.83,4887.71 413.6,-569.26 -12.3,-704.55 -434.44,-556.05 -682.57,-182.9 -656.12,265.09 -364.98,607.43 74.18,705.76 484.66,519.73 700.84,123.58 634.96,-323.54 312.84,-641.41 -136.36,-701.52 -531.82,-478.86 -713.92,-62.46 -608.59,380.3 -257.54,670.9 198.36,691.77 575.53,433.69 h 721.64 l 577.13,-434.89 199.46,-695.61 -259.69,-676.51 -615.38,-384.53 -723.87,63.33 -540.74,486.89 -139.03,715.25 319.86,655.79 651,331.7 720.51,-127.05 499.66,-535.82 76.68,-729.61 -378.36,-629.7 -682.07,-275.57 -711.53,190.65 -454.13,581.26 -12.89,738.52 434.74,598.37 708.27,216.54 696.9,-253.65 404.47,-622.82 -51.87,-741.82 -488.52,-561.97"
             style="fill:none;stroke:#ff0000;stroke-width:9.995;stroke-linecap:round;stroke-linejoin:round;stroke-miterlimit:10;stroke-dasharray:none;stroke-opacity:1"
             id="path58" /><path
             d="m 5412.4,2974.16 -729.34,-155.03 -676.67,315.54 -350.99,660.12 117.11,739.4 539.24,520.74 745.03,91.47 650.92,-375.81 294.07,-692.79 -182.31,-731.24 -586.46,-474.9 -755.16,-26.37 -619.79,433.98 -234.11,720.54 246.98,717.29 629.76,424.78 759.57,-39.81 583.43,-489.56 171.56,-743.07 -310.6,-697.6 -668.75,-370.7 -758.16,106.56 -542.08,542.07 -106.83,760.15 372.63,672.25 703.08,313.03 750.86,-173.35 495.99,-591.09 40.43,-771.56 -432.6,-641.35 -732.41,-252.19 -737.65,239.68 -445.44,636.16 27.13,777.14 490,605.09 756.45,188.61 718.56,-305.01 390.8,-676.9 -95.37,-776.77 -544.34,-563.68 -774.95,-122.74 -693.65,368.82 -332.44,712.9"
             style="fill:none;stroke:#ff0000;stroke-width:9.995;stroke-linecap:round;stroke-linejoin:round;stroke-miterlimit:10;stroke-dasharray:none;stroke-opacity:1"
             id="path60" /><path
             d="m 3585.9,3848.96 163.76,770.4 595.16,517.37 787.69,55.08 663.05,-430.59 270.75,-743.86 -231.74,-757.98 -642.03,-466.47 -794.49,13.87 -626.94,489.83 -206.18,769.45 298.79,739.53 684.53,411.3 795.22,-83.58 585.53,-546.01 139.19,-789.41 -364.37,-715.12 -722.27,-352.28 -789.82,153.53 -539.04,598.67 -70.3,803.53 427.96,684.88 754.89,289.77 778.23,-223.15 487.83,-647.37 v -811.6 l -489.03,-648.96 -782.08,-224.26 -760.49,291.93 -432.2,691.66 71.18,813.48 547.07,607.59 803.55,156.19 736.65,-359.28 372.53,-731.15 -142.66,-809.11 -601.61,-561 -819.07,-86.09 -706.81,424.69 -309.27,765.47 213.93,798.43 652.15,509.51 828.46,14.46"
             style="fill:none;stroke:#ff0000;stroke-width:9.995;stroke-linecap:round;stroke-linejoin:round;stroke-miterlimit:10;stroke-dasharray:none;stroke-opacity:1"
             id="path62" /><path
             d="m 5213.6,5232.31 671.15,-487.62 242.84,-794.29 -284.42,-781.44 -698.26,-453.45 -831.56,58.15 -629.87,547.53 -173.72,817.33 353.55,758.19 739.54,393.22 828.26,-131.18 583.22,-603.94 102.44,-834.31 -420.79,-728.84 -775.6,-329.21 -818.52,204.07 -531.5,656.36 -29.52,845.07 485.58,693.47 806.09,261.92 802.35,-276.27 475.07,-704.33 -44.51,-849.41 -547.38,-652.35 -830.72,-191.78 -779.78,347.18 -414.31,747.42 119.07,847.25 605.69,605.69 849.23,119.35 750.92,-416.25 349.62,-785.25 -193.59,-838.52 -660,-553.8 -861.38,-45.14 -715.93,482.9 -281.48,817.46 267.48,823.21 709.84,497.04 867.04,-30.28 675.01,-546.61 210.36,-843.73 -340.16,-801.36"
             style="fill:none;stroke:#ff0000;stroke-width:9.995;stroke-linecap:round;stroke-linejoin:round;stroke-miterlimit:10;stroke-dasharray:none;stroke-opacity:1"
             id="path64" /><path
             d="m 5844.95,3075.76 -754.79,-435.78 -866.06,106.34 -628.39,606.82 -136.81,863.8 411.05,773.08 794.43,370.44 858.39,-182.45 576.39,-663.06 61.35,-877.41 -479.59,-738.5 -828.39,-301.52 -843.99,258.04 -519.35,714.81 15.44,884.43 545.2,697.83 856.35,229.45 822.93,-332.48 457.64,-761.64 -92.98,-884.69 -607.36,-651.31 -878.01,-154.81 -795.27,405.21 -391.71,803.12 170.69,878.11 665.52,599.25 893.14,78.14 761.17,-475.63 322.01,-838.87 L 5986,3181.77 5266.79,2639.81 h -901.55 l -720.81,543.17 -249.05,868.54 324.16,844.47 767.95,479.87 903.1,-79.01 674.44,-607.27 173.35,-891.85 -398.71,-817.5 -811.31,-413.37 -897.69,158.28 -622.35,667.4"
             style="fill:none;stroke:#ff0000;stroke-width:9.995;stroke-linecap:round;stroke-linejoin:round;stroke-miterlimit:10;stroke-dasharray:none;stroke-opacity:1"
             id="path66" /><path
             d="m 3508.32,3392.54 -95.5,908.53 471.03,783.92 848.88,342.97 885.31,-237.22 564.89,-723.03 16.03,-918.4 -540.49,-743.93 -880.32,-269.14 -865.96,315.19 -502.45,773.7 64.42,921.29 606.55,697.76 905.31,192.43 839.73,-391.57 435.45,-818.97 -145.25,-917.1 -668.65,-645.71 -923.6,-113.4 -806.73,465.77 -364.37,858.39 225.84,905.81 726.27,588.12 934.96,32.65 767.16,-537.17 289.71,-891.65 -305.55,-887.4 -778.91,-525.38 -939.24,49.23 -721.25,605.2 -212.02,918.37 383.76,861.96 826.11,457.92 936.32,-131.6 669.3,-669.29 131.87,-938.31 -459.86,-829.6 -867.43,-386.2 -926.16,213.82 -611.63,728.91 -49.85,951.22 533.2,790.5 902.52,310.76"
             style="fill:none;stroke:#ff0000;stroke-width:9.995;stroke-linecap:round;stroke-linejoin:round;stroke-miterlimit:10;stroke-dasharray:none;stroke-opacity:1"
             id="path68" /><path
             d="m 4807.72,5491.89 908.75,-295.27 548.64,-783.53 -33.41,-956.94 -603.22,-744.91 -931.02,-232.13 -884.16,375.3 -480.76,832.7 117.3,955.35 669.32,693.09 952.64,150.89 852.5,-453.28 408.47,-875.96 -201.16,-946.38 -730.95,-635.4 -967.15,-67.63 -813.94,528.58 -332.28,912.92 284.34,930.02 787.58,572.22 974.37,-17.01 768.71,-600.59 252.74,-943.23 -366.18,-906.34 -838.75,-503.97 -974.14,102.39 -717.1,668.71 -170.44,966.6 446.05,875.42 883.97,431.14 966.42,-187.86 659.43,-732.37 85.98,-982.75 -523.3,-837.46 -922.84,-354.25 -951.18,272.75 -596.1,791.05 v 991.51 l 597.31,792.64 955.01,273.85 928.45,-356.4 527.54,-844.23 -86.86,-992.71"
             style="fill:none;stroke:#ff0000;stroke-width:9.995;stroke-linecap:round;stroke-linejoin:round;stroke-miterlimit:10;stroke-dasharray:none;stroke-opacity:1"
             id="path70" /><path
             d="m 6258.3,3358.42 -667.45,-741.29 -980.16,-190.52 -898.34,438.15 -454.22,891.45 173.91,986.29 733.18,683.7 998,104.89 861.02,-517.35 376.67,-932.28 -260.5,-972.2 -793.92,-620.28 -1008.34,-17.6 -816.7,593.37 -295.44,966.34 345.95,950.49 849.15,551.44 1011.02,-70.69 765.65,-665.57 211.13,-993.3 -429.59,-921.25 -898.39,-477.69 -1005.95,159.33 -708.19,733.36 -124.37,1012.88 510.74,884.64 941.21,399.52 993.08,-247.61 644.73,-796.18 35.79,-1024.86 -588.76,-840.85 -977.2,-317.51 -972.46,334.85 -575.67,853.48 53.93,1029.07 663.02,790.16 1006.02,232.26 944.14,-420.36 501.53,-904.77 -144.12,-1025.41 -732.9,-732.9 -1027.38,-144.39 -908.28,503.47"
             style="fill:none;stroke:#ff0000;stroke-width:9.995;stroke-linecap:round;stroke-linejoin:round;stroke-miterlimit:10;stroke-dasharray:none;stroke-opacity:1"
             id="path72" /><path
             d="m 3609.84,2882.7 -422.79,949.6 234.05,1013.82 797.82,669.45 1041.05,54.56 865.08,-583.51 340.05,-987.57 -323.07,-994.31 -857.22,-600.23 -1046.84,36.55 -814.82,659.83 -253.89,1018.3 410.45,966.97 910.61,525.73 1044.63,-128.26 757.8,-731.8 164.96,-1041.49 -495.52,-931.93 -957.49,-446.48 -1034.36,219.86 -694.42,798.84 -73.9,1056.89 577.57,889.38 997.46,363.04 1016.04,-310.63 625.09,-860.37 -18.58,-1064.3 -655.96,-839.6 -1030.13,-276.02 -989.74,399.87 -550.3,915.86 111.79,1063.61 730.06,782.89 1055.18,186.05 955.57,-486.89 470.58,-964.82 -205.02,-1054.72 -799.22,-719.62 -1072.37,-93.82 -913.74,570.96 -386.48,1006.83 297.54,1037.65 862.89,650.23"
             style="fill:none;stroke:#ff0000;stroke-width:9.995;stroke-linecap:round;stroke-linejoin:round;stroke-miterlimit:10;stroke-dasharray:none;stroke-opacity:1"
             id="path74" /><path
             d="m 4280.25,5603.1 h 1081.46 l 864.49,-651.44 298.64,-1041.48 -388.63,-1012.43 -920.52,-575.21 -1082.33,94.69 -808.13,727.65 -207.69,1068.46 477.59,979.2 971.6,495.05 1074.87,-189.52 745.05,-798.98 114.3,-1087.46 -563.69,-938.13 -1015.68,-410.36 -1059.09,283.78 -675.66,864.81 -19.17,1098.28 646.24,889.47 1052.36,321.74 1035.03,-376.72 600.43,-924.59 -76.97,-1100.76 -724.58,-833.53 -1081.29,-229.84 -1002.78,467.61 -519.92,977.81 173.4,1094.8 798.07,770.69 1102.17,135.33 962.54,-555.73 434.66,-1024 -269.36,-1080.38 -866.09,-701.34 -1114.76,-38.93 -914.54,640.37 -345.31,1062.75 364.13,1057.51 928.06,625.98 1118.9,-58.64 859.08,-720.85 252.49,-1093.67"
             style="fill:none;stroke:#ff0000;stroke-width:9.995;stroke-linecap:round;stroke-linejoin:round;stroke-miterlimit:10;stroke-dasharray:none;stroke-opacity:1"
             id="path76" /><path
             d="m 6579.62,3815.09 -456.94,-1026.31 -983.46,-545.14 -1114.48,156.63 -796.51,796.51 -156.91,1116.47 547.07,986.95 1031.79,459.38 1101.47,-254.29 727.27,-866.73 59.27,-1130.88 -633.81,-939.66 -1072.63,-369.34 -1079.86,350.87 -651.83,930.91 39.7,1136.74 716.44,884.73 1105.58,275.65 1049.77,-445.6 570.71,-988.51 -139.22,-1133.91 -794.29,-822.51 -1130.34,-179.03 -1011.36,537.75 -484.5,1039.01 238.57,1122.35 866.72,753.44 1146.63,80.18 964.83,-626.57 393.81,-1081.98 -336.94,-1102.07 -933.14,-677.97 -1154.24,20.15 -910.49,711.35 -299.3,1117.02 433.57,1073.14 992.97,596.63 1153.06,-121.19 848.68,-791.41 201.68,-1143.77 -527.73,-1035.72 -1045.67,-510.01 -1143.02,222.18"
             style="fill:none;stroke:#ff0000;stroke-width:9.995;stroke-linecap:round;stroke-linejoin:round;stroke-miterlimit:10;stroke-dasharray:none;stroke-opacity:1"
             id="path78" /><path
             d="m 3912.54,2390.53 -779.82,866.07 -101.66,1161.98 618.64,990.03 1090.8,418.72 1124.12,-322.34 704.37,-934.73 V 3398.84 l -705.58,-936.33 -1127.95,-323.43 -1096.41,420.87 -622.87,996.8 102.53,1171.94 787.84,874.99 1156.76,224.85 1060.05,-517.02 535.89,-1051.76 -205.15,-1163.46 -864.76,-806.4 -1176.92,-123.69 -1015.24,610.01 -444.06,1099.09 307.06,1145.98 935.7,731.04 1188.22,20.74 962.25,-699.11 L 6694.39,3935.56 6286.9,2816 5286.87,2166.57 l -1190.49,83.25 -901.43,783.6 -248.54,1169.28 505.62,1084.31 1057.24,562.14 1183.65,-187.47 833.17,-862.77 146.29,-1191.46 -600.7,-1040.44 -1106.81,-469.81 -1167.65,291.12 -757.95,936 -42.07,1204.66 691.96,988.22"
             style="fill:none;stroke:#ff0000;stroke-width:9.995;stroke-linecap:round;stroke-linejoin:round;stroke-miterlimit:10;stroke-dasharray:none;stroke-opacity:1"
             id="path80" /><path
             d="m 3689.16,5517.2 1148.3,373.11 1142.56,-393.42 676.29,-1002.63 -63.35,-1208.74 -778.67,-927.98 -1181.32,-272.73 -1108.49,493.53 -588.75,1062.14 169.15,1203.56 860.12,860.12 1205.54,169.43 1065.63,-590.69 495.97,-1113.97 -274.53,-1189.11 -935.63,-785.09 -1220.72,-63.98 -1014.23,684.11 -398.62,1157.68 378.66,1165.42 1004.6,703.42 1226.64,-42.83 L 6452.94,5025.5 6750.36,3832.63 6269.61,2700.05 5203.2,2084.36 3980,2234.55 l -887.22,856.79 -193.1,1219.18 579.98,1090.78 1120.54,522.51 1210.34,-257.26 812.45,-934.62 86.46,-1236.36 -675.56,-1040.27 -1166.52,-424.58 -1188.09,363.24 -730.84,1005.92 21.72,1244.18 766.73,981.37 1203.9,322.59 1156.55,-467.28 642.96,-1070.06"
             style="fill:none;stroke:#ff0000;stroke-width:9.995;stroke-linecap:round;stroke-linejoin:round;stroke-miterlimit:10;stroke-dasharray:none;stroke-opacity:1"
             id="path82" /><path
             d="m 6740.3,4410.68 -130.59,-1242.54 -852.76,-914.46 -1232.36,-217.3 -1115.87,568.57 -549.44,1126.52 239.34,1231.33 932.92,840 1251.6,109.5 L 6349.45,5246 6800.41,4071.21 6453.28,2860.63 5446.7,2102.12 H 4185.33 l -1008.17,759.71 -348.23,1214.42 453.11,1180.39 1073.09,670.55 1261.55,-110.37 941.83,-848.04 242.02,-1245.06 -556.46,-1140.9 -1131.9,-576.73 -1252.04,220.77 -867.75,930.55 -133.11,1266.38 656.35,1092.35 1182.49,477.75 L 5930.98,5663.55 6717.4,4656.97 6739.71,3378.81 5987.73,2343.79 4763.31,1969.44 3559.23,2407.7 2860.8,3483.17 2950.33,4763.4 3792.94,5732.72 5050.21,5999.96 6216.05,5456.32 6820.42,4319.65 6618.88,3047.16 5691.39,2151.5 4410.66,1994.25"
             style="fill:none;stroke:#ff0000;stroke-width:9.995;stroke-linecap:round;stroke-linejoin:round;stroke-miterlimit:10;stroke-dasharray:none;stroke-opacity:1"
             id="path84" /><path
             d="m 4410.66,1994.25 -1118.35,645.67 -504.96,1189.62 312.89,1254.93 1005.9,814.57 1294.56,45.2 1061.91,-743.55 400.91,-1233.86 -422.7,-1227.61 -1077.21,-726.59 -1298.57,68.06 -996.89,836.49 -292.97,1268.96 530.12,1190.67 1140.81,632.37 1292.64,-181.68 923.73,-923.72 181.95,-1294.62 -634.3,-1144.31 -1196.15,-532.56 -1276.76,294.76 -842.92,1004.55 -68.67,1310.55 734.41,1088.81 1242.73,427.91 1250.96,-406.47 755.03,-1078.28 -45.97,-1316.54 -829.66,-1024.54 -1280.15,-319.18 -1215.38,515.9 -660.67,1144.31 161.15,1312.48 919.27,951.93 1308.03,207.18 1170.2,-622.21 560.54,-1202.07"
             style="fill:none;stroke:#ff0000;stroke-width:9.995;stroke-linecap:round;stroke-linejoin:round;stroke-miterlimit:10;stroke-dasharray:none;stroke-opacity:1"
             id="path86" /><path
             d="M 6896.12,4221.38 6620.15,2923.05 5617.64,2051.58 4291.54,1958.85 3175.83,2683.4 2720.49,3934.45 3110.02,5208.57 4188.71,5992.28 5522.84,5968.99 6575.1,5146.88 6920.97,3856.08 6420,2616.13 5272.82,1926.84 l -1331.99,140 -980.26,914.1 -232.92,1320.95 609.41,1196.02 1207.37,588.88 1319.63,-256.51 900.2,-999.77 L 6881.6,3489.3 6167.63,2346.71 4908.86,1863.51 3611.8,2235.44 2799.16,3313.85 V 4665.18 L 3613,5745.19 4913.9,6118.22 6178.27,5632.87 6896.48,4483.49 6778.27,3132.33 5870.05,2123.64 4536.68,1864.46 l -1221.75,595.89 -617.57,1212.06 236.39,1340.63 996.34,929.1 1355.85,142.51 1169.45,-702.68 511.45,-1265.9 -353.63,-1319.76 -1077.46,-841.8 -1368.1,-23.88"
             style="fill:none;stroke:#ffffff;stroke-width:9.995;stroke-linecap:round;stroke-linejoin:round;stroke-miterlimit:10;stroke-dasharray:none;stroke-opacity:1"
             id="path88" /><path
             d="m 4167.65,1930.63 -1107.8,804.86 -400.64,1310.44 469.02,1288.61 1150.91,747.42 1369.97,-95.8 1037.21,-901.63 285.94,-1345.26 -581.65,-1247.36 -1216.09,-646.61 -1361.35,215.62 -958.15,992.19 -168.22,1370.02 690.66,1196.25 1272.42,540.11 1342.22,-334.65 871.17,-1075.81 48.35,-1384.46 -795.15,-1135.6 -1319.41,-428.7 -1312.67,451.99 -776.89,1151.78 72.77,1388.41 894.31,1065.8 1356.62,313.2 1272.84,-566.71 675.98,-1219.49 -194.2,-1381.72 -987.33,-987.33 -1383.7,-194.47 -1222.98,677.91 -569.15,1278.32 315,1364.41 1073.46,900.74 1400.37,73.39 L 6574.88,5331.79 7032.07,4004 6597.82,2667.48 5445.84,1860.86 l -1406.43,49.12 -1094.46,886.27 -340.93,1367.43 551.04,1298.18"
             style="fill:none;stroke:#ffffff;stroke-width:9.995;stroke-linecap:round;stroke-linejoin:round;stroke-miterlimit:10;stroke-dasharray:none;stroke-opacity:1"
             id="path90" /><path
             d="m 3155.06,5461.86 1222.22,705.65 1401.76,-172.12 1016.64,-981.75 221.25,-1396.88 -664.44,-1249.63 -1283.6,-598.55 -1386.32,294.67 -930.48,1070.39 -99.01,1415.84 773.55,1191.15 1335.57,486.11 1360.14,-415.83 836.59,-1151.47 -24.86,-1424.07 -877.49,-1123.14 -1377.69,-369.15 -1323.35,534.67 -735.63,1224.28 149.41,1421.45 975.45,1046.05 1409.54,248.54 L 6430.48,5567.82 7058.79,4279.6 6785.12,2871.67 5718.5,1911.28 4287.68,1786.1 3068.8,2547.74 2553.36,3890.49 2950.08,5274.02 4100.34,6140.8 H 5541.62 L 6693.47,5272.81 7091.3,3885.45 6573.71,2537.09 5348.05,1771.21 l -1440.78,126.06 -1075.53,968.41 -276.35,1421.67 635.32,1302.6 1292.21,658.41 1429.22,-252.01 990.45,-1062.13"
             style="fill:none;stroke:#ffffff;stroke-width:9.995;stroke-linecap:round;stroke-linejoin:round;stroke-miterlimit:10;stroke-dasharray:none;stroke-opacity:1"
             id="path92" /><path
             d="M 6902.59,4934.22 7054.5,3488.91 6305.5,2242.36 4956.19,1697.2 3549.54,2074.11 2652.36,3222.46 2626.91,4680.51 3484.64,5861.08 4881.11,6288.02 6254.25,5788.24 7050.66,4561.88 6948.59,3102.18 5987.94,1997.08 4554.69,1692.43 3225.8,2312.1 2536.96,3607.62 2766.65,5057.81 3823.55,6078.45 5282.86,6257.63 6557.01,5522 7132.27,4166.77 6775.86,2737.27 5630.14,1809.48 4155.77,1758 2946.49,2604.75 2489.99,4009.71 2971.27,5407.43 4197.63,6234.62 5675.86,6157.15 6810.57,5205.02 7144,3760.75 6540.71,2405.72 5242.55,1686.14 3771.75,1892.85 2720.8,2943.79 l -206.98,1472.78 721.52,1301.66 1360.5,605.73 1452.06,-335.23 958.56,-1142.37 78.1,-1490.2 L 6249.54,2118.2 4836.7,1631.71"
             style="fill:none;stroke:#ffffff;stroke-width:9.995;stroke-linecap:round;stroke-linejoin:round;stroke-miterlimit:10;stroke-dasharray:none;stroke-opacity:1"
             id="path94" /><path
             d="m 4836.7,1631.71 -1422.07,462.06 -858.22,1225.66 52.26,1496.34 942.88,1164.36 1454.72,362.7 1380.98,-586.2 L 7137.88,4456.52 6954.8,2965.46 5910.55,1884.12 4424.82,1648.8 3095.77,2355.47 2459.2,3720.59 2772.58,5194.9 3910.87,6184.4 5416.43,6289.68 6683.03,5467.14 7199.91,4047.04 6757.77,2600.87 5533.53,1711.41 4019.52,1737.84 2825.49,2670.71 2433.06,4135.29 3001.43,5542.05 4302.82,6324 5813.73,6165.2 6925.57,5128.4 7189.73,3630.27 6498.64,2273.95 5129.57,1606.2 3633.33,1897.04 2612.75,3030.51 l -133.02,1520.43 809.31,1295.17 1426.73,547.67 1470,-421.51 920.92,-1222.1 V 3218.93 L 6184.57,1995.24 4710.73,1572.62 3278.4,2122.44 2464.85,3424.39 2598.74,4954.78"
             style="fill:none;stroke:#ffffff;stroke-width:9.995;stroke-linecap:round;stroke-linejoin:round;stroke-miterlimit:10;stroke-dasharray:none;stroke-opacity:1"
             id="path96" /><path
             d="M 2598.74,4954.78 3627.35,6097.16 5137.32,6390.67 6520.77,5715.92 7220.02,4343.56 6952.39,2825.75 5824.47,1773.95 4289.7,1612.64 l -1323.66,795.34 -578.86,1432.7 400.2,1493.55 1219.23,952.56 1547.99,27.02 L 6807.95,5403.2 7261.19,3920.71 6730.64,2463.04 5428.83,1617.64 3879.39,1725.99 2706.41,2745.65 2383.06,4266.89 3040.75,5677.3 4415.69,6408.37 5954.73,6164.61 7037.85,5043 7228,3494.41 6447.39,2142.36 5009.36,1531.95 3492.57,1910.13 2508.18,3125.75 2453.55,4690.02 3351.9,5972.98 4842.41,6457.28 6325.19,5946.72 7202.68,4645.78 7120.5,3077.72 6110.54,1874.1 4578.63,1520.43 l -1437.2,639.88 -763.2,1376.84 219.23,1559.88 1114.55,1114.55 1561.86,219.51 1380.33,-765.13"
             style="fill:none;stroke:#ffffff;stroke-width:9.995;stroke-linecap:round;stroke-linejoin:round;stroke-miterlimit:10;stroke-dasharray:none;stroke-opacity:1"
             id="path98" /><path
             d="M 6654.2,5665.96 7296.53,4223.28 6941.06,2683.57 5729.78,1667.18 4149.74,1584.38 2837.2,2469.7 l -515.77,1497.89 489.86,1507.62 1299.34,909.82 1586.25,-55.4 1234.26,-999.49 384.47,-1542 L 6694.26,2324.36 5316.24,1528.75 3735.9,1722.79 2589.85,2829.52 2340.46,4404.1 l 748.9,1408.48 1446.65,674.58 1562.3,-332.07 1048.51,-1206.18 111.56,-1595.3 -871.53,-1342.04 -1504.64,-547.65 -1532.19,468.44 -942.33,1297.02 27.99,1603.95 988.26,1264.91 1551.47,415.71 1490.16,-602.06 828.29,-1378.5 L 7125.65,2933.02 6027.5,1755.39 4440.79,1475.61 3004.31,2207.54 2297.13,3657.46 2605.13,5242 3805.46,6322.77 5415.5,6463.63 6786.95,5606.65 7366.86,4095.94 6920.55,2539.48 5626.61,1564.42"
             style="fill:none;stroke:#ffffff;stroke-width:9.995;stroke-linecap:round;stroke-linejoin:round;stroke-miterlimit:10;stroke-dasharray:none;stroke-opacity:1"
             id="path100" /><path
             d="M 5626.61,1564.42 H 4005.42 l -1295.54,976.26 -447.41,1560.31 582.06,1516.31 1378.24,861.22 1620,-141.73 L 7052,5247.98 7362.67,3649.71 6648.48,2185.41 5195.98,1445.32 3589.58,1728.57 2476.43,2922.28 2305.71,4546.52 3147.38,5947.28 4663.5,6559.83 6243.93,6136.36 7251.88,4846.24 7280.46,3208.31 6316.98,1882.18 4748.47,1402.64 l -1542.2,561.32 -894.4,1377.25 114.62,1639.17 1078.68,1240.88 1609.22,342.05 1491.95,-695.7 773.3,-1454.38 -257.83,-1627.88 -1186.32,-1145.61 -1637.87,-201.11 -1429.96,825.59 -645.55,1520.83 399.93,1604.07 1285.53,1041.01 1654.17,57.76 1356.65,-949.94 512.1,-1576.07 -539.85,-1567.83 -1375.51,-927.79 -1657.9,86.88 -1272.53,1067.78 -373.9,1619.57"
             style="fill:none;stroke:#ffffff;stroke-width:9.995;stroke-linecap:round;stroke-linejoin:round;stroke-miterlimit:10;stroke-dasharray:none;stroke-opacity:1"
             id="path102" /><path
             d="M 2210.8,4240.49 2887.27,5759.87 4342.79,6566.68 5991.75,6334.93 7169.9,5156.77 7401.93,3505.83 6593.18,2046.82 5068.33,1367.91 3440.97,1743.61 2366.77,3023.8 2279.25,4693.67 3214.87,6080.79 4797.82,6625.84 6391,6108.19 7352.4,4735.16 7293.87,3059.02 6237.77,1754.84 4608.49,1348.61 l -1546.6,656.5 -840.57,1455.92 205,1669.62 1169.22,1210.76 1663.42,263.47 L 6746.87,5813.74 7459.46,4285.57 7108.69,2635.28 5834.62,1527.75 4149.58,1409.92 2732.1,2330.44 l -578.41,1589.17 494.74,1618.21 1369.78,995.21 1693.9,-29.57 1335.8,-1043.64 438.99,-1638.35 -635.76,-1573.57 -1455.6,-874.61 -1689.84,177.6 -1243.41,1159.5 -295.4,1675.31 772.75,1516.62 1530.79,746.61 1672.83,-325.16"
             style="fill:none;stroke:#ffffff;stroke-width:9.995;stroke-linecap:round;stroke-linejoin:round;stroke-miterlimit:10;stroke-dasharray:none;stroke-opacity:1"
             id="path104" /><path
             d="M 6143.26,6323.77 7284.23,5056.6 7432.93,3356.94 6528.28,1909.2 4933.59,1297.05 3290.65,1768.16 2261.46,3133.94 V 4845.09 L 3291.86,6212.46 4938.64,6684.67 6538.93,6070.38 7447.81,4615.86 7298.24,2906.24 6149.25,1630.16 4462.68,1302.32 2917.52,2055.95 2136.59,3588.6 l 298.88,1694.99 1259.49,1174.5 1713.7,180.11 1477.88,-887.99 646.24,-1599.52 -446.76,-1667.32 -1361,-1063.33 -1727.87,-30.16 -1398.9,1016.36 -505.84,1654.53 592.08,1626.74 1452.69,943.38 L 5866.09,6510 7174.86,5372.3 7535.61,3675.09 6801.89,2101.62 5268.09,1286.09 3551.36,1557.99 2343.26,2809.02 2131.2,4536.17 3001.76,6044.04 4605.4,6724.74 6296.75,6303.04 7394.36,4947.6 7455.27,3203.53 6453.73,1773.19"
             style="fill:none;stroke:#ffffff;stroke-width:9.995;stroke-linecap:round;stroke-linejoin:round;stroke-miterlimit:10;stroke-dasharray:none;stroke-opacity:1"
             id="path106" /><path
             d="m 6453.73,1773.19 -1661.62,-539.89 -1652.88,569.13 -978.1,1450.09 91.59,1747.73 1125.6,1341.44 1707.22,394.14 L 6687.1,6022.77 7537.52,4488.58 7293.25,2750.54 6051.48,1508.77 4311.46,1264.23 l -1537.68,852.35 -715.5,1607.04 395.94,1715.01 1349.09,1132.02 1759.71,92.23 1461.69,-985.93 574.34,-1668 L 7053.6,2330.22 5606.88,1317.21 3840.84,1378.89 2466.75,2491.6 2038.77,4208.16 2730.41,5837.56 4264.24,6723.12 6023.14,6507.15 7298.61,5275.45 7576.14,3523.18 6742.78,1955.84 5133.07,1205.23 3394.8,1574.71 2228.25,2916.67 2104.15,4691.44 3073.67,6184.37 4747.36,6793.54 6451.6,6272.5 7499.68,4829.94 7468.55,3046.11 6369.53,1639.42 4644.28,1177.14 2987.3,1846.61 2066.36,3379.31"
             style="fill:none;stroke:#ffffff;stroke-width:9.995;stroke-linecap:round;stroke-linejoin:round;stroke-miterlimit:10;stroke-dasharray:none;stroke-opacity:1"
             id="path108" /><path
             d="m 2066.36,3379.31 187.02,1779.3 1220.84,1309.2 1763.9,311.03 1596.77,-813.6 786.05,-1611.63 -342.33,-1761.14 -1334.02,-1201.16 -1789.27,-156.54 -1524.03,952.32 -644.38,1678.67 495.9,1729.4 1437.62,1083.33 h 1801.1 l 1439.22,-1084.53 497,-1733.25 -646.53,-1684.27 -1530.81,-956.55 -1799.22,157.41 -1342.94,1209.18 -345,1774.88 793.06,1626 1612.8,821.77 1783.58,-314.5 L 7418.54,5169.35 7608.06,3366.19 6673.73,1811.21 4990.8,1131.27 3236.6,1601.3 2117.88,3033.19 2086.15,4851 3155.39,6322.68 4895.95,6854.82 6607.21,6231.97 7599.59,4703.84 7472.42,2885.2 6275.71,1508.54 l -1785.2,-379.46 -1655,771.74 -857.76,1613.22 285.97,1805.58 1315.73,1270.59 1816.45,223.03"
             style="fill:none;stroke:#ffffff;stroke-width:9.995;stroke-linecap:round;stroke-linejoin:round;stroke-miterlimit:10;stroke-dasharray:none;stroke-opacity:1"
             id="path110" /><path
             d="M 5395.9,6813.24 6981.66,5897.7 7697.52,4211.25 7254.05,2432.63 5828.7,1278.4 3994.74,1214.36 2490.71,2267.49 1923.02,4014.66 2521.44,5752.59 4046.11,6781 5883.66,6684.69 7294.01,5501.27 7708.39,3706.4 6958.74,2022.67 5345.88,1128.64 3518.75,1385.43 2213.38,2690.8 1956.32,4519.9 2852.28,6136.26 4541.5,6888.35 6344.16,6472.18"
             style="fill:none;stroke:#ffffff;stroke-width:9.995;stroke-linecap:round;stroke-linejoin:round;stroke-miterlimit:10;stroke-dasharray:none;stroke-opacity:1"
             id="path112" /></g></g></g></g></svg>
