<?xml version="1.0" encoding="UTF-8" standalone="no"?>
<svg
   xmlns:dc="http://purl.org/dc/elements/1.1/"
   xmlns:cc="http://creativecommons.org/ns#"
   xmlns:rdf="http://www.w3.org/1999/02/22-rdf-syntax-ns#"
   xmlns:svg="http://www.w3.org/2000/svg"
   xmlns="http://www.w3.org/2000/svg"
   xmlns:sodipodi="http://sodipodi.sourceforge.net/DTD/sodipodi-0.dtd"
   xmlns:inkscape="http://www.inkscape.org/namespaces/inkscape"
   version="1.1"
   id="svg2"
   xml:space="preserve"
   width="1253.3333"
   height="1054.6667"
   viewBox="0 0 1253.3333 1054.6667"
   sodipodi:docname="cbTurtle.eps"><metadata
     id="metadata8"><rdf:RDF><cc:Work
         rdf:about=""><dc:format>image/svg+xml</dc:format><dc:type
           rdf:resource="http://purl.org/dc/dcmitype/StillImage" /></cc:Work></rdf:RDF></metadata><defs
     id="defs6"><clipPath
       clipPathUnits="userSpaceOnUse"
       id="clipPath20"><path
         d="M 0,1 V 7909 H 9398 V 1 Z"
         id="path18" /></clipPath></defs><sodipodi:namedview
     pagecolor="#ffffff"
     bordercolor="#666666"
     borderopacity="1"
     objecttolerance="10"
     gridtolerance="10"
     guidetolerance="10"
     inkscape:pageopacity="0"
     inkscape:pageshadow="2"
     inkscape:window-width="640"
     inkscape:window-height="480"
     id="namedview4" /><g
     id="g10"
     inkscape:groupmode="layer"
     inkscape:label="ink_ext_XXXXXX"
     transform="matrix(1.3333333,0,0,-1.3333333,0,1054.6667)"><g
       id="g12"
       transform="scale(0.1)"><g
         id="g14"><g
           id="g16"
           clip-path="url(#clipPath20)"><path
             d="m 4739.98,3910.02 h 39.98 l -69.93,2.44 99.71,-6.97 -129.22,13.58 158.36,-22.25 -187.02,32.97 215.09,-45.72 -242.46,60.45 269.02,-77.14 -294.68,95.75 319.34,-116.23 -342.89,138.54 365.24,-162.62 -386.29,188.41 405.95,-215.85 -424.14,244.88 440.76,-275.42 -455.74,307.4 469,-340.74 -480.45,375.36 490.02,-411.18 -497.65,448.1 503.28,-486.02 -506.85,524.85 508.29,-564.5 -507.55,604.87 504.59,-645.85 -499.36,687.32 491.84,-729.18 -481.99,771.34 469.77,-813.66 -455.16,856.03 438.15,-898.35 -418.73,940.48 396.88,-982.32 -372.61,1023.75 345.93,-1064.65 -316.83,1104.9 285.33,-1144.38 -251.45,1182.97 215.21,-1220.55 -176.66,1257.01"
             style="fill:none;stroke:#ffff00;stroke-width:9.995;stroke-linecap:round;stroke-linejoin:round;stroke-miterlimit:10;stroke-dasharray:none;stroke-opacity:1"
             id="path22" /><path
             d="m 4674.06,4547.84 135.82,-1292.23 -92.73,1326.1 47.44,-1358.5 v 1389.31 l -49.53,-1418.43 101.1,1445.75 -154.63,-1471.16 210.05,1494.56 -267.29,-1515.85 326.26,1534.93 -386.88,-1551.7 449.06,1566.08 -512.71,-1577.97 577.73,1587.29 -644,-1593.96 711.43,1597.9 L 4345.27,3110.91 5194.59,4708.25 4275.05,3115.55 5265.5,4700.61 4203.57,3126.23 5337.43,4686.85 4131.33,3143.12 5409.84,4666.79 4058.87,3166.39 5482.21,4640.3 3986.73,3196.13 5553.98,4607.29 3915.46,3232.41 5624.59,4567.73 3845.64,3275.25 5693.48,4521.63 3777.84,3324.61 5760.05,4469.03 3712.64,3380.4 5823.75,4410.06 3650.6,3442.51 l 2233.39,902.35 -2291.7,-834.11 2347.93,762.89 -2401.95,-688.75 2453.62,611.76"
             style="fill:none;stroke:#ffff00;stroke-width:9.995;stroke-linecap:round;stroke-linejoin:round;stroke-miterlimit:10;stroke-dasharray:none;stroke-opacity:1"
             id="path24" /><path
             d="m 5991.89,4196.65 -2502.8,-531.99 2549.37,449.52 -2593.2,-364.45 2634.16,276.86 -2672.13,-186.85 2707,94.53 H 3375.65 L 6142.58,3837.65 3350.8,4032.87 6163.89,3737.2 3333.14,4135.04 6177.81,3633.45 3323.05,4240.24 6183.99,3526.93 3320.86,4347.92 6182.11,3418.24 3326.87,4457.46 6171.9,3308 3341.33,4568.25 6153.15,3196.83 3364.43,4679.62 6125.67,3085.42 3396.32,4790.91 6089.34,2974.44 3437.09,4901.41 6044.11,2864.59 3486.8,5010.43 5989.94,2756.59 3545.41,5117.24 5926.89,2651.14 3612.86,5221.14 5855.07,2548.98 3689.02,5321.39 5774.62,2450.81 3773.71,5417.29 5685.76,2357.36 3866.67,5508.12 5588.77,2269.32 3967.61,5593.2 5483.98,2187.38 4076.16,5671.84 5371.77,2112.19"
             style="fill:none;stroke:#ffff00;stroke-width:9.995;stroke-linecap:round;stroke-linejoin:round;stroke-miterlimit:10;stroke-dasharray:none;stroke-opacity:1"
             id="path26" /><path
             d="M 5371.77,2112.19 4191.91,5743.41 5252.59,2044.4 4314.4,5807.27 5126.93,1984.62 4443.1,5862.82 4995.34,1933.43 4577.43,5909.52 4858.41,1891.35 4716.79,5946.85 V 1858.89 L 4860.5,5974.32 4571.16,1836.5 5007.87,5991.53 4422.24,1824.58 5158.14,5998.08 4270.8,1823.48 5310.55,5993.66 4117.64,1833.48 5464.28,5978.02 3963.56,1854.83 5618.49,5950.93 3809.42,1887.68 5772.34,5912.27 3656.08,1932.17 5924.95,5861.96 3504.43,1988.31 6075.43,5799.98 3355.34,2056.11 6222.89,5726.4 3209.72,2135.45 6366.44,5641.34 3068.46,2226.18 6505.19,5544.99 2932.45,2328.08 6638.25,5437.61 2802.55,2440.84 6764.76,5319.55 2679.64,2564.11 6883.86,5191.19 2564.55,2697.44 6994.73,5053.01 2458.09,2840.34"
             style="fill:none;stroke:#ffff00;stroke-width:9.995;stroke-linecap:round;stroke-linejoin:round;stroke-miterlimit:10;stroke-dasharray:none;stroke-opacity:1"
             id="path28" /><path
             d="M 2458.09,2840.34 7096.59,4905.53 2361.05,2992.25 7188.65,4749.35 2274.15,3152.54 7270.21,4585.13 2198.1,3320.51 7340.58,4413.58 2133.55,3495.44 7399.15,4235.47 2081.11,3676.52 7445.33,4051.63 2041.32,3862.91 H 7478.61 L 2014.67,4053.72 7498.53,3670.25 2001.57,4248 7504.71,3474.59 2002.39,4444.8 7496.83,3276.92 2017.4,4643.09 7474.64,3078.25 2046.82,4841.86 7437.96,2879.64 2090.78,5040.05 7386.7,2682.15 2149.35,5236.58 7320.83,2486.85 2222.49,5430.38 7240.43,2294.82 2310.12,5620.36 7145.63,2107.16 2412.05,5805.44 7036.64,1924.94 2528.01,5984.53 6913.79,1749.23 2657.66,6156.58 6777.45,1581.1 2800.58,6320.54 6628.08,1421.57 2956.26,6475.39 6466.23,1271.64 3124.11,6620.15"
             style="fill:none;stroke:#ffff00;stroke-width:9.995;stroke-linecap:round;stroke-linejoin:round;stroke-miterlimit:10;stroke-dasharray:none;stroke-opacity:1"
             id="path30" /><path
             d="M 3124.11,6620.15 6292.53,1132.29 3303.49,6753.86 6107.66,1004.45 3493.65,6875.61 5912.4,889 3693.8,6984.55 5707.59,786.77 3903.06,7079.88 5494.11,698.531 4120.5,7160.86 5272.95,625 4345.13,7226.79 5045.12,566.82 4575.89,7277.07 4811.7,524.566 V 7311.17 L 4573.8,498.734 5051.39,7328.63 4332.6,489.738 5293.8,7329.07 4089.29,497.922 5537.71,7312.2 3845.1,523.527 5781.86,7277.82 3601.29,566.719 6025,7225.81 3359.14,627.559 6265.85,7156.14 3119.92,706.027 6503.12,7068.9 2884.93,802.008 6735.52,6964.23 2655.45,915.289 6961.76,6842.42 2432.76,1045.56 7180.58,6703.8 2218.11,1192.42 7390.73,6548.82 2012.76,1355.38 7590.99,6378.03 1817.9,1533.84 7780.16,6192.06"
             style="fill:none;stroke:#ffff00;stroke-width:9.995;stroke-linecap:round;stroke-linejoin:round;stroke-miterlimit:10;stroke-dasharray:none;stroke-opacity:1"
             id="path32" /><path
             d="M 7780.16,6192.06 1634.7,1727.13 7957.1,5991.64 1464.3,1934.48 8120.7,5777.56 1307.76,2155.05 8269.93,5550.73 1166.1,2387.9 8403.79,5312.12 1040.28,2632.02 8521.35,5062.77 931.18,2886.32 8621.78,4803.8 839.613,3149.66 8704.29,4536.41 766.316,3420.8 8768.21,4261.83 711.926,3698.48 8812.93,3981.38 H 677.004 L 8837.95,3696.39 662.008,4268.11 8842.83,3408.27 667.309,4557.26 8827.28,3118.44 693.16,4847.4 8791.08,2828.36 739.734,5137.05 8734.12,2539.52 807.082,5424.72 8656.4,2253.39 895.148,5708.92 8558.03,1971.48 1003.78,5988.15 8439.21,1695.3 1132.7,6260.92 8300.29,1426.32 1281.53,6525.75 8141.67,1166.02 1449.79,6781.17 7963.91,915.828 1636.89,7025.77 7767.65,677.172"
             style="fill:none;stroke:#ffff00;stroke-width:9.995;stroke-linecap:round;stroke-linejoin:round;stroke-miterlimit:10;stroke-dasharray:none;stroke-opacity:1"
             id="path34" /><path
             d="M 7767.65,677.172 1842.12,7258.14 7553.64,451.414 2064.69,7476.95 7322.74,239.871 2303.7,7680.91 7075.88,43.8125"
             style="fill:none;stroke:#ffff00;stroke-width:9.995;stroke-linecap:round;stroke-linejoin:round;stroke-miterlimit:10;stroke-dasharray:none;stroke-opacity:1"
             id="path36" /><path
             d="m 7075.88,43.8125 1.7,-102.8906 33.28,42.3008 53.28,7.67574 -88.26,52.91406"
             style="fill:#ffff00;fill-opacity:1;fill-rule:evenodd;stroke:none"
             id="path38" /><path
             d="m 7075.88,43.8125 1.7,-102.8906 33.28,42.3008 53.28,7.67574 -88.26,52.91406"
             style="fill:none;stroke:#ffff00;stroke-width:9.995;stroke-linecap:round;stroke-linejoin:round;stroke-miterlimit:10;stroke-dasharray:none;stroke-opacity:1"
             id="path40" /><path
             d="m 4739.98,3910.02 h 20.98 l -29.23,-28.72 1.07,60.96 55.73,-58.73 -100.89,3.52 89.17,81.71 -7.38,-140.74 -106.63,120.53 180.47,-12.62 -152.76,-130.48 19.25,220.05 153.22,-185.87 -259.44,27.27 219.8,174.84 -36.66,-298.61 -195.32,254.54 337.51,-47.43 -290.05,-214.63 59.58,376.12 232.74,-326.29 -414.39,73.07 363.25,249.66 -87.91,-452.31 -265.36,400.9 489.81,-104.11 -439.18,-279.79 121.63,526.87 292.98,-478.09 -563.46,140.48 517.58,304.88 -160.65,-599.54 -315.48,557.62 635.07,-182.11 -598.17,-324.78 204.85,670.04 332.75,-639.22 -704.38,228.87 680.71,339.39 -254.15,-738.09 -344.66,722.61 771.1,-280.65 -764.9,-348.59"
             style="fill:none;stroke:#000000;stroke-width:9.995;stroke-linecap:round;stroke-linejoin:round;stroke-miterlimit:10;stroke-dasharray:none;stroke-opacity:1"
             id="path42" /><path
             d="m 4428.18,3572.55 308.41,803.41 351.12,-807.52 -834.98,337.35 850.47,352.28 -367.49,-865.77 -352.03,893.69 895.73,-398.81 -937.14,-350.38 431.28,924.87 347.32,-980.79 -953.14,464.87 1024.62,342.84 -499.59,-980.51 -336.92,1068.58 1006.94,-535.4 L 4250.14,3511.69 4822.42,4544.1 5143.21,3387.36 4086.32,3997.55 5287.19,4308.11 4638.05,3227.77 4339.16,4472.75 5441.92,3783.67 4152.88,3497.9 4882.87,4621.99 5154.07,3288.98 4009.75,4060.84 5386.6,4316.02 4571.95,3152.59 4334.24,4573.12 5515.62,3714.79 4051.62,3496 4954.5,4694.15 5152.93,3186.92 3939.21,4135.18 5489.4,4311.8 4494.94,3083.75 4341.57,4676.58 5582.71,3635.14 3947.58,3506.45 5036.75,4759.4 5139.32,3082.37"
             style="fill:none;stroke:#000000;stroke-width:9.995;stroke-linecap:round;stroke-linejoin:round;stroke-miterlimit:10;stroke-dasharray:none;stroke-opacity:1"
             id="path44" /><path
             d="M 5139.32,3082.37 3875.86,4220 5594.37,4295.03 4407.6,3022.38 4361.53,4781.89 5642.03,3545.32 3842,3529.62 5129,4816.61 5112.94,2976.6 3820.83,4314.63 5700.24,4265.41 4310.63,2969.58 4394.39,4887.79 5692.52,3446.07 3736.16,3565.73 5230.49,4864.73 5073.57,2870.89 3775.14,4418.3 5805.73,4222.77 4204.84,2926.39 4440.29,4992.98 5733.15,3338.2 3631.35,3614.91 5340.37,4902.75 5021.12,2766.55 3739.8,4530.14 5909.53,4167.05 4091.1,2893.77 4499.29,5096.14 5762.99,3222.63 3528.9,3677.16 5457.71,4929.75 4955.61,2664.9 3715.69,4649.19 6010.3,4098.3 3970.41,2872.61 4571.27,5195.96 5781.17,3100.36 3430.12,3752.37 5581.48,4944.89 4877.2,2567.25 3703.63,4774.39 6106.75,4016.69"
             style="fill:none;stroke:#000000;stroke-width:9.995;stroke-linecap:round;stroke-linejoin:round;stroke-miterlimit:10;stroke-dasharray:none;stroke-opacity:1"
             id="path46" /><path
             d="M 6106.75,4016.69 3843.84,2863.68 4656.05,5291.12 5786.92,2972.5 3336.33,3840.29 5710.58,4947.42 4786.14,2474.91 3704.36,4904.64 6197.56,3922.54 3712.52,2867.7 4753.28,5380.32 5779.56,2840.18 3248.82,3940.57 5843.82,4936.7 4682.84,2389.17"
             style="fill:none;stroke:#000000;stroke-width:9.995;stroke-linecap:round;stroke-linejoin:round;stroke-miterlimit:10;stroke-dasharray:none;stroke-opacity:1"
             id="path48" /></g></g></g></g></svg>
