<?xml version="1.0" encoding="UTF-8" standalone="no"?>
<svg
   xmlns:dc="http://purl.org/dc/elements/1.1/"
   xmlns:cc="http://creativecommons.org/ns#"
   xmlns:rdf="http://www.w3.org/1999/02/22-rdf-syntax-ns#"
   xmlns:svg="http://www.w3.org/2000/svg"
   xmlns="http://www.w3.org/2000/svg"
   xmlns:sodipodi="http://sodipodi.sourceforge.net/DTD/sodipodi-0.dtd"
   xmlns:inkscape="http://www.inkscape.org/namespaces/inkscape"
   version="1.1"
   id="svg2"
   xml:space="preserve"
   width="1276"
   height="1076"
   viewBox="0 0 1276 1076"
   sodipodi:docname="LFTurtle.eps"><metadata
     id="metadata8"><rdf:RDF><cc:Work
         rdf:about=""><dc:format>image/svg+xml</dc:format><dc:type
           rdf:resource="http://purl.org/dc/dcmitype/StillImage" /></cc:Work></rdf:RDF></metadata><defs
     id="defs6"><clipPath
       clipPathUnits="userSpaceOnUse"
       id="clipPath20"><path
         d="M 0,8068 H 9568 V 0 H 0 Z"
         id="path18" /></clipPath></defs><sodipodi:namedview
     pagecolor="#ffffff"
     bordercolor="#666666"
     borderopacity="1"
     objecttolerance="10"
     gridtolerance="10"
     guidetolerance="10"
     inkscape:pageopacity="0"
     inkscape:pageshadow="2"
     inkscape:window-width="640"
     inkscape:window-height="480"
     id="namedview4" /><g
     id="g10"
     inkscape:groupmode="layer"
     inkscape:label="ink_ext_XXXXXX"
     transform="matrix(1.3333333,0,0,-1.3333333,0,1076)"><g
       id="g12"
       transform="scale(0.1)"><g
         id="g14"><g
           id="g16"
           clip-path="url(#clipPath20)"><path
             d="M 12.3867,-17.9766 H 9587.59 V 8057.98 H 12.3867 v -8075.9566 0"
             style="fill:#c81401;fill-opacity:1;fill-rule:evenodd;stroke:none"
             id="path22" /><path
             d="m 4819.98,3990.02 h 19.99 l -15.04,-25.94 -19.87,34.69 49.98,-0.26 -30.35,-51.72 -34.45,60.89 79.96,-0.84 -45.93,-77.34 -48.76,87.24 109.93,-1.72 -61.78,-102.81 -62.79,113.75 139.9,-2.93 -77.89,-128.1 -76.55,140.4 169.85,-4.45 -94.27,-153.23 -90.03,167.21 199.8,-6.28 -110.91,-178.2 -103.23,194.16 229.73,-8.43 -127.83,-202.98 -116.15,221.23 259.64,-10.88 -145,-227.6 -128.79,248.46 289.53,-13.65 -162.43,-252.05 -141.15,275.83 319.4,-16.74 -180.12,-276.3 -153.22,303.32 349.24,-20.13 -198.07,-300.4 -165.01,330.96 379.06,-23.85 -216.28,-324.3 -176.52,358.73 408.85,-27.88 -234.74,-348.02 -187.73,386.62"
             style="fill:none;stroke:#000000;stroke-width:9.995;stroke-linecap:round;stroke-linejoin:round;stroke-miterlimit:10;stroke-dasharray:none;stroke-opacity:1"
             id="path24" /><path
             d="m 4619.95,4126.48 438.59,-32.21 -253.45,-371.56 -198.66,414.64 468.31,-36.86 -272.43,-394.91 -209.3,442.78 498,-41.82 -291.65,-418.06 -219.65,471.04 527.64,-47.09 -311.12,-441.04 -229.71,499.43 557.23,-52.67 -330.83,-463.82 -239.48,527.94 586.79,-58.57 -350.8,-486.4 -248.96,556.55 616.3,-64.77 -371.01,-508.78 -258.14,585.28 645.75,-71.29 -391.46,-530.97 -267.03,614.13 675.16,-78.12 -412.16,-552.95 -275.62,643.07 704.51,-85.25 -433.09,-574.73 -283.92,672.13 733.79,-92.71 -454.26,-596.3 -291.92,701.29 763.03,-100.46 -475.67,-617.67 -299.62,730.55 792.2,-108.52 -497.32,-638.84 -307.03,759.91 821.31,-116.89 -519.2,-659.79 -314.13,789.37"
             style="fill:none;stroke:#000000;stroke-width:9.995;stroke-linecap:round;stroke-linejoin:round;stroke-miterlimit:10;stroke-dasharray:none;stroke-opacity:1"
             id="path26" /><path
             d="m 4440.94,4291.54 850.35,-125.57 -541.32,-680.53 -320.93,818.92 879.32,-134.55 -563.66,-701.06 -327.43,848.57 908.21,-143.85 -586.23,-721.36 -333.63,878.29 937.04,-153.44 -609.03,-741.46 -339.54,908.12 965.8,-163.35 -632.07,-761.32 -345.12,938.02 994.46,-173.56 -655.32,-780.98 -350.41,968.02 1023.05,-184.08 -678.79,-800.4 -355.4,998.08 1051.56,-194.89 -702.49,-819.61 -360.08,1028.23 1079.98,-206.02 -726.4,-838.57 L 4338.4,4411.64 5446.71,4194.2 4696.18,3336.87 4327.66,4425.62 5464.2,4196.45 4689.33,3320.61 4317.05,4439.73 5481.74,4198.53 4682.3,3304.41 4306.57,4453.95 5499.31,4200.43 4675.1,3288.25 4296.23,4468.3 l 1220.7,-266.15 -849.2,-929.99 -381.71,1210.62"
             style="fill:none;stroke:#000000;stroke-width:9.995;stroke-linecap:round;stroke-linejoin:round;stroke-miterlimit:10;stroke-dasharray:none;stroke-opacity:1"
             id="path28" /><path
             d="m 4286.02,4482.78 1248.55,-279.09 -874.39,-947.56 -384.23,1241.24 1276.3,-292.32 -899.79,-964.9 -386.44,1271.93 1303.95,-305.84 -925.39,-982 -388.35,1302.67 1331.48,-319.66 -951.19,-998.86 -389.93,1333.46 1358.9,-333.78 L 4628.29,3192.6 4237.07,4556.91 5623.3,4208.71 4619.88,3176.88 4227.71,4572.09 5641.13,4209.18 4611.31,3161.23 4218.48,4587.38 5658.99,4209.46 4602.57,3145.64 4209.41,4602.77 5676.88,4209.57 4593.66,3130.12 4200.47,4618.29 5694.79,4209.49 4584.58,3114.68 4191.68,4633.91 5712.72,4209.23 4575.34,3099.3 4183.04,4649.64 5730.67,4208.79 4565.92,3084 4174.55,4665.48 5748.64,4208.16 4556.34,3068.77 4166.2,4681.42 5766.63,4207.36 4546.59,3053.63 4158,4697.48"
             style="fill:none;stroke:#000000;stroke-width:9.995;stroke-linecap:round;stroke-linejoin:round;stroke-miterlimit:10;stroke-dasharray:none;stroke-opacity:1"
             id="path30" /><path
             d="M 4158,4697.48 5784.63,4206.37 4536.68,3038.55 4149.96,4713.63 5802.65,4205.2 4526.6,3023.56 4142.06,4729.89 5820.69,4203.84 4516.36,3008.64 4134.32,4746.25 5838.73,4202.3 4505.95,2993.81 4126.73,4762.71 5856.79,4200.59 4495.38,2979.06 4119.29,4779.28 5874.85,4198.68 4484.64,2964.4 4112.01,4795.94 5892.93,4196.6 4473.75,2949.82 4104.89,4812.7 5911,4194.33 4462.69,2935.32 4097.91,4829.56 5929.09,4191.88 4451.46,2920.92 4091.1,4846.51 5947.18,4189.24 4440.09,2906.6 4084.45,4863.55 5965.27,4186.42 4428.54,2892.38 4077.95,4880.7 5983.36,4183.41 4416.84,2878.24 4071.61,4897.93 6001.45,4180.23 4404.98,2864.2 4065.44,4915.25 6019.54,4176.85 4392.97,2850.25 4059.42,4932.66"
             style="fill:none;stroke:#000000;stroke-width:9.995;stroke-linecap:round;stroke-linejoin:round;stroke-miterlimit:10;stroke-dasharray:none;stroke-opacity:1"
             id="path32" /><path
             d="M 4059.42,4932.66 6037.62,4173.3 4380.79,2836.4 4053.57,4950.15 6055.7,4169.55 4368.46,2822.65 4047.88,4967.74 6073.77,4165.63 4355.97,2808.99 4042.35,4985.41 6091.84,4161.52 4343.33,2795.43 4036.98,5003.17 6109.89,4157.23 4330.53,2781.98 4031.78,5021.01 6127.94,4152.75 4317.58,2768.63 4026.75,5038.93 6145.97,4148.09 4304.48,2755.37 4021.88,5056.93 6163.99,4143.24 4291.22,2742.23 4017.18,5075.01 6182,4138.21 4277.81,2729.18 4012.64,5093.17 6199.98,4133 4264.25,2716.25 4008.28,5111.41 6217.95,4127.59 4250.54,2703.42 4004.08,5129.72 6235.91,4122.01 4236.68,2690.71 4000.05,5148.11 6253.84,4116.25 4222.67,2678.1 3996.2,5166.57 6271.74,4110.29 4208.51,2665.6 3992.52,5185.1"
             style="fill:none;stroke:#000000;stroke-width:9.995;stroke-linecap:round;stroke-linejoin:round;stroke-miterlimit:10;stroke-dasharray:none;stroke-opacity:1"
             id="path34" /><path
             d="M 3992.52,5185.1 6289.63,4104.16 4194.21,2653.22 3989,5203.7 6307.48,4097.84 4179.76,2640.95 3985.66,5222.37 6325.32,4091.34 4165.16,2628.8 3982.49,5241.11 6343.12,4084.65 4150.42,2616.76 3979.49,5259.92 6360.89,4077.78 4135.54,2604.84 3976.67,5278.79 6378.64,4070.73 4120.5,2593.04 3974.02,5297.73 6396.35,4063.49 4105.34,2581.36 3971.55,5316.72 6414.03,4056.07 4090.02,2569.8 3969.26,5335.79 6431.67,4048.46 4074.57,2558.37 3967.14,5354.91 6449.28,4040.68 4058.98,2547.05 3965.2,5374.09 6466.85,4032.71 4043.25,2535.87 3963.43,5393.32 6484.38,4024.56 4027.38,2524.8 3961.84,5412.61 6501.86,4016.23 4011.37,2513.87 3960.44,5431.96 6519.31,4007.71 3995.23,2503.06 l -36.02,2948.3"
             style="fill:none;stroke:#000000;stroke-width:9.995;stroke-linecap:round;stroke-linejoin:round;stroke-miterlimit:10;stroke-dasharray:none;stroke-opacity:1"
             id="path36" /><path
             d="M 3959.21,5451.36 6536.71,3999.02 3978.95,2492.38 3958.16,5470.82 6554.07,3990.14 3962.54,2481.83 3957.29,5490.32 6571.38,3981.08 3945.99,2471.41 3956.6,5509.88 6588.64,3971.84 3929.32,2461.13 3956.09,5529.48 6605.85,3962.41 3912.51,2450.98 3955.77,5549.13 6623.02,3952.81 3895.57,2440.96 3955.63,5568.82 6640.13,3943.03 3878.5,2431.08 3955.66,5588.56 6657.18,3933.07 3861.3,2421.34 l 94.58,3187 L 6674.18,3922.92 3843.97,2411.73 3956.29,5628.16 6691.13,3912.6 3826.52,2402.27 3956.88,5648.02 6708.01,3902.1 3808.94,2392.94 3957.65,5667.92 6724.84,3891.42 3791.23,2383.75 l 167.38,3304.11 2783,-1807.3 -2968.2,-1505.85 186.35,3333.12 2798.55,-1838.3 -3002.86,-1503.72 205.64,3362.03"
             style="fill:none;stroke:#000000;stroke-width:9.995;stroke-linecap:round;stroke-linejoin:round;stroke-miterlimit:10;stroke-dasharray:none;stroke-opacity:1"
             id="path38" /><path
             d="M 3961.09,5727.84 6774.95,3858.31 3737.38,2357.05 3962.6,5747.88 6791.53,3846.92 3719.19,2348.44 3964.3,5767.95 6808.04,3835.35 3700.88,2339.98 3966.19,5788.05 6824.48,3823.61 3682.45,2331.66 3968.27,5808.18 6840.85,3811.69 3663.89,2323.49 3970.53,5828.34 6857.15,3799.59 3645.23,2315.47 3972.98,5848.53 6873.38,3787.32 3626.45,2307.6 3975.62,5868.73 6889.54,3774.87 3607.55,2299.88 3978.45,5888.96 6905.62,3762.25 3588.54,2292.32 3981.46,5909.22 6921.63,3749.45 3569.42,2284.91 3984.66,5929.49 6937.56,3736.48 3550.18,2277.65 3988.06,5949.79 6953.41,3723.34 3530.84,2270.54 3991.64,5970.09 6969.18,3710.02 3511.39,2263.6 3995.42,5990.42 6984.86,3696.54 3491.83,2256.81 3999.38,6010.76"
             style="fill:none;stroke:#000000;stroke-width:9.995;stroke-linecap:round;stroke-linejoin:round;stroke-miterlimit:10;stroke-dasharray:none;stroke-opacity:1"
             id="path40" /><path
             d="M 3999.38,6010.76 7000.47,3682.88 3472.16,2250.18 4003.54,6031.11 7015.99,3669.04 3452.39,2243.7 4007.88,6051.47 7031.43,3655.04 3432.51,2237.39 4012.41,6071.85 7046.77,3640.87 3412.53,2231.24 4017.14,6092.23 7062.03,3626.53 3392.44,2225.25 4022.06,6112.62 7077.2,3612.02 3372.26,2219.42 4027.17,6133.02 7092.28,3597.34 3351.97,2213.76 4032.47,6153.42 7107.27,3582.49 3331.59,2208.26 4037.96,6173.82 7122.16,3567.48 3311.11,2202.92 4043.65,6194.23 7136.95,3552.3 3290.53,2197.75 4049.53,6214.63 7151.66,3536.95 3269.86,2192.75 4055.6,6235.04 7166.26,3521.43 3249.09,2187.92 4061.86,6255.44 7180.76,3505.75 3228.23,2183.26 4068.31,6275.83 7195.16,3489.91 3207.28,2178.76 4074.96,6296.22"
             style="fill:none;stroke:#000000;stroke-width:9.995;stroke-linecap:round;stroke-linejoin:round;stroke-miterlimit:10;stroke-dasharray:none;stroke-opacity:1"
             id="path42" /><path
             d="M 4074.96,6296.22 7209.46,3473.91 3186.23,2174.44 4081.8,6316.61 7223.66,3457.73 3165.1,2170.28 4088.84,6336.98 7237.75,3441.4 3143.88,2166.3 4096.06,6357.35 7251.74,3424.91 3122.57,2162.49 4103.48,6377.7 7265.63,3408.25 3101.18,2158.86 4111.09,6398.04 7279.39,3391.43 3079.7,2155.4 4118.9,6418.37 7293.06,3374.46 3058.14,2152.11 4126.9,6438.68 7306.61,3357.32 3036.5,2149 4135.09,6458.97 7320.05,3340.03 3014.77,2146.07 4143.48,6479.24 7333.38,3322.58 2992.97,2143.32 4152.06,6499.49 7346.59,3304.97 2971.09,2140.74 4160.83,6519.72 7359.68,3287.2 2949.13,2138.34 4169.8,6539.93 7372.66,3269.28 2927.1,2136.12 4178.96,6560.11 7385.52,3251.21 2904.99,2134.09 4188.32,6580.27"
             style="fill:none;stroke:#000000;stroke-width:9.995;stroke-linecap:round;stroke-linejoin:round;stroke-miterlimit:10;stroke-dasharray:none;stroke-opacity:1"
             id="path44" /><path
             d="M 4188.32,6580.27 7398.25,3232.98 2882.81,2132.23 4197.86,6600.39 7410.87,3214.59 2860.55,2130.55 4207.6,6620.5 7423.37,3196.05 2838.23,2129.06 4217.54,6640.56 7435.74,3177.37 2815.84,2127.75 4227.66,6660.6 7447.98,3158.53 2793.38,2126.63 4237.98,6680.6 7460.1,3139.54 2770.85,2125.69 4248.5,6700.57 7472.1,3120.4 2748.26,2124.93 4259.21,6720.5 7483.96,3101.11 2725.61,2124.36 4270.11,6740.39 7495.7,3081.68 2702.89,2123.98 4281.2,6760.25 7507.3,3062.1 2680.11,2123.79 4292.48,6780.05 7518.77,3042.37 2657.27,2123.78 4303.96,6799.82 7530.11,3022.5 2634.37,2123.96 4315.63,6819.55 7541.31,3002.48 2611.41,2124.33 4327.5,6839.23 7552.37,2982.32 2588.4,2124.89 4339.55,6858.86"
             style="fill:none;stroke:#000000;stroke-width:9.995;stroke-linecap:round;stroke-linejoin:round;stroke-miterlimit:10;stroke-dasharray:none;stroke-opacity:1"
             id="path46" /><path
             d="M 4339.55,6858.86 7563.3,2962.02 2565.33,2125.64 4351.8,6878.45 7574.09,2941.57 2542.21,2126.58 4364.23,6897.98 7584.74,2920.98 2519.04,2127.71 4376.86,6917.46 7595.25,2900.26 2495.82,2129.04 4389.69,6936.89 7605.63,2879.39 2472.55,2130.56 4402.7,6956.27 7615.85,2858.39 2449.23,2132.27 4415.9,6975.59 7625.93,2837.25 2425.87,2134.17 4429.3,6994.86 7635.87,2815.97 2402.46,2136.27 4442.88,7014.06 7645.66,2794.56 2379.01,2138.56 4456.66,7033.2 7655.3,2773.01 2355.51,2141.05 4470.63,7052.29 7664.79,2751.33 2331.98,2143.73 4484.78,7071.3 7674.14,2729.52 2308.4,2146.62 4499.13,7090.26 7683.33,2707.58 2284.79,2149.69 4513.66,7109.14 7692.37,2685.5 2261.14,2152.97 4528.38,7127.96"
             style="fill:none;stroke:#000000;stroke-width:9.995;stroke-linecap:round;stroke-linejoin:round;stroke-miterlimit:10;stroke-dasharray:none;stroke-opacity:1"
             id="path48" /><path
             d="M 4528.38,7127.96 7701.25,2663.3 2237.46,2156.44 4543.29,7146.72 7709.98,2640.97 2213.74,2160.11 4558.39,7165.4 7718.56,2618.51 2189.99,2163.98 4573.68,7184.01 7726.98,2595.92 2166.21,2168.04 4589.15,7202.55 7735.25,2573.21 2142.4,2172.31 4604.82,7221.01 7743.35,2550.38 2118.56,2176.78 4620.66,7239.39 7751.29,2527.41 2094.7,2181.44 4636.7,7257.7 7759.08,2504.33 2070.81,2186.31 4652.92,7275.93 7766.7,2481.13 2046.9,2191.38 4669.33,7294.07 7774.16,2457.81 2022.96,2196.65 4685.92,7312.14 7781.45,2434.37 1999.01,2202.12 4702.7,7330.13 7788.58,2410.8 1975.04,2207.79 4719.66,7348.02 7795.54,2387.13 1951.04,2213.67 4736.8,7365.83 7802.34,2363.34 l -5875.3,-143.59 2827.1,5163.8"
             style="fill:none;stroke:#000000;stroke-width:9.995;stroke-linecap:round;stroke-linejoin:round;stroke-miterlimit:10;stroke-dasharray:none;stroke-opacity:1"
             id="path50" /><path
             d="M 4754.14,7383.55 7808.97,2339.43 1903.01,2226.03 4771.65,7401.19 7815.43,2315.41 1878.97,2232.52 4789.34,7418.73 7821.71,2291.27 1854.93,2239.2 4807.22,7436.18 7827.83,2267.03 1830.87,2246.1 4825.28,7453.54 7833.78,2242.68 1806.8,2253.19 4843.52,7470.8 7839.55,2218.21 1782.73,2260.5 4861.94,7487.97 7845.14,2193.64 1758.64,2268 4880.54,7505.04 7850.57,2168.96 1734.56,2275.71 4899.32,7522.01 7855.81,2144.17 1710.47,2283.63 4918.29,7538.88 7860.88,2119.29 1686.38,2291.75 4937.43,7555.64 7865.77,2094.29 1662.29,2300.08 4956.74,7572.3 7870.49,2069.2 1638.2,2308.62 4976.24,7588.86 7875.02,2044 1614.12,2317.36 4995.91,7605.32 7879.37,2018.71 1590.04,2326.31 5015.76,7621.66"
             style="fill:none;stroke:#000000;stroke-width:9.995;stroke-linecap:round;stroke-linejoin:round;stroke-miterlimit:10;stroke-dasharray:none;stroke-opacity:1"
             id="path52" /><path
             d="M 5015.76,7621.66 7883.54,1993.31 1565.96,2335.46 5035.78,7637.89 7887.53,1967.82 1541.9,2344.82 5055.98,7654.02 7891.33,1942.23 1517.84,2354.39 5076.35,7670.03 7894.95,1916.55 1493.79,2364.17 5096.9,7685.93 7898.39,1890.78 1469.76,2374.15 5117.62,7701.72 7901.63,1864.91 1445.73,2384.34 5138.51,7717.39 7904.7,1838.95 1421.73,2394.74 5159.58,7732.94 7907.57,1812.9 1397.74,2405.34 5180.82,7748.37 7910.25,1786.77 1373.77,2416.16 5202.22,7763.68 7912.75,1760.54 1349.82,2427.18 5223.8,7778.88 7915.05,1734.23 1325.89,2438.41 5245.55,7793.95 7917.16,1707.83 1301.98,2449.84 5267.46,7808.89 7919.08,1681.36 1278.09,2461.49 5289.55,7823.71 7920.81,1654.79 1254.23,2473.34 5311.8,7838.4"
             style="fill:none;stroke:#000000;stroke-width:9.995;stroke-linecap:round;stroke-linejoin:round;stroke-miterlimit:10;stroke-dasharray:none;stroke-opacity:1"
             id="path54" /><path
             d="M 5311.8,7838.4 7922.34,1628.15 1230.41,2485.41 5334.21,7852.96 7923.68,1601.43 1206.6,2497.68 5356.8,7867.4 7924.83,1574.63 1182.83,2510.16 5379.54,7881.7 7925.78,1547.75 1159.09,2522.84 5402.46,7895.88 7926.53,1520.8 1135.39,2535.74 5425.53,7909.91 7927.08,1493.77 1111.71,2548.84 5448.77,7923.82 7927.44,1466.67 1088.08,2562.16 5472.17,7937.58 7927.59,1439.5 1064.48,2575.68 5495.73,7951.21 7927.55,1412.25 1040.93,2589.41 5519.45,7964.7 7927.3,1384.94 1017.41,2603.34 5543.33,7978.05 7926.86,1357.56 993.934,2617.49 5567.38,7991.26 7926.21,1330.12 970.504,2631.84 5591.57,8004.33 7925.36,1302.61 947.121,2646.4 5615.93,8017.25 7924.3,1275.03 923.785,2661.17 5640.44,8030.03"
             style="fill:none;stroke:#000000;stroke-width:9.995;stroke-linecap:round;stroke-linejoin:round;stroke-miterlimit:10;stroke-dasharray:none;stroke-opacity:1"
             id="path56" /><path
             d="M 5640.44,8030.03 7923.04,1247.4 900.496,2676.15 5665.11,8042.66 7921.58,1219.7 877.258,2691.34 5689.93,8055.14 7919.91,1191.95 854.074,2706.73 5714.9,8067.47 7918.04,1164.13 830.941,2722.33 5740.03,8079.66 7915.95,1136.26 807.863,2738.14 5765.3,8091.68 7913.66,1108.33 784.844,2754.15 5790.73,8103.56 7911.17,1080.35 761.879,2770.37 5816.32,8115.29 7908.46,1052.32 738.977,2786.8 5842.04,8126.86 7905.55,1024.24 716.133,2803.44 5867.92,8138.27 7902.42,996.105 693.355,2820.28 5893.95,8149.52 7899.09,967.922 670.637,2837.33 5920.12,8160.62 7895.54,939.695 647.988,2854.58 5946.43,8171.55 7891.78,911.422 625.406,2872.04 5972.89,8182.33 7887.81,883.105 602.891,2889.71 5999.5,8192.94"
             style="fill:none;stroke:#000000;stroke-width:9.995;stroke-linecap:round;stroke-linejoin:round;stroke-miterlimit:10;stroke-dasharray:none;stroke-opacity:1"
             id="path58" /><path
             d="M 5999.5,8192.94 7883.63,854.746 580.445,2907.58 6026.24,8203.38 7879.23,826.348 558.074,2925.66 6053.13,8213.67 7874.62,797.91 535.777,2943.94 6080.16,8223.78 7869.79,769.434 513.551,2962.42 6107.33,8233.73 7864.75,740.918 491.406,2981.11 6134.63,8243.51 7859.49,712.371 469.336,3000 6162.07,8253.12 7854.02,683.789 447.344,3019.11 6189.66,8262.55 7848.33,655.172 425.438,3038.41 6217.37,8271.82 7842.43,626.527 403.609,3057.91 6245.22,8280.91 7836.3,597.855 381.867,3077.62 6273.2,8289.83 7829.96,569.152 360.211,3097.53 6301.32,8298.57 7823.4,540.426 338.641,3117.64 6329.56,8307.14 7816.63,511.676 317.16,3137.95 6357.94,8315.52 7809.63,482.898 295.77,3158.46 6386.44,8323.73"
             style="fill:none;stroke:#000000;stroke-width:9.995;stroke-linecap:round;stroke-linejoin:round;stroke-miterlimit:10;stroke-dasharray:none;stroke-opacity:1"
             id="path60" /><path
             d="M 6386.44,8323.73 7802.41,454.102 274.469,3179.18 6415.07,8331.76 7794.97,425.285 253.262,3200.1 6443.83,8339.61 7787.32,396.453 232.152,3221.21 6472.71,8347.27 7779.44,367.598 211.137,3242.53 6501.73,8354.75 7771.34,338.73 190.219,3264.04 6530.86,8362.05 7763.02,309.852 169.398,3285.75 6560.11,8369.16 7754.47,280.957 148.684,3307.67 6589.49,8376.08 7745.71,252.051 128.066,3329.78 6618.98,8382.82 7736.72,223.137 107.555,3352.09 6648.6,8389.36 7727.51,194.215 87.1484,3374.59 6678.33,8395.72 7718.07,165.285 66.8516,3397.29 6708.18,8401.89 7708.41,136.352 46.6602,3420.18 6738.14,8407.86 7698.53,107.418 26.5781,3443.28 6768.21,8413.64 7688.43,78.4766 6.60547,3466.56 6798.4,8419.23"
             style="fill:none;stroke:#000000;stroke-width:9.995;stroke-linecap:round;stroke-linejoin:round;stroke-miterlimit:10;stroke-dasharray:none;stroke-opacity:1"
             id="path62" /><path
             d="M 6798.4,8419.23 7678.09,49.5391 -13.25,3490.05 6828.7,8424.62 7667.54,20.6055 -32.9961,3513.72 6859.12,8429.82 7656.75,-8.32813 -52.6211,3537.59 6889.64,8434.81 7645.75,-37.2578 -72.1328,3561.65 6920.27,8439.61 7634.52,-66.1797 -91.5234,3585.9 6951,8444.21 7623.06,-95.0977 -110.797,3610.35 6981.84,8448.61 7611.38,-124 -129.945,3634.98 7012.79,8452.82 7599.46,-152.895 -148.973,3659.81 7043.83,8456.81 7587.32,-181.777 -167.875,3684.82 7074.98,8460.61 7574.96,-210.648 -186.652,3710.03 7106.23,8464.2 7562.37,-239.5 -205.301,3735.42 7137.58,8467.58 7549.55,-268.336 -223.82,3761 7169.02,8470.76 7536.51,-297.152 -242.211,3786.77 7200.57,8473.73 7523.23,-325.945 -260.469,3812.72 7232.2,8476.5"
             style="fill:none;stroke:#000000;stroke-width:9.995;stroke-linecap:round;stroke-linejoin:round;stroke-miterlimit:10;stroke-dasharray:none;stroke-opacity:1"
             id="path64" /><path
             d="M 7232.2,8476.5 7509.73,-354.719 -278.594,3838.86 7263.93,8479.06 7496.01,-383.473 -296.582,3865.19 7295.76,8481.4 7482.05,-412.195 -314.434,3891.7 7327.68,8483.54 7467.87,-440.895 -332.152,3918.39 7359.68,8485.46 7453.46,-469.563 -349.727,3945.27 7391.77,8487.18 7438.82,-498.203 -367.164,3972.32 7423.95,8488.68 V -526.813 L -384.461,3999.57 7456.22,8489.96 7408.86,-555.387 -401.609,4026.98 7488.57,8491.04 7393.53,-583.926 -418.617,4054.59 7521,8491.89 7377.98,-612.43 -435.477,4082.37 7553.52,8492.53 7362.2,-640.898 -452.188,4110.32 7586.11,8492.95 7346.19,-669.324 -468.754,4138.46 7618.79,8493.16 7329.95,-697.707 -485.164,4166.77 7651.54,8493.14 7313.49,-726.051 -501.426,4195.27 7684.37,8492.91"
             style="fill:none;stroke:#000000;stroke-width:9.995;stroke-linecap:round;stroke-linejoin:round;stroke-miterlimit:10;stroke-dasharray:none;stroke-opacity:1"
             id="path66" /><path
             d="M 7684.37,8492.91 7296.79,-754.348 -517.535,4223.93 7717.27,8492.45 7279.87,-782.598 -533.488,4252.77 7750.25,8491.77 7262.72,-810.805 -549.285,4281.78 7783.3,8490.87 7245.34,-838.957 -564.926,4310.96 7816.41,8489.75 7227.73,-867.063 -580.406,4340.32 7849.61,8488.4 7209.9,-895.113 -595.73,4369.85 7882.86,8486.83 7191.84,-923.109 -610.891,4399.55 7916.18,8485.04 7173.54,-951.051 -625.887,4429.42 7949.57,8483.02 7155.02,-978.934 -640.719,4459.45 7983.02,8480.77 7136.28,-1006.76 -655.387,4489.66 8016.53,8478.29 7117.3,-1034.52 -669.887,4520.03 8050.1,8475.59 7098.1,-1062.22 -684.219,4550.56 8083.73,8472.66 7078.67,-1089.86 -698.383,4581.27 8117.42,8469.5 7059.01,-1117.43 -712.375,4612.13 8151.16,8466.11"
             style="fill:none;stroke:#000000;stroke-width:9.995;stroke-linecap:round;stroke-linejoin:round;stroke-miterlimit:10;stroke-dasharray:none;stroke-opacity:1"
             id="path68" /><path
             d="M 8151.16,8466.11 7039.13,-1144.94 -726.195,4643.16 8184.96,8462.48 7019.02,-1172.37 -739.84,4674.35 8218.81,8458.63 6998.68,-1199.74 -753.313,4705.7 8252.71,8454.54 6978.11,-1227.03 -766.609,4737.21 8286.67,8450.23 6957.32,-1254.25 -779.727,4768.88 8320.67,8445.67 6936.3,-1281.39 -792.664,4800.7 8354.71,8440.89 6915.06,-1308.46 -805.422,4832.68 8388.81,8435.87 6893.59,-1335.45 -818,4864.82 8422.95,8430.61 6871.89,-1362.36 -830.395,4897.12 8457.13,8425.12 6849.97,-1389.19 -842.605,4929.57 8491.34,8419.39 6827.82,-1415.93 -854.633,4962.17 8525.61,8413.43 6805.45,-1442.59 -866.473,4994.92 8559.9,8407.22 6782.86,-1469.16 -878.125,5027.83 8594.23,8400.78 6760.04,-1495.64 -889.586,5060.88 8628.6,8394.11"
             style="fill:none;stroke:#000000;stroke-width:9.995;stroke-linecap:round;stroke-linejoin:round;stroke-miterlimit:10;stroke-dasharray:none;stroke-opacity:1"
             id="path70" /><path
             d="M 8628.6,8394.11 6737,-1522.04 -900.859,5094.08 8663,8387.18 6713.73,-1548.34 -911.941,5127.43 8697.44,8380.03 6690.24,-1574.55 -922.828,5160.93 8731.9,8372.63 6666.53,-1600.66 -933.523,5194.57 8766.39,8364.99 6642.59,-1626.68 -944.023,5228.36 8800.91,8357.11 6618.44,-1652.6 -954.328,5262.28 8835.45,8348.99 6594.06,-1678.42 -964.434,5296.35 8870.02,8340.62 6569.46,-1704.14 -974.34,5330.56 8904.61,8332.02 6544.64,-1729.76 -984.047,5364.91 8939.21,8323.17 6519.59,-1755.27 -993.551,5399.4 8973.84,8314.07 6494.33,-1780.68 -1002.86,5434.03 9008.48,8304.73 6468.85,-1805.97 -1011.95,5468.79 9043.14,8295.15 6443.15,-1831.16 -1020.85,5503.69 9077.82,8285.33 6417.23,-1856.24 -1029.54,5538.72 9112.5,8275.25"
             style="fill:none;stroke:#000000;stroke-width:9.995;stroke-linecap:round;stroke-linejoin:round;stroke-miterlimit:10;stroke-dasharray:none;stroke-opacity:1"
             id="path72" /><path
             d="M 9112.5,8275.25 6391.09,-1881.21 -1038.02,5573.88 9147.2,8264.94 6364.73,-1906.06 -1046.3,5609.18 9181.91,8254.37 6338.16,-1930.79 -1054.36,5644.6 9216.62,8243.56 6311.37,-1955.41 -1062.21,5680.16 9251.34,8232.5 6284.36,-1979.91 -1069.86,5715.84 9286.07,8221.2 6257.14,-2004.29 -1077.29,5751.65 9320.79,8209.65 6229.7,-2028.55 -1084.5,5787.58 9355.52,8197.85 6202.04,-2052.68 -1091.51,5823.64 9390.25,8185.8 6174.18,-2076.69 -1098.29,5859.82 9424.97,8173.51 6146.09,-2100.57 -1104.86,5896.12 9459.69,8160.96 6117.8,-2124.32 -1111.21,5932.54 9494.41,8148.17 6089.29,-2147.95 -1117.34,5969.08 9529.11,8135.13 6060.57,-2171.44 -1123.25,6005.73 9563.81,8121.83 6031.64,-2194.8 -1128.95,6042.51 9598.5,8108.29"
             style="fill:none;stroke:#000000;stroke-width:9.995;stroke-linecap:round;stroke-linejoin:round;stroke-miterlimit:10;stroke-dasharray:none;stroke-opacity:1"
             id="path74" /><path
             d="M 9598.5,8108.29 6002.5,-2218.02 -1134.41,6079.4 9633.18,8094.5 5973.14,-2241.11 -1139.66,6116.4 9667.84,8080.45 5943.58,-2264.06 -1144.67,6153.51 9702.48,8066.16 5913.81,-2286.87 -1149.47,6190.74 9737.11,8051.61 5883.83,-2309.54 -1154.04,6228.07 9771.72,8036.82 5853.64,-2332.07 -1158.38,6265.52 9806.31,8021.77 5823.25,-2354.45 -1162.48,6303.06 9840.88,8006.47 5792.65,-2376.69 -1166.37,6340.72 9875.42,7990.92 5761.84,-2398.78 -1170.02,6378.48 9909.93,7975.12 5730.83,-2420.72 -1173.44,6416.34 9944.42,7959.07 5699.62,-2442.51 -1176.63,6454.3 9978.88,7942.76 5668.2,-2464.15 -1179.58,6492.36 10013.3,7926.21 5636.57,-2485.64 -1182.3,6530.52 10047.7,7909.39 5604.75,-2506.97 -1184.78,6568.78 10082.1,7892.33"
             style="fill:none;stroke:#000000;stroke-width:9.995;stroke-linecap:round;stroke-linejoin:round;stroke-miterlimit:10;stroke-dasharray:none;stroke-opacity:1"
             id="path76" /><path
             d="M 10082.1,7892.33 5572.73,-2528.15 -1187.03,6607.14 10116.4,7875.02 5540.5,-2549.16 -1189.04,6645.58 10150.7,7857.45 5508.08,-2570.02 -1190.81,6684.13 10184.9,7839.63 5475.45,-2590.72 -1192.34,6722.76 10219.1,7821.56 5442.63,-2611.25 -1193.63,6761.48 10253.3,7803.23 5409.61,-2631.63 -1194.68,6800.29 10287.4,7784.65 5376.39,-2651.83 -1195.5,6839.18 10321.5,7765.82 5342.98,-2671.87 -1196.06,6878.17 10355.5,7746.74 5309.38,-2691.74 -1196.39,6917.23 10389.5,7727.4 5275.58,-2711.44 -1196.46,6956.38 10423.4,7707.81 5241.59,-2730.97 -1196.3,6995.61 10457.3,7687.96 5207.4,-2750.32 -1195.89,7034.93 10491.1,7667.87 5173.02,-2769.5 -1195.23,7074.31 10524.9,7647.52 5138.46,-2788.51 -1194.32,7113.78 10558.6,7626.92"
             style="fill:none;stroke:#000000;stroke-width:9.995;stroke-linecap:round;stroke-linejoin:round;stroke-miterlimit:10;stroke-dasharray:none;stroke-opacity:1"
             id="path78" /><path
             d="M 10558.6,7626.92 5103.7,-2807.34 -1193.16,7153.32 10592.2,7606.07 5068.75,-2825.99 -1191.76,7192.93 10625.8,7584.96 5033.62,-2844.46 -1190.11,7232.61 10659.3,7563.6 4998.3,-2862.75 -1188.2,7272.37 10692.8,7541.98 4962.8,-2880.85 -1186.04,7312.19 10726.2,7520.12 4927.11,-2898.77 -1183.63,7352.08 10759.5,7498 4891.23,-2916.5 -1180.96,7392.04 10792.8,7475.63 4855.17,-2934.05 -1178.05,7432.06 10825.9,7453.01 4818.93,-2951.41 -1174.88,7472.14 10859,7430.14 4782.51,-2968.57 -1171.45,7512.29 10892.1,7407.01 4745.91,-2985.55 -1167.76,7552.49 10925,7383.64 4709.13,-3002.33 -1163.82,7592.76 10957.9,7360.01 4672.18,-3018.92 -1159.62,7633.07 10990.7,7336.13 4635.04,-3035.31 -1155.16,7673.45 11023.4,7312"
             style="fill:none;stroke:#000000;stroke-width:9.995;stroke-linecap:round;stroke-linejoin:round;stroke-miterlimit:10;stroke-dasharray:none;stroke-opacity:1"
             id="path80" /><path
             d="M 11023.4,7312 4597.73,-3051.51 -1150.45,7713.88 11056,7287.62 4560.25,-3067.5 -1145.47,7754.35 11088.5,7262.98 4522.59,-3083.3 -1140.24,7794.88 11121,7238.1 4484.75,-3098.89 -1134.74,7835.46 11153.4,7212.97 4446.75,-3114.29 -1128.98,7876.08 11185.6,7187.59 4408.58,-3129.47 -1122.96,7916.75 11217.8,7161.95 4370.23,-3144.45 -1116.67,7957.46 11249.9,7136.07 4331.72,-3159.23 -1110.13,7998.21 11281.9,7109.94 4293.05,-3173.8 -1103.31,8039 11313.8,7083.56 4254.2,-3188.15 -1096.23,8079.84 11345.5,7056.93 4215.19,-3202.3 -1088.89,8120.7 11377.2,7030.06 4176.02,-3216.23 -1081.28,8161.61 11408.8,7002.94 4136.68,-3229.95 -1073.41,8202.54 11440.3,6975.57 4097.18,-3243.46 -1065.26,8243.51 11471.7,6947.95"
             style="fill:none;stroke:#000000;stroke-width:9.995;stroke-linecap:round;stroke-linejoin:round;stroke-miterlimit:10;stroke-dasharray:none;stroke-opacity:1"
             id="path82" /><path
             d="M 11471.7,6947.95 4057.53,-3256.74 -1056.85,8284.51 11502.9,6920.08 4017.71,-3269.81 -1048.18,8325.54 11534.1,6891.97 3977.73,-3282.66 -1039.23,8366.59 11565.1,6863.61 3937.6,-3295.3 -1030.01,8407.67 11596.1,6835.01 3897.32,-3307.71 -1020.53,8448.77 11626.9,6806.16 3856.88,-3319.89 -1010.77,8489.9 11657.6,6777.07 3816.28,-3331.86 -1000.74,8531.04 11688.1,6747.73 3775.54,-3343.59 -990.445,8572.2 11718.6,6718.15 3734.64,-3355.11 -979.875,8613.38 11748.9,6688.33 3693.59,-3366.39 -969.031,8654.57 11779.2,6658.26 3652.4,-3377.45 -957.918,8695.78 11809.2,6627.95 3611.06,-3388.27 -946.531,8737 11839.2,6597.4 3569.57,-3398.86 -934.867,8778.23 11869,6566.61 3527.94,-3409.22 -922.934,8819.46 11898.7,6535.57"
             style="fill:none;stroke:#000000;stroke-width:9.995;stroke-linecap:round;stroke-linejoin:round;stroke-miterlimit:10;stroke-dasharray:none;stroke-opacity:1"
             id="path84" /><path
             d="M 11898.7,6535.57 3486.17,-3419.35 -910.727,8860.7 11928.3,6504.3 3444.25,-3429.24 -898.242,8901.95 11957.7,6472.79 3402.2,-3438.89 -885.484,8943.2 11987,6441.03 3360,-3448.31 -872.449,8984.45 12016.2,6409.04 3317.67,-3457.48 -859.141,9025.7 12045.2,6376.81 3275.21,-3466.42 -845.555,9066.94 12074.1,6344.34 3232.6,-3475.12 -831.691,9108.18 12102.8,6311.64 3189.87,-3483.57 -817.555,9149.42 12131.4,6278.7 3147,-3491.79 -803.137,9190.64 12159.9,6245.52 3104,-3499.75 -788.445,9231.86 12188.2,6212.11 3060.87,-3507.47 -773.473,9273.07 12216.3,6178.46 3017.61,-3514.94 -758.227,9314.26 12244.3,6144.58 2974.23,-3522.17 -742.699,9355.44 12272.2,6110.47 2930.72,-3529.14 -726.891,9396.6 12299.9,6076.13"
             style="fill:none;stroke:#000000;stroke-width:9.995;stroke-linecap:round;stroke-linejoin:round;stroke-miterlimit:10;stroke-dasharray:none;stroke-opacity:1"
             id="path86" /><path
             d="M 12299.9,6076.13 2887.09,-3535.87 -710.809,9437.74 12327.4,6041.55 2843.34,-3542.34 -694.445,9478.86 12354.8,6006.74 2799.46,-3548.57 -677.805,9519.96 12382,5971.7 2755.47,-3554.54 -660.883,9561.04 12409,5936.43 2711.36,-3560.25 -643.68,9602.09 12435.9,5900.93 2667.13,-3565.71 -626.199,9643.11 12462.7,5865.2 2622.79,-3570.91 -608.438,9684.11 12489.2,5829.25 2578.33,-3575.85 -590.398,9725.07 12515.6,5793.07 2533.76,-3580.54 -572.078,9766 12541.9,5756.66 2489.08,-3584.96 -553.477,9806.89 12567.9,5720.03 2444.29,-3589.13 -534.594,9847.75 12593.8,5683.18 2399.39,-3593.03 -515.43,9888.57 12619.5,5646.1 2354.39,-3596.66 -495.988,9929.35 12645.1,5608.79 2309.29,-3600.04 -476.262,9970.09 12670.4,5571.27"
             style="fill:none;stroke:#000000;stroke-width:9.995;stroke-linecap:round;stroke-linejoin:round;stroke-miterlimit:10;stroke-dasharray:none;stroke-opacity:1"
             id="path88" /><path
             d="M 12670.4,5571.27 2264.07,-3603.15 -456.258,10010.8 12695.6,5533.52 2218.76,-3605.99 -435.969,10051.4 12720.6,5495.56 2173.35,-3608.57 -415.402,10092 12745.4,5457.38 2127.84,-3610.88 -394.555,10132.6 12770,5418.97 2082.23,-3612.92 -373.422,10173.1 12794.5,5380.35 2036.54,-3614.69 -352.012,10213.5 12818.7,5341.51 1990.74,-3616.19 -330.32,10253.9 12842.8,5302.46 1944.85,-3617.42 -308.344,10294.2 12866.7,5263.19 1898.88,-3618.37 -286.09,10334.5 12890.4,5223.71 1852.81,-3619.05 -263.555,10374.7 12913.9,5184.01 1806.65,-3619.46 -240.734,10414.9 12937.2,5144.1 1760.41,-3619.59 -217.637,10455 12960.3,5103.98 1714.09,-3619.45 -194.258,10495 12983.2,5063.66 1667.69,-3619.03 -170.594,10535 13005.9,5023.12"
             style="fill:none;stroke:#000000;stroke-width:9.995;stroke-linecap:round;stroke-linejoin:round;stroke-miterlimit:10;stroke-dasharray:none;stroke-opacity:1"
             id="path90" /><path
             d="M 13005.9,5023.12 1621.2,-3618.33 -146.652,10574.8 13028.4,4982.37 1574.63,-3617.35 -122.43,10614.7 13050.7,4941.41 1527.99,-3616.09 -97.9258,10654.4 13072.8,4900.25 1481.27,-3614.55 -73.1406,10694.1 13094.7,4858.89 1434.48,-3612.73 -48.0742,10733.7 13116.4,4817.32 1387.61,-3610.63 -22.7305,10773.2 13137.8,4775.55 1340.68,-3608.25 2.89844,10812.6 13159.1,4733.57 1293.67,-3605.58 28.8047,10851.9 13180.1,4691.4 1246.6,-3602.63 54.9922,10891.2 13201,4649.02 1199.46,-3599.39 81.457,10930.4 13221.6,4606.45 1152.26,-3595.87 108.203,10969.5 13242,4563.68 1105,-3592.05 135.23,11008.5 13262.2,4520.71 1057.67,-3587.96 162.535,11047.4 13282.2,4477.54 1010.29,-3583.57 190.121,11086.2 13301.9,4434.18"
             style="fill:none;stroke:#000000;stroke-width:9.995;stroke-linecap:round;stroke-linejoin:round;stroke-miterlimit:10;stroke-dasharray:none;stroke-opacity:1"
             id="path92" /><path
             d="M 13301.9,4434.18 962.844,-3578.89 217.98,11124.9 13321.4,4390.63 915.348,-3573.93 246.125,11163.5 13340.7,4346.89 867.797,-3568.67 274.543,11202 13359.8,4302.95 820.191,-3563.13 303.242,11240.4 13378.6,4258.83 772.539,-3557.29 332.219,11278.8 13397.3,4214.51 724.84,-3551.16 361.469,11317 13415.6,4170.01 677.09,-3544.73 391,11355.1 13433.8,4125.32 629.297,-3538.01 420.809,11393.1 13451.7,4080.45 581.461,-3531 450.891,11430.9 13469.4,4035.39 533.586,-3523.69 481.25,11468.7 13486.9,3990.16"
             style="fill:none;stroke:#000000;stroke-width:9.995;stroke-linecap:round;stroke-linejoin:round;stroke-miterlimit:10;stroke-dasharray:none;stroke-opacity:1"
             id="path94" /></g></g></g></g></svg>
